<?xml version="1.0" encoding="UTF-8"?>
<!-- Created with Inkscape (http://www.inkscape.org/) -->
<svg id="svg1" width="297mm" height="210mm" version="1.1" viewBox="0 0 297 210" xmlns="http://www.w3.org/2000/svg" xmlns:xlink="http://www.w3.org/1999/xlink">
 <defs id="defs1">
  <pattern id="pattern24" patternTransform="scale(.2)" preserveAspectRatio="xMidYMid" xlink:href="#InvertedCircle"/>
  <pattern id="InvertedCircle" width="100" height="100" fill="#67ad44" patternTransform="scale(.2)" patternUnits="userSpaceOnUse" preserveAspectRatio="xMidYMid">
   <path id="rect2" d="m100 0-24.912 24.912c-.54715-.52598-1.1118-1.0237-1.6836-1.5078l-.52539-.52539-.04883.04883c-6.4858-5.2621-14.403-7.9082-22.33-7.9082-9.0915 1e-6-18.182 3.4597-25.102 10.379-12.952 12.952-13.763 33.503-2.4688 47.43l-.05078.05078.52539.52539c.48412.57197.98171 1.1363 1.5078 1.6836l-24.912 24.912h100zm-24.957 29.199a32.5 32.5 0 016.8496 29.713 32.5 32.5 0 01-22.98 22.98 32.5 32.5 0 01-29.629-6.9336z"/>
  </pattern>
  <pattern id="pattern23" patternTransform="translate(582.57 112.16)" preserveAspectRatio="xMidYMid" xlink:href="#pattern15-8"/>
  <pattern id="pattern15-8" width="20" height="20" fill="#6a1947" patternTransform="translate(445,105)" patternUnits="userSpaceOnUse" preserveAspectRatio="xMidYMid">
   <path id="path11-3" d="m0 0v10h10c-5 0-10-5-10-10zm10 10v-10h10c-5 0-10 5-10 10zm0 10v-10h-10c5 0 10 5 10 10zm10-10v10h-10c5 0 10-5 10-10z" stop-color="#000000" stroke-linecap="square" stroke-width="4.8561" style="paint-order:stroke markers fill"/>
  </pattern>
  <linearGradient id="swatch20">
   <stop id="stop20" offset="0"/>
  </linearGradient>
  <pattern id="pattern3" patternTransform="scale(.4)" preserveAspectRatio="xMidYMid" xlink:href="#DecorativePaper"/>
  <pattern id="DecorativePaper" width="100" height="100" fill="#112149" patternTransform="scale(.5)" patternUnits="userSpaceOnUse" preserveAspectRatio="xMidYMid">
   <path id="path163941" d="m95.498 0c.2337.65569 1.3317 1.0042 1.7344 1.6504l.002.0019c.0425.01128.0803.0198.12305.03125-.0136.05056-.0274.09646-.041.14648.33338.76643.14131 1.9755.89062 2.2793.60752.24632 1.1841-.37128 1.7929-.7832v-3.3261zm1.8184 1.8301c-.0263-.06034-.0485-.12362-.082-.17773-5.395-1.432-9.1267-1.5572-12.402.33398-4.3301 2.5-5.9293 5.732-7.0273 9.8301 4.0981 1.0981 9.0632 1.6973 12.527-.30273 3.432-1.9815 5.5221-4.3266 6.9844-9.6836zm2.6836 1.8359c-3.5585 3.6901-5.3613 6.7383-5.3613 10.334 0 5 2 8 5 11 .12095-.12094.24058-.25282.36133-.37695zm0 71.002c-2.7718 2.9137-5.3613 6.6174-5.3613 10.332 0 3.957.98357 6.9371 4.877 10.873.0495.0325.0999.061.14843.0996.11912-.11928.22039-.23174.33594-.34961zm-.33594 21.305c-.009.009-.0162.0182-.0254.0273-.043-.043-.0807-.0842-.12304-.12696-.22218-.1458-.45293-.23001-.71094-.16601-.84738.2102-.75052 1.6287-1.3125 2.2969-.56199.66813-1.9771.81665-2.0391 1.6875-.008.11138.0106.21244.0449.3086h4.502v-3.7246c-.11085-.10935-.22292-.21282-.33594-.30273zm-16.164-10.443c-1.7047-.0074-3.4024.3067-5.1953.78711 1.0981 4.0981 3.0632 8.6973 6.5273 10.697 3.4641 2 6.5613 2.634 12.025 1.1699-1.4641-5.4641-3.2239-8.7911-6.5254-10.697-2.4357-1.4062-4.6403-1.9475-6.832-1.957zm-82.861-11.529c-.21406.21406-.4257.44409-.63867.66797v20.955c3.747-3.8223 5.6387-6.9334 5.6387-10.623 0-5-2-8-5-11zm15.332 12.174c-2.1863-.03678-4.2933.3125-6.0254 1.3125-3.4547 1.9946-5.5501 4.3545-7.0137 9.7871.1821.0273.35088.0716.48633.16601 5.1884 1.336 8.8302 1.4201 12.027-.42578 4.3301-2.5 5.9293-5.732 7.0273-9.8301-2.049-.54904-4.3157-.97299-6.502-1.0098zm-12.553 11.266c-.16926-.0436-.32542-.0768-.49805-.12304.004-.0148.0077-.0282.01172-.043-.58814-.0882-1.352.0688-1.8926-.15039-.38015-.15409-.70906-.52209-1.0391-.84763v3.7246h3.0176c.19555-.80689 1.0336-1.6604.61133-2.3379-.05772-.0926-.12909-.16559-.21094-.22266zm-3.418-97.439v3.3262c.20063-.13574.40563-.24798.61523-.30078.0085-.0085.01493-.01688.02344-.02539.0064.0064.01121.01315.01758.01953.84592-.18254 2.0493.4948 2.6035-.16406.56198-.66813-.34905-1.76-.28711-2.6309.005304-.074565.02661-.14905.044922-.22461zm.65625 3.0195c-.01189.0026-.02537.000993-.03711.0039-.0014.00034-.0025.0016-.0039.002-.21825.21848-.40896.42667-.61524.64058v20.957c2.8744-2.9549 5.6387-6.7843 5.6387-10.623 0-3.9936-.99838-6.99-4.9824-10.98zm8.0566-3.0039c-1.5277-.0024-3.2439.25174-5.293.80078 1.4641 5.4641 3.2239 8.7912 6.5254 10.697 4.3301 2.5 7.9293 2.268 12.027 1.1699-1.0981-4.0981-3.0632-8.6973-6.5273-10.697-2.1651-1.25-4.1863-1.9666-6.7324-1.9707zm44.547 52.84c-.56199.66813-1.793-.04298-2.6403.16722-.84737.2102-1.6033 1.4142-2.4124 1.0862s-.51318-1.7185-.97494-2.4594c-.46176-.74094-1.8404-1.0878-1.7785-1.9587.06194-.87086 1.4758-1.0191 2.0378-1.6872.56199-.66813.46586-2.0865 1.3132-2.2967.84737-.2102 1.4253 1.0886 2.2344 1.4167.80909.32802 2.1283-.2017 2.5901.53924.46176.74094-.59493 1.6919-.65687 2.5628-.06194.87086.84952 1.9618.28753 2.63zm6.6866 8.6576c4.3301 2.5 7.9282 2.2679 12.026 1.1699-1.0981-4.0981-3.0622-8.6962-6.5263-10.696-3.4641-2-6.5622-2.634-12.026-1.1699 1.4641 5.4641 3.2248 8.79 6.5263 10.696zm-19.615-24.026c-4.3301-2.5-7.9282-2.2679-12.026-1.1699 1.0981 4.0981 3.0622 8.6962 6.5263 10.696 3.4641 2 6.5622 2.634 12.026 1.1699-1.4641-5.4641-3.2248-8.79-6.5263-10.696zm25.115 9.5263c4.3301-2.5 5.9282-5.7321 7.0263-9.8301-4.0981-1.0981-9.0622-1.6962-12.526.30384-3.4641 2-5.5622 4.366-7.0263 9.8301 5.4641 1.4641 9.2248 1.6023 12.526-.30384zm-30.615 4.9737c-4.3301 2.5-5.9282 5.7321-7.0263 9.8301 4.0981 1.0981 9.0622 1.6962 12.526-.30384 3.4641-2 5.5622-4.366 7.0263-9.8301-5.4641-1.4641-9.2248-1.6023-12.526.30384zm20.807-16.987c0-5-2-8-5-11-3 3-6 7-6 11s1 7 5 11c4-4 6-7.1878 6-11zm-11 29c0 5 2 8 5 11 3-3 6-7 6-11s-1-7-5-11c-4 4-6 7.1878-6 11zm6.3611 32a3 3 0 003 3 3 3 0 003-3 3 3 0 00-3-3 3 3 0 00-3 3zm42-42a3 3 0 003 3 3 3 0 003-3 3 3 0 00-3-3 3 3 0 00-3 3zm-7 7a3 3 0 003 3 3 3 0 003-3 3 3 0 00-3-3 3 3 0 00-3 3zm-7 7a3 3 0 003 3 3 3 0 003-3 3 3 0 00-3-3 3 3 0 00-3 3zm-7 7a3 3 0 003 3 3 3 0 003-3 3 3 0 00-3-3 3 3 0 00-3 3zm-7 7a3 3 0 003 3 3 3 0 003-3 3 3 0 00-3-3 3 3 0 00-3 3zm-7 7a3 3 0 003 3 3 3 0 003-3 3 3 0 00-3-3 3 3 0 00-3 3zm-57-43a3 3 0 003 3 3 3 0 003-3 3 3 0 00-3-3 3 3 0 00-3 3zm42-42a3 3 0 003 3 3 3 0 003-3 3 3 0 00-3-3 3 3 0 00-3 3zm-7 7a3 3 0 003 3 3 3 0 003-3 3 3 0 00-3-3 3 3 0 00-3 3zm-7 7a3 3 0 003 3 3 3 0 003-3 3 3 0 00-3-3 3 3 0 00-3 3zm-7 7a3 3 0 003 3 3 3 0 003-3 3 3 0 00-3-3 3 3 0 00-3 3zm-7 7a3 3 0 003 3 3 3 0 003-3 3 3 0 00-3-3 3 3 0 00-3 3zm-7 7a3 3 0 003 3 3 3 0 003-3 3 3 0 00-3-3 3 3 0 00-3 3zm91 7a3 3 0 01-3 3 3 3 0 01-3-3 3 3 0 013-3 3 3 0 013 3zm-42-42a3 3 0 01-3 3 3 3 0 01-3-3 3 3 0 013-3 3 3 0 013 3zm7 7a3 3 0 01-3 3 3 3 0 01-3-3 3 3 0 013-3 3 3 0 013 3zm7 7a3 3 0 01-3 3 3 3 0 01-3-3 3 3 0 013-3 3 3 0 013 3zm7 7a3 3 0 01-3 3 3 3 0 01-3-3 3 3 0 013-3 3 3 0 013 3zm7 7a3 3 0 01-3 3 3 3 0 01-3-3 3 3 0 013-3 3 3 0 013 3zm7 7a3 3 0 01-3 3 3 3 0 01-3-3 3 3 0 013-3 3 3 0 013 3zm-43 57a3 3 0 01-3 3 3 3 0 01-3-3 3 3 0 013-3 3 3 0 013 3zm-42-42a3 3 0 01-3 3 3 3 0 01-3-3 3 3 0 013-3 3 3 0 013 3zm7 7a3 3 0 01-3 3 3 3 0 01-3-3 3 3 0 013-3 3 3 0 013 3zm7 7a3 3 0 01-3 3 3 3 0 01-3-3 3 3 0 013-3 3 3 0 013 3zm7 7a3 3 0 01-3 3 3 3 0 01-3-3 3 3 0 013-3 3 3 0 013 3zm7 7a3 3 0 01-3 3 3 3 0 01-3-3 3 3 0 013-3 3 3 0 013 3zm7 7a3 3 0 01-3 3 3 3 0 01-3-3 3 3 0 013-3 3 3 0 013 3z" fill-opacity=".99482"/>
  </pattern>
  <radialGradient id="radialGradient2" cx="543.13" cy="411.62" r="427.92" gradientTransform="matrix(.26936 0 0 .18729 -1.3063 32.887)" gradientUnits="userSpaceOnUse">
   <stop id="stop1" stop-color="#fefea0" offset="0"/>
   <stop id="stop2" stop-color="#c0a260" offset="1"/>
  </radialGradient>
  <linearGradient id="linearGradient3" x1="34.58" x2="258.65" y1="170.44" y2="170.44" gradientTransform="matrix(1.0002 0 0 1.0293 -3.3979 -10.944)" gradientUnits="userSpaceOnUse" xlink:href="#swatch20"/>
  <linearGradient id="swatch6">
   <stop id="stop6" stop-color="#734702" offset="0"/>
  </linearGradient>
  <linearGradient id="linearGradient4" x1="117.69" x2="190.84" y1="98.404" y2="98.404" gradientTransform="matrix(.753 0 0 .753 29.405 32.925)" gradientUnits="userSpaceOnUse" xlink:href="#swatch6"/>
  <linearGradient id="linearGradient3-4" x1="27.138" x2="79.695" y1="44.561" y2="44.561" gradientTransform="matrix(.91665 0 0 .59246 18.439 56.395)" gradientUnits="userSpaceOnUse" xlink:href="#swatch6"/>
  <linearGradient id="linearGradient2" x1="27.27" x2="79.562" y1="44.561" y2="44.561" gradientTransform="matrix(.91665 0 0 .59246 18.439 56.395)" gradientUnits="userSpaceOnUse" xlink:href="#swatch20"/>
  <linearGradient id="linearGradient4-9" x1="61.429" x2="74.291" y1="74.783" y2="74.783" gradientUnits="userSpaceOnUse" xlink:href="#swatch6"/>
  <linearGradient id="linearGradient8" x1="49.691" x2="88.77" y1="64.135" y2="64.135" gradientUnits="userSpaceOnUse" xlink:href="#swatch20"/>
  <linearGradient id="linearGradient17" x1="56.284" x2="75.716" y1="64.385" y2="64.385" gradientUnits="userSpaceOnUse" xlink:href="#swatch20"/>
  <radialGradient id="radialGradient41" cx="118.65" cy="180.91" r="7.4979" gradientTransform="matrix(.99994 .010639 -.0093739 .88103 -49.785 72.147)" gradientUnits="userSpaceOnUse">
   <stop id="stop40" stop-color="#dfcc49" offset="0"/>
   <stop id="stop42" stop-color="#e19912" offset="1"/>
   <stop id="stop41" stop-color="#eea900" stop-opacity="0" offset="1"/>
  </radialGradient>
  <linearGradient id="linearGradient1" x1="56.2" x2="85.423" y1="260.91" y2="260.91" gradientUnits="userSpaceOnUse" xlink:href="#swatch6"/>
  <linearGradient id="linearGradient12" gradientUnits="userSpaceOnUse" xlink:href="#swatch20"/>
  <linearGradient id="linearGradient20" x1="117.56" x2="173.58" y1="107.15" y2="107.15" gradientUnits="userSpaceOnUse" xlink:href="#swatch20"/>
  <linearGradient id="linearGradient159" x1="126.83" x2="151.08" y1="189.05" y2="189.05" gradientTransform="matrix(1.0383 -.46803 .65472 .74224 -212.56 86.57)" gradientUnits="userSpaceOnUse" xlink:href="#swatch20"/>
  <linearGradient id="linearGradient163" x1="129.91" x2="158.04" y1="160.03" y2="160.03" gradientTransform="matrix(1.2406 0 0 1.2406 -123.38 -69.274)" gradientUnits="userSpaceOnUse" xlink:href="#swatch20"/>
  <linearGradient id="linearGradient162" x1="144.03" x2="155.36" y1="141.79" y2="141.79" gradientTransform="matrix(1.2406 0 0 1.2406 -123.38 -68.709)" gradientUnits="userSpaceOnUse" xlink:href="#swatch20"/>
  <linearGradient id="linearGradient161" x1="129.61" x2="135.98" y1="145.87" y2="145.87" gradientTransform="matrix(1.2406 0 0 1.2406 -122.53 -68.286)" gradientUnits="userSpaceOnUse" xlink:href="#swatch20"/>
  <linearGradient id="linearGradient160" x1="142.73" x2="150.29" y1="178.27" y2="178.27" gradientTransform="matrix(1.1397 -.026067 .040368 1.0989 -115.9 -40.852)" gradientUnits="userSpaceOnUse" xlink:href="#swatch20"/>
  <linearGradient id="linearGradient183" x1="134.98" x2="143.83" y1="200.73" y2="200.73" gradientTransform="matrix(.7041 -.81885 .81885 .7041 -188.27 143.44)" gradientUnits="userSpaceOnUse" xlink:href="#swatch20"/>
  <linearGradient id="linearGradient149" x1="125.46" x2="130.44" y1="63.081" y2="63.081" gradientTransform="matrix(.88477 0 0 .88477 -64.336 71.683)" gradientUnits="userSpaceOnUse" xlink:href="#swatch20"/>
  <linearGradient id="linearGradient150" x1="137.39" x2="141.59" y1="61.999" y2="61.999" gradientTransform="matrix(.88477 0 0 .88477 -74.603 72.672)" gradientUnits="userSpaceOnUse" xlink:href="#swatch20"/>
  <linearGradient id="linearGradient147" x1="125.46" x2="130.44" y1="63.081" y2="63.081" gradientTransform="matrix(-.67941 .46783 .46783 .67941 118.14 21.339)" gradientUnits="userSpaceOnUse" xlink:href="#swatch20"/>
  <linearGradient id="linearGradient148" x1="137.39" x2="141.59" y1="61.999" y2="61.999" gradientTransform="matrix(-.67941 .46783 .46783 .67941 126.55 16.67)" gradientUnits="userSpaceOnUse" xlink:href="#swatch20"/>
  <linearGradient id="linearGradient38" x1="134.98" x2="143.83" y1="200.73" y2="200.73" gradientTransform="matrix(.7041 -.81885 .81885 .7041 -191.45 147.52)" gradientUnits="userSpaceOnUse" xlink:href="#swatch20"/>
  <linearGradient id="linearGradient28" x1="136.37" x2="142.93" y1="182.1" y2="182.1" gradientTransform="matrix(-2.1968 -.092335 -.056694 1.3488 384.88 -77.19)" gradientUnits="userSpaceOnUse" xlink:href="#swatch20"/>
  <linearGradient id="linearGradient119" x1="139.75" x2="145.12" y1="160.23" y2="160.23" gradientTransform="matrix(.90597 0 0 .90597 -89.644 -30.635)" gradientUnits="userSpaceOnUse" xlink:href="#swatch20"/>
  <linearGradient id="linearGradient118" x1="139.95" x2="144.92" y1="162.12" y2="162.12" gradientTransform="matrix(.66602 0 0 .67312 -99.519 12.528)" gradientUnits="userSpaceOnUse" xlink:href="#swatch20"/>
  <linearGradient id="linearGradient117" x1="149.99" x2="155.76" y1="156.9" y2="156.9" gradientTransform="matrix(.87042 .062807 -.065295 .9049 -74.776 -39.875)" gradientUnits="userSpaceOnUse" xlink:href="#swatch20"/>
  <linearGradient id="linearGradient116" x1="160.63" x2="165.99" y1="151.48" y2="151.48" gradientTransform="matrix(.58246 0 0 .64306 -109.61 22.736)" gradientUnits="userSpaceOnUse" xlink:href="#swatch20"/>
  <linearGradient id="linearGradient31" x1="43.092" x2="49.558" y1="120.73" y2="120.73" gradientUnits="userSpaceOnUse" xlink:href="#swatch20"/>
  <linearGradient id="linearGradient37" x1="41.889" x2="75.621" y1="220.48" y2="220.48" gradientTransform="translate(155.33 -6.4662)" gradientUnits="userSpaceOnUse">
   <stop id="stop36" stop-color="#891605" offset="0"/>
  </linearGradient>
  <linearGradient id="linearGradient227" x1="136.37" x2="142.93" y1="182.1" y2="182.1" gradientTransform="matrix(2.049 -.79733 .48956 1.2581 -302.67 18.883)" gradientUnits="userSpaceOnUse" xlink:href="#swatch20"/>
  <linearGradient id="linearGradient56" x1="76.076" x2="75.672" y1="254.52" y2="231.38" gradientUnits="userSpaceOnUse">
   <stop id="stop76" stop-color="#fbdb62" offset=".33242"/>
   <stop id="stop77" stop-color="#e43899" stop-opacity=".93868" offset="1"/>
  </linearGradient>
  <linearGradient id="linearGradient57" x1="64.658" x2="87.023" y1="242.92" y2="242.92" gradientUnits="userSpaceOnUse" xlink:href="#swatch20"/>
  <linearGradient id="linearGradient43" x1="39.817" x2="65.581" y1="125.22" y2="125.22" gradientUnits="userSpaceOnUse" xlink:href="#swatch20"/>
  <linearGradient id="linearGradient46" x1="39.817" x2="65.581" y1="125.22" y2="125.22" gradientTransform="translate(.24849 -.34789)" gradientUnits="userSpaceOnUse" xlink:href="#swatch20"/>
  <linearGradient id="linearGradient44" x1="39.817" x2="65.581" y1="125.22" y2="125.22" gradientTransform="matrix(1.1584 0 0 1.1535 -2.6266 -21.915)" gradientUnits="userSpaceOnUse" xlink:href="#swatch20"/>
  <linearGradient id="linearGradient45" x1="39.817" x2="65.581" y1="125.22" y2="125.22" gradientTransform="matrix(1.0523 -1.6858e-8 1.06e-8 1.0846 .42541 -11.935)" gradientUnits="userSpaceOnUse" xlink:href="#swatch20"/>
  <linearGradient id="linearGradient47" x1="39.817" x2="65.581" y1="125.22" y2="125.22" gradientTransform="matrix(.11036 0 0 .085708 -20.686 38.561)" gradientUnits="userSpaceOnUse" xlink:href="#swatch20"/>
  <linearGradient id="linearGradient48" x1="39.817" x2="65.581" y1="125.22" y2="125.22" gradientTransform="matrix(.10192 0 0 .085782 -2.6494 34.31)" gradientUnits="userSpaceOnUse" xlink:href="#swatch20"/>
  <linearGradient id="linearGradient49" x1="39.817" x2="65.581" y1="125.22" y2="125.22" gradientTransform="matrix(.048389 -.018368 .0314 .050581 11.286 30.481)" gradientUnits="userSpaceOnUse" xlink:href="#swatch20"/>
  <linearGradient id="linearGradient51" x1="39.817" x2="65.581" y1="125.22" y2="125.22" gradientTransform="matrix(.069202 -.008991 .016799 .069202 -24.906 38.3)" gradientUnits="userSpaceOnUse" xlink:href="#swatch20"/>
  <linearGradient id="linearGradient5" x1="205.53" x2="234.98" y1="115" y2="115" gradientTransform="translate(70.29 18.033)" gradientUnits="userSpaceOnUse">
   <stop id="stop5" offset="0"/>
  </linearGradient>
  <linearGradient id="linearGradient18" x1="235.16" x2="263.86" y1="109.21" y2="109.21" gradientTransform="translate(70.29 18.033)" gradientUnits="userSpaceOnUse">
   <stop id="stop18" offset="0"/>
  </linearGradient>
  <linearGradient id="linearGradient58" x1="185.37" x2="189.31" y1="114.27" y2="114.27" gradientTransform="matrix(.91282 0 0 1.0277 16.47 -3.574)" gradientUnits="userSpaceOnUse">
   <stop id="stop58" stop-color="#5c2e2e" offset="0"/>
  </linearGradient>
 </defs>
 <g id="layer1-5">
  <path id="edit_color__stena" d="m124.2 189.95c-29.416-1.3067-54.704-4.7158-73.386-9.8932-4.674-1.2953-12.404-3.8482-13.768-4.5473-.5649-.28942-.90995-.96406-1.6289-3.1848-6.2992-19.457-7.4312-43.23-3.0896-64.882 3.4028-16.97 9.332-30.793 18.443-42.997 3.2779-4.3909 10.467-11.699 14.326-14.564 13.818-10.257 34.017-16.807 59.82-19.397 6.0982-.61228 23.86-.86301 30.637-.43248 27.31 1.7349 51.463 8.3014 67.638 18.388 16.153 10.073 27.967 27.583 33.523 49.686 5.8066 23.099 4.4263 49.198-3.755 71.006-.72663 1.9368-1.6236 4.122-1.9932 4.856-.64976 1.2902-.7697 1.3721-3.6132 2.4669-17.48 6.7301-41.967 11.011-74.925 13.099-8.1777.518-39.667.77704-48.228.39675z" fill="url(#radialGradient2)" stroke-width="1.0435"/>
  <g id="edit_pattern__stena__kytky">
   <path id="kytkyok" transform="translate(.8691 -.035366)" d="m31.733 101.02c14.365-60.187 59.928-65.51 104.17-73.157 61.493 2.2481 107.98 18.852 120.87 67.59 6.7219 26.639-1.905 53.277-5.9638 79.916l-215.49 1.988c-4.455-25.446-14.905-50.892-3.5783-76.337z" fill="url(#pattern3)" stroke-width="1.351"/>
  </g>
  <g id="edit_pattern__stena__tapeta">
   <path id="kytky" d="m30.514 99.222c14.365-60.187 59.928-65.51 104.17-73.157 61.493 2.2481 107.98 18.852 120.87 67.59 6.7219 26.639-1.905 53.277-5.9638 79.916l-215.49 1.988c-4.455-25.446-14.905-50.892-3.5783-76.337z" fill="url(#pattern23)" stroke-width="1.351"/>
  </g>
  <g id="edit_pattern__stena__kolecka" transform="translate(207.94 9.1446)">
   <path id="kolecko" d="m-175.15 91.072c14.365-60.187 59.928-65.51 104.17-73.157 61.493 2.2481 107.98 18.852 120.87 67.59 6.7219 26.639-1.905 53.277-5.9638 79.916l-215.49 1.988c-4.455-25.446-14.905-50.892-3.5783-76.337z" fill="url(#pattern24)" stroke-width="1.351"/>
  </g>
  <path id="fixed__obrys_komory" d="m34.42 177.06c-13.657-37.24-9.105-95.852 25.689-126.29 37.07-32.706 135.27-30.44 172.67 1.6191 33.168 28.497 37.395 86.461 19.511 124.67-47.151 21.049-169.42 20.725-217.87 0z" fill="none" stroke="#2f1c12" stroke-linejoin="round" stroke-width="4.543"/>
 </g>
 <g id="layer11" transform="translate(.8691 -.035366)">
  <path id="edit_color__koberec" d="m133.79 191.48c-35.273-1.068-66.195-5.9563-91.262-14.428-4.7754-1.6138-5.1178-1.7789-6.286-3.0316-2.4144-2.589-3.0211-4.6425-2.0429-6.9147 5.359-12.448 60.492-22.341 124.49-22.338 42.744.002 74.724 4.4789 88.267 12.357 2.7536 1.6017 5.3936 4.1706 6.192 6.025 1.4396 3.3439.20491 7.0132-3.7729 11.212l-2.1984 2.3207-5.1037 1.6155c-20.557 6.5069-43.175 10.522-69.646 12.364-12.116.8431-27.23 1.1629-38.639.81745z" fill="#7682ea" stroke-width="1.0435"/>
  <path id="fixed__vnejsi_tvar_koberec" d="m36.979 176c53.591 20.415 149.23 22.908 210.5 1.4468 57.896-50.137-253.74-38.683-210.5-1.4468z" fill="none" stroke="url(#linearGradient3)" stroke-width="1.3908"/>
 </g>
 <g id="layer28" transform="translate(25.218,31.947)">
  <g id="g46" transform="translate(41.747,-130.01)" fill="url(#linearGradient1)" stroke="#000" stroke-linecap="square">
   <path id="path46" transform="translate(12.996,16.115)" d="m51.499 236.88.03764 10.522-1.3308.0497-.1988-9.741z" stroke-width=".63"/>
   <path id="path42" transform="translate(12.996,16.115)" d="m44.134 243.72 6.7473-7.5907 20.664.28114-6.0445 7.169z" stroke-width=".83"/>
   <path id="path43" transform="translate(12.996,16.115)" d="m71.825 236.87.0025 10.486-1.0848.0146-.12851-9.249z" stroke-width=".63"/>
   <path id="path44" transform="translate(12.996,16.115)" d="m66.709 242.2-.10293 11.014-1.2606.0146-.05823-9.7058z" stroke-width=".63"/>
   <path id="path45" transform="translate(12.996,16.115)" d="m45.385 243.73.0582 9.6913-1.5211.11998.01206-9.6089z" stroke-width=".63"/>
  </g>
 </g>
 <g id="layer1" transform="translate(25.218,31.947)">
  <g id="g11" transform="matrix(1.1932,0,0,1.1932,21.9,-21.677)">
   <rect id="rect1" x="43.436" y="80.547" width="47.933" height="4.4972" ry="2.1437" fill="url(#linearGradient3-4)" stroke="url(#linearGradient2)" stroke-linecap="round" stroke-width=".78445"/>
   <path id="path4" d="m60.304 69.301 3.1628 11.035h7.5907l3.2331-10.964z" fill="url(#linearGradient4-9)" stroke="url(#linearGradient12)" stroke-linecap="round" stroke-width=".81378"/>
   <path id="path5" d="m72.253 69.02c3.6943 1.4135 7.9297 1.5129 11.035 4.3576 1.8401-2.5652-8.1909-3.7251-13.091-5.6931.2046.46795 5.1637-.1668 6.9582-.75556 1.0696-.35094 8.1062.93153 7.0921-.000469-1.7108-1.5724-11.075-1.6959-13.681-.71995 4.1006-1.4847 8.7576-5.5648 13.495-4.2874-1.9876-3.7879-8.5852-.33163-15.744 4.0062 2.6378-3.658 4.6262-9.864 8.3639-9.2073-2.4912-.78571-4.8108-2.149-11.035 9.629-.47924-4.665-1.2988-9.7619.56228-11.456-3.2306.90349-3.353 5.2605-2.3897 10.824-3.059-5.3342-8.6315-11.944-10.683-8.891 3.3478.82245 6.5796 5.0191 8.645 9.7344-4.5564-3.4025-10.127-5.951-12.089-1.8274 3.373-2.6284 6.9128.55216 10.472 2.7411-4.3882.396-5.0924 2.5463-5.6228 4.7794 1.7764-1.8 3.3586-3.778 7.3096-3.5845z" fill="#37ad17" stroke="url(#linearGradient8)" stroke-linecap="round" stroke-width=".665"/>
   <path id="path17" d="m63.863 68.435c-2.1136-2.8905-2.3741-5.7005-2.3607-8.4985.43187 2.5346 1.2607 5.0693 2.9074 7.6039.89691-1.8146-3.5211-6.2781-2.9501-8.5117.09168 2.0109 5.7233 7.0662 3.6973 9.6284l1.4759.24901c-.71049-1.477-.86373-4.3466-2.1983-5.4908 1.2422-.36618 2.0659 2.5453 3.0565 4.1499.06737-2.8171-1.5009-5.9134 2.0978-8.1276-1.9245 2.4049-1.0969 5.3259-.905 8.1276l.80746.02911c.96124-2.2081.27451-4.0459-1.0062-5.0238 1.3938 1.4295 2.2396-.28033 2.0625 4.9947 3.6995-7.0892 4.0166-4.5562 5.1687-4.3983-1.7418-.8599-3.7433 2.9304-5.2194 5.7008l-7.8514-.03514c-2.279-1.2725-4.5414-2.4803-6.3614-1.9631 1.667.11247 1.4741-1.7013 5.4669.82003-.03155-.80688-4.1922-7.6267-4.0256-5.5663.05515.68191 6.3135 6.1361 6.1378 6.3117z" fill="#287d11" stroke="url(#linearGradient17)" stroke-linecap="round" stroke-width=".2"/>
   <g id="layer24" transform="matrix(.83806 0 0 .83806 -20.497 -26.76)">
    <g id="g31" transform="translate(-3.8596,-86.56)" fill="#891605" stroke="#000" stroke-linecap="square">
     <path id="path7" d="m36.12 193.05c-15.142 8.1521-3.9491 31.288-2.9769 45.922l3.8973-3.1704" stroke-width=".93"/>
     <path id="path6" d="m34.733 267.8 17.693 11.63c1.5796 1.6011 4.2558 2.1056 8.747.79518l30.515-6.0633c2.5931-.40452 6.0015.53043 5.0693-5.6657l.59638-21.47c1.9648-1.4951 5.5982-5.4542.2982-9.0452l-20.675-6.6596c-1.6336-9.6267 7.6959-38.632-13.717-40.057l-18.289-.49699c-4.5829 1.4984-13.309-.27314-12.723 12.524l4.5723 32.801c-4.8463 2.5293-3.6923 5.6041-2.8825 8.6476z" stroke-width=".93"/>
     <path id="path8" d="m91.489 274.36c1.0461-13.262-3.8844-34.731 4.9287-36.695" stroke-width=".93"/>
     <path id="path11" d="m61.02 257.94-17.862-8.2138" stroke-width=".93"/>
     <path id="path12" d="m61.074 258.16 29.766-4.7008" stroke-width=".93"/>
     <path id="path13" d="m61.226 266.57 29.965-4.7299" stroke-width=".93"/>
     <path id="path14" d="m59.905 245.73 11.804-1.5904 19.283 7.5542" stroke-width=".93"/>
     <path id="path15" d="m71.411 243.85c.03403-4.6862-1.2072-9.1588 5.6657-12.325" stroke-width=".93"/>
     <ellipse id="path16" cx="47.532" cy="208.35" rx="1.0934" ry="1.1431" stroke-width=".43"/>
     <ellipse id="ellipse16" cx="62.854" cy="207.72" rx="1.0934" ry="1.1431" stroke-width=".43"/>
     <ellipse id="ellipse17" cx="50.168" cy="227.15" rx="1.0934" ry="1.1431" stroke-width=".43"/>
     <ellipse id="ellipse18" cx="65.631" cy="225.96" rx="1.0934" ry="1.1431" stroke-width=".43"/>
    </g>
   </g>
  </g>
 </g>
 <g id="layer9" transform="translate(25.218,31.947)">
  <g id="g1" transform="translate(49.699,-117.69)" stroke="#000" stroke-linecap="square">
   <path id="path39" d="m63.217 228.86 7.4502-.14057 3.3737 8.153-13.776-.14056z" fill="url(#radialGradient41)" stroke-width=".83"/>
   <path id="path40" d="m65.195 237.22c-7e-5 1.7443-2.1283 4.6269 0 5.2328l3.2568-.10161c2.0682-.15472.11935-3.3462-.0362-5.182z" fill="#af6060" stroke-width=".71607"/>
  </g>
 </g>
 <g id="layer26" transform="translate(20.392,-22.461)">
  <path id="path130" d="m63.994 151.53c8.0838 10.364 4.4489 23.081-14.711 17.982-2.757-.0338-4.3101-3.9327-6.2992-8.4684.15306-.7737 3.11-3.6046 10.829-4.0063l.39325-1.4733c1.8295.94768 7.967-.95568 9.788-4.0343z" fill="#494949" stroke="url(#linearGradient159)" stroke-width=".70096"/>
  <path id="path142" d="m50.744 161.43c3.9972 8.8289 6.8877 11.303 13.675 8.9676" fill="none" stroke="#000" stroke-linecap="round" stroke-linejoin="bevel" stroke-width=".46024"/>
  <path id="path143" d="m52.579 158.29c1.1631 5.3192 2.2642 13.606 15.285 5.5153" fill="none" stroke="#000" stroke-linecap="round" stroke-linejoin="bevel" stroke-width=".46024"/>
  <path id="path144" d="m53.921 154.91c.45753 6.7108 11.554 6.9102 12.693 2.0761" fill="none" stroke="#000" stroke-linecap="round" stroke-linejoin="bevel" stroke-width=".46024"/>
  <path id="path126" d="m70.802 127.28c1.9829 18.833-23.033 26.915-31.677 6.145-3.19-19.354 25.473-27.533 31.677-6.145z" fill="#464646" stroke="url(#linearGradient163)" stroke-width=".83793"/>
  <path id="path127" d="m55.303 114.17c-.89182-3.7406 2.236-7.4812 4.4394-11.222 2.2906-1.9864 3.879-4.8027 9.6186-2.713.68654 2.5381-.25003 4.6284-9.002 4.5627-2.07 2.8531-3.9664 5.7497-3.4529 9.2487z" fill="#494949" stroke="url(#linearGradient162)" stroke-width=".83793"/>
  <path id="path128" d="m44.435 120.88c-3.6279-3.154-4.7982-6.8346-3.8228-10.975 3.7557-1.6623 6.37-3.7323 5.5492-7.029-3.5951-.11465-6.8906.445-7.8922 6.1658-.82846 4.7665.0665 9.3303 4.8093 13.441z" fill="#494949" stroke="url(#linearGradient161)" stroke-width=".83793"/>
  <path id="path129" d="m54.867 145.53c-5.7294 8.5524 1.3275 11.635 5.6159 11.333 5.4637-.24282 5.7479-9.4756.55523-12.241-3.739 1.0493-2.755.84665-6.1711.90781z" fill="#494949" stroke="url(#linearGradient160)" stroke-width=".75616"/>
  <path id="path182" d="m76.487 178.24c-.71935-17.582-6.1402-10.425-9.2395-13.43l.91593-2.667c4.7316.10735 11.315-.73543 10.526 11.804 2.8533-1.4035 5.8274-1.2641 5.6845.68143.78857 3.0887-7.757 5.9572-7.8868 3.6117z" fill="#494949" stroke="url(#linearGradient183)" stroke-width=".65124"/>
  <path id="path138" d="m46.782 127.79c.55368-2.0119 1.8167-2.5993 3.4738-2.0667.61161.52761-.74115.0317-1.914.75124-1.1739.72025-1.7504 2.1061-1.5598 1.3155z" fill="url(#linearGradient149)" stroke="url(#linearGradient150)" stroke-width=".35391"/>
  <path id="path139" d="m62.481 123.18c-1.489-1.2522-2.7694-1.0354-3.7603.24982-.19067.72852.58586-.36763 1.867-.43524 1.2823-.0676 2.4577.69176 1.8933.1854z" fill="url(#linearGradient147)" stroke="url(#linearGradient148)" stroke-width=".32996"/>
  <path id="path38" d="m73.306 182.31c-.71935-17.582-4.848-10.723-7.9474-13.728l1.2141-2.0706c4.7316.10735 9.7242-1.0336 8.9355 11.506 2.8533-1.4035 5.8274-1.2641 5.6845.68143.78857 3.0887-7.757 5.9572-7.8868 3.6117z" fill="#494949" stroke="url(#linearGradient38)" stroke-width=".65124"/>
  <path id="path27" d="m67.949 159.73c6.1848-3.258 6.9538-9.6604 4.4349-11.504-6.1344-3.7377-11.333-4.2557-9.9-3.0679.01439.0119 1.2267 3.2452 3.9285 3.8418l4.7673 2.4527c-1.6065 3.9266-3.6679 3.4222-5.5075 5.0779-1.6345.62054-5.207-.1569-2.3416 3.7972 2.5865.74882 1.7567-1.1113 4.6185-.59817z" fill="#494949" stroke="url(#linearGradient28)" stroke-width=".864"/>
  <path id="path94" transform="translate(12.996,16.115)" d="m38.374 117.77c-1.1676.15536-5.434-4.6412-1.4059-7.0235 1.2884-.47509 3.7515-.0313 4.6803 3.5132.29774 1.0805-.000769 3.1592-3.2744 3.5103z" fill="#fff" stroke="url(#linearGradient119)" stroke-width=".6119"/>
  <ellipse id="ellipse94" transform="matrix(.93323 -.35928 .35439 .9351 12.996 16.115)" cx="-4.6528" cy="121.65" rx="1.655" ry="2.2748" stroke="url(#linearGradient118)" stroke-width=".6119"/>
  <path id="path95" transform="translate(12.996,16.115)" d="m47.926 115.24c-4.4683-.77357-3.4965-6.0132-1.8792-6.7639.86298-.64741 2.9971-.5927 4.2719 1.8112.76263 1.6913.43212 3.6346-.24344 4.0995-.78846.7608-1.3033.92786-2.1493.8532z" fill="#fff" stroke="url(#linearGradient117)" stroke-width=".54088"/>
  <ellipse id="ellipse95" transform="matrix(.79748 -.60334 .49598 .86833 12.996 16.115)" cx="-14.489" cy="120.15" rx="1.5632" ry="1.9815" stroke="url(#linearGradient116)" stroke-width=".53303"/>
  <circle id="circle96" transform="translate(12.996,16.115)" cx="39.791" cy="116.78" r=".40857" fill="#fff" stroke-width=".30595"/>
  <ellipse id="ellipse96" transform="rotate(4.1272,-217.12,188.39)" cx="56.848" cy="110.58" rx=".3333" ry=".32255" fill="#fff" stroke-width=".24553"/>
  <ellipse id="ellipse97" transform="rotate(4.1272,-217.12,188.39)" cx="56.256" cy="110.15" rx=".12902" ry=".10752" fill="#fff" stroke-width=".088198"/>
  <ellipse id="ellipse98" transform="translate(12.996,16.115)" cx="39.234" cy="116.41" rx=".12902" ry=".10752" fill="#fff" stroke-width=".088198"/>
  <path id="path31" transform="translate(12.996,16.115)" d="m43.092 121.57c2.0521 1.0944 4.5685 2.6238 6.4662-1.6868" fill="#494949" stroke="url(#linearGradient31)" stroke-linecap="round" stroke-width=".864"/>
 </g>
 <g id="g37" transform="translate(-150.49,-86.272)">
  <g id="g50" transform="translate(159.37,-25.004)" fill="url(#linearGradient56)" stroke="url(#linearGradient57)">
   <path id="edit_color__kniha__4" d="m65.901 236.67-1.2425 13.468 10.337 2.4849c.95313.57975 1.9544.97896 3.4292-.39759l6.9081-5.0693 1.6898-13.866-7.4051 5.5663c-1.1364 1.0861-2.1211.5033-3.131.19879z"/>
   <path id="kniha_3" d="m75.095 252.52 1.4401-13.767"/>
   <path id="kniha_2" d="m79.27 239-1.0934 13.319"/>
   <path id="edit_color__kniha__1" d="m66.745 236.91.74548-1.3916c5.9598.67322 10.454 1.7046 10.486 3.8268.59056-2.7724 3.7112-4.8069 7.4548-6.6596l1.3916 1.0437-8.6476 5.7154z"/>
  </g>
  <path id="path37" d="m212.26 168.96c-20.07 1.3206-6.6555 27.891-6.185 44.701l19.258 7.8719c6.1345 2.047 3.9667 6.308 5.0605 9.6993l.14057 27.411c-3.3028 1.0045-6.1944-.0467-9.137-.84342l-17.993-11.667-.70285-22.913-.56227-7.169c-10.558-40.918-.61644-44.725 10.121-47.091z" fill="url(#linearGradient37)" stroke="#000" stroke-linecap="square" stroke-width=".83"/>
  <path id="path9" d="m230.53 258.05-.35642-28.772c.53098-16.261-21.638-1.9644-6.6596 2.2861l.69578 27.136" fill="#891605" stroke="#000" stroke-linecap="square" stroke-width=".93"/>
  <path id="path10" d="m206.78 214.01 21.172 8.5482c-4.7683-3.275-14.7 5.1027-3.7911 9.2867l-20.774-9.244c-.29509-3.5768-.9324-7.3247 3.3935-8.591z" fill="#891605" stroke="#000" stroke-linecap="square" stroke-width=".93"/>
 </g>
 <g id="layer3" transform="translate(20.81,-21.589)" stroke="url(#linearGradient43)" stroke-width=".7">
  <g id="edit_variant__bryle__bryle" fill="none" stroke-linecap="round">
   <path id="path35" d="m46.154 131.05-6.2393-5.9609" stroke="url(#linearGradient43)" stroke-width=".9"/>
   <path id="path34" d="m65.083 125.4-1.9767-8.8595" stroke="url(#linearGradient43)" stroke-width=".7"/>
   <path id="path33" d="m54.84 128.27c.39481-.83793.87608-1.5177 2.0322-.56498" stroke="url(#linearGradient46)" stroke-width=".9"/>
   <ellipse id="ellipse32" transform="matrix(.97004 -.24295 .2931 .95608 0 0)" cx="21.294" cy="139.38" rx="4.5443" ry="4.6505" stroke="url(#linearGradient44)" stroke-width="1.0097"/>
   <ellipse id="path32" transform="matrix(.96671 -.25586 .27861 .9604 0 0)" cx="12.517" cy="139.53" rx="4.6816" ry="4.6675" stroke="url(#linearGradient45)" stroke-width="1.0482"/>
  </g>
  <g id="edit_variant__bryle__hvezda" transform="matrix(.53954 0 0 .7375 53.791 92.383)">
   <path id="path25" transform="matrix(1.5701,0,0,1.2194,3.7123,-15.62)" d="m2.8057 60.668-6.7554-1.4544-5.0279 4.7404-.70428-6.8742-6.0621-3.3169 6.3202-2.7941 1.2813-6.7904 4.6103 5.1474 6.854-.87975-3.4708 5.9753z" fill="none" stroke="#fdfdfd" stroke-opacity=".37157" stroke-width=".18521"/>
   <path id="path28" transform="matrix(1.4501,0,0,1.2205,19.883,-19.919)" d="m2.8057 60.668-6.7554-1.4544-5.0279 4.7404-.70428-6.8742-6.0621-3.3169 6.3202-2.7941 1.2813-6.7904 4.6103 5.1474 6.854-.87975-3.4708 5.9753z" fill="none" stroke="#fdfdfd" stroke-opacity=".37157" stroke-width=".18521"/>
   <path id="path36" d="m21.346 41.1-8.2526-11.368-1.7132.90032 8.896 11.248z" fill="none" stroke="#fdfdfd" stroke-opacity=".37157" stroke-width=".14492"/>
   <path id="path41" d="m-13.299 49.356-9.9104-11.419-1.5305 1.341 9.9648 11.055z" fill="none" stroke="#fdfdfd" stroke-opacity=".37157" stroke-width=".18521"/>
   <path id="path47" d="m-10.248 61.772c-.02946-.10897-.25631-1.7794-.50414-3.7122s-.47789-3.6683-.51126-3.8569l-.06067-.34283-4.5664-1.9284c-2.5115-1.0606-4.5673-1.9477-4.5683-1.9713-.000997-.02355 2.135-.77281 4.7467-1.665 2.6117-.89217 4.7658-1.6443 4.7869-1.6713.0211-.02703.46954-1.8232.99653-3.9915.52699-2.1682.97231-3.9533.98959-3.9667.01728-.01342 1.5886 1.3267 3.4919 2.9781 2.3624 2.0498 3.5315 3.0033 3.6843 3.005.12313.0013 2.4466-.21686 5.1632-.48503s4.9644-.4681 4.995-.4443c.030643.02377-1.1171 1.6115-2.5506 3.5282l-2.6063 3.4849 2.2247 3.6516c1.2236 2.0084 2.2035 3.6681 2.1776 3.6882-.025916.02013-2.2261-.32779-4.8894-.77315-2.6632-.44536-4.9524-.8229-5.0871-.83897-.19184-.02291-.95473.4903-3.524 2.3706-4.6024 3.3682-4.3234 3.1813-4.3884 2.9408zm4.3113-4.8264c1.3858-1.0135 2.5887-1.8427 2.6731-1.8427.15361 0 6.189.99516 6.5527 1.0805.10622.02491.19313.008.19313-.03765 0-.04562-.64559-1.1425-1.4346-2.4375-.78905-1.295-1.4346-2.4034-1.4346-2.4632 0-.05979.77592-1.1463 1.7243-2.4144.94835-1.2681 1.7057-2.3188 1.6829-2.3347-.022724-.01598-1.5063.11997-3.2969.30207-1.7905.18211-3.3549.33164-3.4763.33228-.14961.000644-.96644-.64678-2.5357-2.0103-1.2732-1.1063-2.3469-1.9836-2.386-1.9495-.039084.03408-.35487 1.2383-.70176 2.6761-.34688 1.4378-.63884 2.619-.64879 2.625-.01.006-1.4325.49562-3.1612 1.088-1.7287.59242-3.1551 1.1082-3.1698 1.1462-.0146.03796 1.3495.65247 3.0314 1.3656l3.058 1.2966.35341 2.646c.19438 1.4553.3564 2.6749.36004 2.7103.0037.03535.02695.06427.0518.06427.02484 0 1.179-.82922 2.5648-1.8427z" fill="#c6189d" stroke="url(#linearGradient47)" stroke-width=".068078"/>
   <path id="path48" d="m6.9905 57.54c-.027202-.10906-.23672-1.781-.46559-3.7153-.22888-1.9344-.44135-3.6714-.47217-3.8602l-.056028-.34312-4.2173-1.9301c-2.3195-1.0615-4.2181-1.9494-4.219-1.973-.0007674-.02359 1.9717-.77347 4.3838-1.6664 2.412-.89293 4.4014-1.6457 4.4209-1.6727.01949-.02707.43364-1.8248.92034-3.9949s.89796-3.9566.91392-3.9701c.01596-.01344 1.4672 1.3278 3.2249 2.9806 2.6127 2.4566 3.2429 3.0048 3.4536 3.0037.2467-.0012 3.7913-.36804 7.5192-.77809.96679-.10635 1.7814-.17345 1.8103-.14913.02889.02432-1.0306 1.6138-2.3545 3.5322l-2.407 3.4879 2.0546 3.6547c1.13 2.0101 2.035 3.6712 2.0111 3.6914-.02395.02015-2.0559-.32807-4.5155-.77382-2.4596-.44574-4.5738-.8236-4.6982-.83969-.17717-.02292-.88173.49072-3.2545 2.3726-4.2505 3.3711-3.9928 3.184-4.0528 2.9433zm3.9817-4.8305c1.2799-1.0144 2.3908-1.8443 2.4687-1.8443.14186 0 5.7158.99601 6.0517 1.0814.09809.02492.17836.008.17836-.03769 0-.04566-.59623-1.1435-1.325-2.4396-.72873-1.2961-1.325-2.4055-1.325-2.4654 0-.05985.7166-1.1473 1.5924-2.4165.87584-1.2692 1.5753-2.3208 1.5543-2.3368-.02099-.01598-1.3911.12007-3.0448.30233-1.6536.18227-3.0984.33192-3.2105.33257-.13818.000808-.89255-.64734-2.3418-2.012-1.1759-1.1073-2.1675-1.9853-2.2036-1.9512-.03611.0341-.32774 1.2394-.6481 2.6784s-.58999 2.6212-.59919 2.6272-1.323.49604-2.9195 1.089c-1.5966.59294-2.9139 1.1091-2.9274 1.1471-.013505.03799 1.2463.65302 2.7996 1.3667l2.8242 1.2977.32639 2.6483c.17952 1.4566.32915 2.6772.33252 2.7126.0035.03539.0249.06434.04784.06434s1.0889-.82994 2.3687-1.8443z" fill="#c6189d" stroke="url(#linearGradient48)" stroke-width=".065452"/>
   <path id="path49" d="m20.241 41.683c-.06707-.06393-8.4075-10.621-8.5684-10.846l-.12182-.17006.74289-.39015c.40859-.21458.76074-.38295.78255-.37414.03086.01246 7.8625 10.761 8.0782 11.087.03899.05897-.06006.15936-.40495.41034-.31098.2263-.47316.31652-.50848.28285z" fill="#c6189d" stroke="url(#linearGradient49)" stroke-width=".038496"/>
   <path id="path51" d="m-19.664 44.717c-2.6793-2.9724-4.8499-5.4315-4.8235-5.4646.10105-.12714 1.2677-1.1115 1.2938-1.0916.02919.02224 9.3493 10.759 9.5573 11.01.11804.14246.10168.16162-.46299.542-.32195.21688-.6096.39747-.63922.40132-.02963.0038-2.246-2.425-4.9253-5.3974z" fill="#c6189d" stroke="url(#linearGradient51)" stroke-width=".049199"/>
  </g>
 </g>
 <g id="edit_variant__skrin__zavrena" transform="translate(-68.28 22.377)">
  <g id="g32" transform="translate(115.18,-17.283)" stroke="url(#linearGradient20)">
   <rect id="edit_color__skrin" x="118.02" y="59.57" width="55.087" height="94.905" ry="2.3497" fill="url(#linearGradient4)"/>
   <path id="path1-7" d="m144.34 59.782-.63509 94.946" fill="#5c2e2e" stroke-linecap="round"/>
   <ellipse id="path2-2" cx="149.37" cy="109.37" rx="1.1114" ry="2.3816" fill="#5c2e2e" stroke-linecap="round"/>
   <ellipse id="ellipse2" cx="138.44" cy="109.22" rx="1.1114" ry="2.3816" fill="#5c2e2e" stroke-linecap="round"/>
  </g>
 </g>
 <path id="path211" d="m73.821 140.67c-6.9058-1.0844-12.225-5.3648-10.437-7.9231 4.5973-5.5196 11.18-10.412 11.577-7.5797 0 0-1.6537 2.4566-3.1536 4.8523l-3.7188 3.8618c2.7893 3.1967 4.577 2.0532 6.853 3.0256 1.7474.059 4.8769-1.8313 3.4431 2.8367-2.2057 1.5445-2.0216-.48392-4.564.92651z" fill="#494949" stroke="url(#linearGradient227)" stroke-width="1.1641"/>
 <g id="edit_variant__skrin__otevrena" transform="translate(-146.25 -.53894)" display="none" fill="#2f2f2c" stroke-linecap="round">
  <path id="path56" transform="translate(146.25 .53894)" d="m190.82 64.859c-5.3315-.08861-14.011-.28786-19.805-.09919-3.5285.11491-5.8402-.62884-6.2785 3.4538-.0784.72972.002 1.4595.004 2.1765.0816 48.846.47645 56.647.55796 86.956.0413 2.2305 2.4638 2.9328 5.9258 2.9679 5.7555.0583 14.295.14279 19.544-.033z" fill="#734702" stroke="#000" stroke-width="1.1593"/>
  <g id="g52" transform="translate(60.722,-19.873)">
   <ellipse id="path57" transform="translate(85.531,20.412)" cx="187.48" cy="113.85" rx="1.2447" ry="2.4203" fill="url(#linearGradient58)" stroke="#000" stroke-width="1.1777"/>
   <g id="g55">
    <path id="path1" d="m275.82 180.69.36801-94.947 28.889-.36801.18401 95.315z" fill="#aa915a" stroke="url(#linearGradient5)" stroke-width="1.18"/>
    <path id="path18" d="m305.63 85.379 16.941-7.1686.0354 94.93-17.16 7.5535" fill="#734702" stroke="url(#linearGradient18)" stroke-width="1.18"/>
    <g id="g51" transform="matrix(.87009 0 0 1.049 -41.154 1.067)" stroke="#000">
     <path id="path19" d="m364.51 163.76 29.441.55201c10.177-41.327-18.189-121.64-29.441-.55201z" fill="#fffbf4" stroke-width="1.18"/>
     <ellipse id="path23" cx="387.19" cy="126.75" rx="4.0297" ry="6.8742" fill="#fffbf4" stroke-width="1.5201"/>
     <ellipse id="path24" cx="385.89" cy="128.2" rx=".9151" ry="2.4216" fill="#130c00" stroke-width=".87511"/>
     <ellipse id="ellipse24" cx="377" cy="124.85" rx="4.0297" ry="6.8742" fill="#fffbf4" stroke-width="1.5201"/>
     <ellipse id="ellipse25" cx="375.7" cy="126.31" rx=".9151" ry="2.4216" fill="#130c00" stroke-width=".87511"/>
     <path id="path29" d="m374.61 115.93c4.4728-1.3966 7.3863.60403 7.2429 1.7769" fill="#fff" stroke-width="1.18"/>
     <path id="path30" d="m384.31 117.23c4.7536-.87667 8.0504 1.095 7.2429 1.7769" fill="#fff" stroke-width="1.18"/>
     <ellipse id="path50" cx="380.26" cy="137.85" rx="1.242" ry="2.7601" fill="#000" stroke-width="1.18"/>
    </g>
    <path id="path55" d="m276.25 94.566 28.889-.46002-.184 1.6561-28.521.27601z" fill="#4b4b4b" stroke="#000" stroke-width=".58"/>
   </g>
  </g>
 </g>
</svg>
