<?xml version="1.0" encoding="UTF-8" standalone="no"?>
<!-- Created with Inkscape (http://www.inkscape.org/) -->

<svg
   id="svg1"
   width="297mm"
   height="210mm"
   version="1.1"
   viewBox="0 0 297 210"
   sodipodi:docname="Mravenec v obĂ˝vĂˇku.svg"
   inkscape:version="1.4.2 (f4327f4, 2025-05-13)"
   xmlns:inkscape="http://www.inkscape.org/namespaces/inkscape"
   xmlns:sodipodi="http://sodipodi.sourceforge.net/DTD/sodipodi-0.dtd"
   xmlns:xlink="http://www.w3.org/1999/xlink"
   xmlns="http://www.w3.org/2000/svg"
   xmlns:svg="http://www.w3.org/2000/svg">
  <sodipodi:namedview
     id="namedview1"
     pagecolor="#ffffff"
     bordercolor="#000000"
     borderopacity="0.25"
     inkscape:showpageshadow="2"
     inkscape:pageopacity="0.0"
     inkscape:pagecheckerboard="0"
     inkscape:deskcolor="#d1d1d1"
     inkscape:document-units="mm"
     inkscape:zoom="0.98651786"
     inkscape:cx="620.87067"
     inkscape:cy="465.77971"
     inkscape:window-width="1920"
     inkscape:window-height="1001"
     inkscape:window-x="-9"
     inkscape:window-y="-9"
     inkscape:window-maximized="1"
     inkscape:current-layer="edit_variant__3__voda" />
  <defs
     id="defs1">
    <pattern
       id="pattern24"
       patternTransform="scale(.2)"
       preserveAspectRatio="xMidYMid"
       xlink:href="#InvertedCircle" />
    <pattern
       id="InvertedCircle"
       width="100"
       height="100"
       fill="#67ad44"
       patternTransform="scale(.2)"
       patternUnits="userSpaceOnUse"
       preserveAspectRatio="xMidYMid">
      <path
         id="rect2"
         d="m100 0-24.912 24.912c-.54715-.52598-1.1118-1.0237-1.6836-1.5078l-.52539-.52539-.04883.04883c-6.4858-5.2621-14.403-7.9082-22.33-7.9082-9.0915 1e-6-18.182 3.4597-25.102 10.379-12.952 12.952-13.763 33.503-2.4688 47.43l-.05078.05078.52539.52539c.48412.57197.98171 1.1363 1.5078 1.6836l-24.912 24.912h100zm-24.957 29.199a32.5 32.5 0 016.8496 29.713 32.5 32.5 0 01-22.98 22.98 32.5 32.5 0 01-29.629-6.9336z" />
    </pattern>
    <pattern
       id="pattern23"
       patternTransform="translate(582.57 112.16)"
       preserveAspectRatio="xMidYMid"
       xlink:href="#pattern15-8" />
    <pattern
       id="pattern15-8"
       width="20"
       height="20"
       fill="#6a1947"
       patternTransform="translate(445,105)"
       patternUnits="userSpaceOnUse"
       preserveAspectRatio="xMidYMid">
      <path
         id="path11-3"
         d="m0 0v10h10c-5 0-10-5-10-10zm10 10v-10h10c-5 0-10 5-10 10zm0 10v-10h-10c5 0 10 5 10 10zm10-10v10h-10c5 0 10-5 10-10z"
         stop-color="#000000"
         stroke-linecap="square"
         stroke-width="4.8561"
         style="paint-order:stroke markers fill" />
    </pattern>
    <linearGradient
       id="swatch20">
      <stop
         id="stop20"
         offset="0" />
    </linearGradient>
    <pattern
       id="pattern3"
       patternTransform="scale(.4)"
       preserveAspectRatio="xMidYMid"
       xlink:href="#DecorativePaper" />
    <pattern
       id="DecorativePaper"
       width="100"
       height="100"
       fill="#112149"
       patternTransform="scale(.5)"
       patternUnits="userSpaceOnUse"
       preserveAspectRatio="xMidYMid">
      <path
         id="path163941"
         d="m95.498 0c.2337.65569 1.3317 1.0042 1.7344 1.6504l.002.0019c.0425.01128.0803.0198.12305.03125-.0136.05056-.0274.09646-.041.14648.33338.76643.14131 1.9755.89062 2.2793.60752.24632 1.1841-.37128 1.7929-.7832v-3.3261zm1.8184 1.8301c-.0263-.06034-.0485-.12362-.082-.17773-5.395-1.432-9.1267-1.5572-12.402.33398-4.3301 2.5-5.9293 5.732-7.0273 9.8301 4.0981 1.0981 9.0632 1.6973 12.527-.30273 3.432-1.9815 5.5221-4.3266 6.9844-9.6836zm2.6836 1.8359c-3.5585 3.6901-5.3613 6.7383-5.3613 10.334 0 5 2 8 5 11 .12095-.12094.24058-.25282.36133-.37695zm0 71.002c-2.7718 2.9137-5.3613 6.6174-5.3613 10.332 0 3.957.98357 6.9371 4.877 10.873.0495.0325.0999.061.14843.0996.11912-.11928.22039-.23174.33594-.34961zm-.33594 21.305c-.009.009-.0162.0182-.0254.0273-.043-.043-.0807-.0842-.12304-.12696-.22218-.1458-.45293-.23001-.71094-.16601-.84738.2102-.75052 1.6287-1.3125 2.2969-.56199.66813-1.9771.81665-2.0391 1.6875-.008.11138.0106.21244.0449.3086h4.502v-3.7246c-.11085-.10935-.22292-.21282-.33594-.30273zm-16.164-10.443c-1.7047-.0074-3.4024.3067-5.1953.78711 1.0981 4.0981 3.0632 8.6973 6.5273 10.697 3.4641 2 6.5613 2.634 12.025 1.1699-1.4641-5.4641-3.2239-8.7911-6.5254-10.697-2.4357-1.4062-4.6403-1.9475-6.832-1.957zm-82.861-11.529c-.21406.21406-.4257.44409-.63867.66797v20.955c3.747-3.8223 5.6387-6.9334 5.6387-10.623 0-5-2-8-5-11zm15.332 12.174c-2.1863-.03678-4.2933.3125-6.0254 1.3125-3.4547 1.9946-5.5501 4.3545-7.0137 9.7871.1821.0273.35088.0716.48633.16601 5.1884 1.336 8.8302 1.4201 12.027-.42578 4.3301-2.5 5.9293-5.732 7.0273-9.8301-2.049-.54904-4.3157-.97299-6.502-1.0098zm-12.553 11.266c-.16926-.0436-.32542-.0768-.49805-.12304.004-.0148.0077-.0282.01172-.043-.58814-.0882-1.352.0688-1.8926-.15039-.38015-.15409-.70906-.52209-1.0391-.84763v3.7246h3.0176c.19555-.80689 1.0336-1.6604.61133-2.3379-.05772-.0926-.12909-.16559-.21094-.22266zm-3.418-97.439v3.3262c.20063-.13574.40563-.24798.61523-.30078.0085-.0085.01493-.01688.02344-.02539.0064.0064.01121.01315.01758.01953.84592-.18254 2.0493.4948 2.6035-.16406.56198-.66813-.34905-1.76-.28711-2.6309.005304-.074565.02661-.14905.044922-.22461zm.65625 3.0195c-.01189.0026-.02537.000993-.03711.0039-.0014.00034-.0025.0016-.0039.002-.21825.21848-.40896.42667-.61524.64058v20.957c2.8744-2.9549 5.6387-6.7843 5.6387-10.623 0-3.9936-.99838-6.99-4.9824-10.98zm8.0566-3.0039c-1.5277-.0024-3.2439.25174-5.293.80078 1.4641 5.4641 3.2239 8.7912 6.5254 10.697 4.3301 2.5 7.9293 2.268 12.027 1.1699-1.0981-4.0981-3.0632-8.6973-6.5273-10.697-2.1651-1.25-4.1863-1.9666-6.7324-1.9707zm44.547 52.84c-.56199.66813-1.793-.04298-2.6403.16722-.84737.2102-1.6033 1.4142-2.4124 1.0862s-.51318-1.7185-.97494-2.4594c-.46176-.74094-1.8404-1.0878-1.7785-1.9587.06194-.87086 1.4758-1.0191 2.0378-1.6872.56199-.66813.46586-2.0865 1.3132-2.2967.84737-.2102 1.4253 1.0886 2.2344 1.4167.80909.32802 2.1283-.2017 2.5901.53924.46176.74094-.59493 1.6919-.65687 2.5628-.06194.87086.84952 1.9618.28753 2.63zm6.6866 8.6576c4.3301 2.5 7.9282 2.2679 12.026 1.1699-1.0981-4.0981-3.0622-8.6962-6.5263-10.696-3.4641-2-6.5622-2.634-12.026-1.1699 1.4641 5.4641 3.2248 8.79 6.5263 10.696zm-19.615-24.026c-4.3301-2.5-7.9282-2.2679-12.026-1.1699 1.0981 4.0981 3.0622 8.6962 6.5263 10.696 3.4641 2 6.5622 2.634 12.026 1.1699-1.4641-5.4641-3.2248-8.79-6.5263-10.696zm25.115 9.5263c4.3301-2.5 5.9282-5.7321 7.0263-9.8301-4.0981-1.0981-9.0622-1.6962-12.526.30384-3.4641 2-5.5622 4.366-7.0263 9.8301 5.4641 1.4641 9.2248 1.6023 12.526-.30384zm-30.615 4.9737c-4.3301 2.5-5.9282 5.7321-7.0263 9.8301 4.0981 1.0981 9.0622 1.6962 12.526-.30384 3.4641-2 5.5622-4.366 7.0263-9.8301-5.4641-1.4641-9.2248-1.6023-12.526.30384zm20.807-16.987c0-5-2-8-5-11-3 3-6 7-6 11 0 4 1 7 5 11 4-4 6-7.1878 6-11zm-11 29c0 5 2 8 5 11 3-3 6-7 6-11 0-4-1-7-5-11-4 4-6 7.1878-6 11zm6.3611 32a3 3 0 003 3 3 3 0 003-3 3 3 0 00-3-3 3 3 0 00-3 3zm42-42a3 3 0 003 3 3 3 0 003-3 3 3 0 00-3-3 3 3 0 00-3 3zm-7 7a3 3 0 003 3 3 3 0 003-3 3 3 0 00-3-3 3 3 0 00-3 3zm-7 7a3 3 0 003 3 3 3 0 003-3 3 3 0 00-3-3 3 3 0 00-3 3zm-7 7a3 3 0 003 3 3 3 0 003-3 3 3 0 00-3-3 3 3 0 00-3 3zm-7 7a3 3 0 003 3 3 3 0 003-3 3 3 0 00-3-3 3 3 0 00-3 3zm-7 7a3 3 0 003 3 3 3 0 003-3 3 3 0 00-3-3 3 3 0 00-3 3zm-57-43a3 3 0 003 3 3 3 0 003-3 3 3 0 00-3-3 3 3 0 00-3 3zm42-42a3 3 0 003 3 3 3 0 003-3 3 3 0 00-3-3 3 3 0 00-3 3zm-7 7a3 3 0 003 3 3 3 0 003-3 3 3 0 00-3-3 3 3 0 00-3 3zm-7 7a3 3 0 003 3 3 3 0 003-3 3 3 0 00-3-3 3 3 0 00-3 3zm-7 7a3 3 0 003 3 3 3 0 003-3 3 3 0 00-3-3 3 3 0 00-3 3zm-7 7a3 3 0 003 3 3 3 0 003-3 3 3 0 00-3-3 3 3 0 00-3 3zm-7 7a3 3 0 003 3 3 3 0 003-3 3 3 0 00-3-3 3 3 0 00-3 3zm91 7a3 3 0 01-3 3 3 3 0 01-3-3 3 3 0 013-3 3 3 0 013 3zm-42-42a3 3 0 01-3 3 3 3 0 01-3-3 3 3 0 013-3 3 3 0 013 3zm7 7a3 3 0 01-3 3 3 3 0 01-3-3 3 3 0 013-3 3 3 0 013 3zm7 7a3 3 0 01-3 3 3 3 0 01-3-3 3 3 0 013-3 3 3 0 013 3zm7 7a3 3 0 01-3 3 3 3 0 01-3-3 3 3 0 013-3 3 3 0 013 3zm7 7a3 3 0 01-3 3 3 3 0 01-3-3 3 3 0 013-3 3 3 0 013 3zm7 7a3 3 0 01-3 3 3 3 0 01-3-3 3 3 0 013-3 3 3 0 013 3zm-43 57a3 3 0 01-3 3 3 3 0 01-3-3 3 3 0 013-3 3 3 0 013 3zm-42-42a3 3 0 01-3 3 3 3 0 01-3-3 3 3 0 013-3 3 3 0 013 3zm7 7a3 3 0 01-3 3 3 3 0 01-3-3 3 3 0 013-3 3 3 0 013 3zm7 7a3 3 0 01-3 3 3 3 0 01-3-3 3 3 0 013-3 3 3 0 013 3zm7 7a3 3 0 01-3 3 3 3 0 01-3-3 3 3 0 013-3 3 3 0 013 3zm7 7a3 3 0 01-3 3 3 3 0 01-3-3 3 3 0 013-3 3 3 0 013 3zm7 7a3 3 0 01-3 3 3 3 0 01-3-3 3 3 0 013-3 3 3 0 013 3z"
         fill-opacity=".99482" />
    </pattern>
    <radialGradient
       id="radialGradient2"
       cx="543.13"
       cy="411.62"
       r="427.92"
       gradientTransform="matrix(0.26936,0,0,0.18729,-1.3063,32.887)"
       gradientUnits="userSpaceOnUse">
      <stop
         id="stop1"
         stop-color="#fefea0"
         offset="0" />
      <stop
         id="stop2"
         stop-color="#c0a260"
         offset="1" />
    </radialGradient>
    <linearGradient
       id="linearGradient3"
       x1="34.58"
       x2="258.65"
       y1="170.44"
       y2="170.44"
       gradientTransform="matrix(1.0002,0,0,1.0293,-3.3979,-10.944)"
       gradientUnits="userSpaceOnUse"
       xlink:href="#swatch20" />
    <linearGradient
       id="swatch6">
      <stop
         id="stop6"
         stop-color="#734702"
         offset="0" />
    </linearGradient>
    <linearGradient
       id="linearGradient4"
       x1="117.69"
       x2="190.84"
       y1="98.404"
       y2="98.404"
       gradientTransform="matrix(0.753,0,0,0.753,29.405,32.925)"
       gradientUnits="userSpaceOnUse"
       xlink:href="#swatch6" />
    <linearGradient
       id="linearGradient3-4"
       x1="27.138"
       x2="79.695"
       y1="44.561"
       y2="44.561"
       gradientTransform="matrix(1.0937468,0,0,0.70692327,-223.29438,62.809556)"
       gradientUnits="userSpaceOnUse"
       xlink:href="#swatch6" />
    <linearGradient
       id="linearGradient2"
       x1="27.27"
       x2="79.562"
       y1="44.561"
       y2="44.561"
       gradientTransform="matrix(1.0937468,0,0,0.70692327,-223.29438,62.809556)"
       gradientUnits="userSpaceOnUse"
       xlink:href="#swatch20" />
    <linearGradient
       id="linearGradient4-9"
       x1="61.429"
       x2="74.291"
       y1="74.783"
       y2="74.783"
       gradientUnits="userSpaceOnUse"
       xlink:href="#swatch6" />
    <linearGradient
       id="linearGradient8"
       x1="49.691"
       x2="88.77"
       y1="64.135"
       y2="64.135"
       gradientUnits="userSpaceOnUse"
       xlink:href="#swatch20" />
    <linearGradient
       id="linearGradient17"
       x1="56.284"
       x2="75.716"
       y1="64.385"
       y2="64.385"
       gradientUnits="userSpaceOnUse"
       xlink:href="#swatch20" />
    <radialGradient
       id="radialGradient41"
       cx="118.65"
       cy="180.91"
       r="7.4979"
       gradientTransform="matrix(0.99994,0.010639,-0.0093739,0.88103,-49.785,72.147)"
       gradientUnits="userSpaceOnUse">
      <stop
         id="stop40"
         stop-color="#dfcc49"
         offset="0" />
      <stop
         id="stop42"
         stop-color="#e19912"
         offset="1" />
      <stop
         id="stop41"
         stop-color="#eea900"
         stop-opacity="0"
         offset="1" />
    </radialGradient>
    <linearGradient
       id="linearGradient1"
       x1="56.2"
       x2="85.423"
       y1="260.91"
       y2="260.91"
       gradientUnits="userSpaceOnUse"
       xlink:href="#swatch6" />
    <linearGradient
       id="linearGradient12"
       gradientUnits="userSpaceOnUse"
       xlink:href="#swatch20" />
    <linearGradient
       id="linearGradient20"
       x1="117.56"
       x2="173.58"
       y1="107.15"
       y2="107.15"
       gradientUnits="userSpaceOnUse"
       xlink:href="#swatch20" />
    <linearGradient
       id="linearGradient159"
       x1="126.83"
       x2="151.08"
       y1="189.05"
       y2="189.05"
       gradientTransform="matrix(1.0383,-0.46803,0.65472,0.74224,-212.56,86.57)"
       gradientUnits="userSpaceOnUse"
       xlink:href="#swatch20" />
    <linearGradient
       id="linearGradient163"
       x1="129.91"
       x2="158.04"
       y1="160.03"
       y2="160.03"
       gradientTransform="matrix(1.2406,0,0,1.2406,-123.38,-69.274)"
       gradientUnits="userSpaceOnUse"
       xlink:href="#swatch20" />
    <linearGradient
       id="linearGradient162"
       x1="144.03"
       x2="155.36"
       y1="141.79"
       y2="141.79"
       gradientTransform="matrix(1.2406,0,0,1.2406,-123.38,-68.709)"
       gradientUnits="userSpaceOnUse"
       xlink:href="#swatch20" />
    <linearGradient
       id="linearGradient161"
       x1="129.61"
       x2="135.98"
       y1="145.87"
       y2="145.87"
       gradientTransform="matrix(1.2406,0,0,1.2406,-122.53,-68.286)"
       gradientUnits="userSpaceOnUse"
       xlink:href="#swatch20" />
    <linearGradient
       id="linearGradient160"
       x1="142.73"
       x2="150.29"
       y1="178.27"
       y2="178.27"
       gradientTransform="matrix(1.1397,-0.026067,0.040368,1.0989,-115.9,-40.852)"
       gradientUnits="userSpaceOnUse"
       xlink:href="#swatch20" />
    <linearGradient
       id="linearGradient183"
       x1="134.98"
       x2="143.83"
       y1="200.73"
       y2="200.73"
       gradientTransform="matrix(0.7041,-0.81885,0.81885,0.7041,-188.27,143.44)"
       gradientUnits="userSpaceOnUse"
       xlink:href="#swatch20" />
    <linearGradient
       id="linearGradient149"
       x1="125.46"
       x2="130.44"
       y1="63.081"
       y2="63.081"
       gradientTransform="matrix(0.88477,0,0,0.88477,-64.336,71.683)"
       gradientUnits="userSpaceOnUse"
       xlink:href="#swatch20" />
    <linearGradient
       id="linearGradient150"
       x1="137.39"
       x2="141.59"
       y1="61.999"
       y2="61.999"
       gradientTransform="matrix(0.88477,0,0,0.88477,-74.603,72.672)"
       gradientUnits="userSpaceOnUse"
       xlink:href="#swatch20" />
    <linearGradient
       id="linearGradient147"
       x1="125.46"
       x2="130.44"
       y1="63.081"
       y2="63.081"
       gradientTransform="matrix(-0.67941,0.46783,0.46783,0.67941,118.14,21.339)"
       gradientUnits="userSpaceOnUse"
       xlink:href="#swatch20" />
    <linearGradient
       id="linearGradient148"
       x1="137.39"
       x2="141.59"
       y1="61.999"
       y2="61.999"
       gradientTransform="matrix(-0.67941,0.46783,0.46783,0.67941,126.55,16.67)"
       gradientUnits="userSpaceOnUse"
       xlink:href="#swatch20" />
    <linearGradient
       id="linearGradient38"
       x1="134.98"
       x2="143.83"
       y1="200.73"
       y2="200.73"
       gradientTransform="matrix(0.7041,-0.81885,0.81885,0.7041,-191.45,147.52)"
       gradientUnits="userSpaceOnUse"
       xlink:href="#swatch20" />
    <linearGradient
       id="linearGradient28"
       x1="136.37"
       x2="142.93"
       y1="182.1"
       y2="182.1"
       gradientTransform="matrix(-2.1968,-0.092335,-0.056694,1.3488,384.88,-77.19)"
       gradientUnits="userSpaceOnUse"
       xlink:href="#swatch20" />
    <linearGradient
       id="linearGradient119"
       x1="139.75"
       x2="145.12"
       y1="160.23"
       y2="160.23"
       gradientTransform="matrix(0.90597,0,0,0.90597,-89.644,-30.635)"
       gradientUnits="userSpaceOnUse"
       xlink:href="#swatch20" />
    <linearGradient
       id="linearGradient118"
       x1="139.95"
       x2="144.92"
       y1="162.12"
       y2="162.12"
       gradientTransform="matrix(0.66602,0,0,0.67312,-99.519,12.528)"
       gradientUnits="userSpaceOnUse"
       xlink:href="#swatch20" />
    <linearGradient
       id="linearGradient117"
       x1="149.99"
       x2="155.76"
       y1="156.9"
       y2="156.9"
       gradientTransform="matrix(0.87042,0.062807,-0.065295,0.9049,-74.776,-39.875)"
       gradientUnits="userSpaceOnUse"
       xlink:href="#swatch20" />
    <linearGradient
       id="linearGradient116"
       x1="160.63"
       x2="165.99"
       y1="151.48"
       y2="151.48"
       gradientTransform="matrix(0.58246,0,0,0.64306,-109.61,22.736)"
       gradientUnits="userSpaceOnUse"
       xlink:href="#swatch20" />
    <linearGradient
       id="linearGradient31"
       x1="43.092"
       x2="49.558"
       y1="120.73"
       y2="120.73"
       gradientUnits="userSpaceOnUse"
       xlink:href="#swatch20" />
    <linearGradient
       id="linearGradient37"
       x1="41.889"
       x2="75.621"
       y1="220.48"
       y2="220.48"
       gradientTransform="translate(155.33,-6.4662)"
       gradientUnits="userSpaceOnUse">
      <stop
         id="stop36"
         stop-color="#891605"
         offset="0" />
    </linearGradient>
    <linearGradient
       id="linearGradient227"
       x1="136.37"
       x2="142.93"
       y1="182.1"
       y2="182.1"
       gradientTransform="matrix(-2.049,-0.79733,-0.48956,1.2581,592.67,18.883)"
       gradientUnits="userSpaceOnUse"
       xlink:href="#swatch20" />
    <linearGradient
       id="linearGradient56"
       x1="76.076"
       x2="75.672"
       y1="254.52"
       y2="231.38"
       gradientUnits="userSpaceOnUse"
       xlink:href="#linearGradient77" />
    <linearGradient
       id="linearGradient77">
      <stop
         id="stop76"
         stop-color="#fbdb62"
         offset=".33242" />
      <stop
         id="stop77"
         stop-color="#e43899"
         stop-opacity=".93868"
         offset="1" />
    </linearGradient>
    <linearGradient
       id="linearGradient57"
       x1="64.658"
       x2="87.023"
       y1="242.92"
       y2="242.92"
       gradientUnits="userSpaceOnUse"
       xlink:href="#swatch20" />
    <linearGradient
       id="linearGradient43"
       x1="39.817"
       x2="65.581"
       y1="125.22"
       y2="125.22"
       gradientUnits="userSpaceOnUse"
       xlink:href="#swatch20" />
    <linearGradient
       id="linearGradient46"
       x1="39.817"
       x2="65.581"
       y1="125.22"
       y2="125.22"
       gradientTransform="translate(0.24849,-0.34789)"
       gradientUnits="userSpaceOnUse"
       xlink:href="#swatch20" />
    <linearGradient
       id="linearGradient44"
       x1="39.817"
       x2="65.581"
       y1="125.22"
       y2="125.22"
       gradientTransform="matrix(1.1584,0,0,1.1535,-2.6266,-21.915)"
       gradientUnits="userSpaceOnUse"
       xlink:href="#swatch20" />
    <linearGradient
       id="linearGradient45"
       x1="39.817"
       x2="65.581"
       y1="125.22"
       y2="125.22"
       gradientTransform="matrix(1.0523,-1.6858e-8,1.06e-8,1.0846,0.42541,-11.935)"
       gradientUnits="userSpaceOnUse"
       xlink:href="#swatch20" />
    <linearGradient
       id="linearGradient47"
       x1="39.817"
       x2="65.581"
       y1="125.22"
       y2="125.22"
       gradientTransform="matrix(0.11036,0,0,0.085708,-20.686,38.561)"
       gradientUnits="userSpaceOnUse"
       xlink:href="#swatch20" />
    <linearGradient
       id="linearGradient48"
       x1="39.817"
       x2="65.581"
       y1="125.22"
       y2="125.22"
       gradientTransform="matrix(0.10192,0,0,0.085782,-2.6494,34.31)"
       gradientUnits="userSpaceOnUse"
       xlink:href="#swatch20" />
    <linearGradient
       id="linearGradient49"
       x1="39.817"
       x2="65.581"
       y1="125.22"
       y2="125.22"
       gradientTransform="matrix(0.048389,-0.018368,0.0314,0.050581,11.286,30.481)"
       gradientUnits="userSpaceOnUse"
       xlink:href="#swatch20" />
    <linearGradient
       id="linearGradient51"
       x1="39.817"
       x2="65.581"
       y1="125.22"
       y2="125.22"
       gradientTransform="matrix(0.069202,-0.008991,0.016799,0.069202,-24.906,38.3)"
       gradientUnits="userSpaceOnUse"
       xlink:href="#swatch20" />
    <linearGradient
       inkscape:collect="always"
       xlink:href="#swatch20"
       id="linearGradient5"
       gradientUnits="userSpaceOnUse"
       x1="117.56"
       y1="107.15"
       x2="173.58"
       y2="107.15" />
    <linearGradient
       inkscape:collect="always"
       xlink:href="#swatch20"
       id="linearGradient6"
       gradientUnits="userSpaceOnUse"
       x1="117.56"
       y1="107.15"
       x2="173.58"
       y2="107.15" />
    <linearGradient
       inkscape:collect="always"
       xlink:href="#swatch20"
       id="linearGradient7"
       gradientUnits="userSpaceOnUse"
       x1="117.56"
       y1="107.15"
       x2="173.58"
       y2="107.15" />
    <linearGradient
       inkscape:collect="always"
       xlink:href="#swatch20"
       id="linearGradient9"
       gradientUnits="userSpaceOnUse"
       x1="117.56"
       y1="107.15"
       x2="173.58"
       y2="107.15" />
    <linearGradient
       inkscape:collect="always"
       xlink:href="#swatch6"
       id="linearGradient10"
       gradientUnits="userSpaceOnUse"
       x1="56.2"
       y1="260.91"
       x2="85.423"
       y2="260.91" />
    <linearGradient
       inkscape:collect="always"
       xlink:href="#swatch6"
       id="linearGradient11"
       gradientUnits="userSpaceOnUse"
       x1="56.2"
       y1="260.91"
       x2="85.423"
       y2="260.91" />
    <linearGradient
       inkscape:collect="always"
       xlink:href="#swatch6"
       id="linearGradient13"
       gradientUnits="userSpaceOnUse"
       x1="56.2"
       y1="260.91"
       x2="85.423"
       y2="260.91" />
    <linearGradient
       inkscape:collect="always"
       xlink:href="#swatch6"
       id="linearGradient14"
       gradientUnits="userSpaceOnUse"
       x1="56.2"
       y1="260.91"
       x2="85.423"
       y2="260.91" />
    <linearGradient
       inkscape:collect="always"
       xlink:href="#swatch6"
       id="linearGradient15"
       gradientUnits="userSpaceOnUse"
       x1="56.2"
       y1="260.91"
       x2="85.423"
       y2="260.91" />
    <linearGradient
       inkscape:collect="always"
       xlink:href="#linearGradient77"
       id="linearGradient16"
       gradientUnits="userSpaceOnUse"
       x1="76.076"
       y1="254.52"
       x2="75.672"
       y2="231.38" />
    <linearGradient
       inkscape:collect="always"
       xlink:href="#swatch20"
       id="linearGradient18"
       gradientUnits="userSpaceOnUse"
       x1="64.658"
       y1="242.92"
       x2="87.023"
       y2="242.92" />
    <linearGradient
       inkscape:collect="always"
       xlink:href="#linearGradient77"
       id="linearGradient19"
       gradientUnits="userSpaceOnUse"
       x1="76.076"
       y1="254.52"
       x2="75.672"
       y2="231.38" />
    <linearGradient
       inkscape:collect="always"
       xlink:href="#swatch20"
       id="linearGradient21"
       gradientUnits="userSpaceOnUse"
       x1="64.658"
       y1="242.92"
       x2="87.023"
       y2="242.92" />
    <linearGradient
       inkscape:collect="always"
       xlink:href="#linearGradient77"
       id="linearGradient22"
       gradientUnits="userSpaceOnUse"
       x1="76.076"
       y1="254.52"
       x2="75.672"
       y2="231.38" />
    <linearGradient
       inkscape:collect="always"
       xlink:href="#swatch20"
       id="linearGradient23"
       gradientUnits="userSpaceOnUse"
       x1="64.658"
       y1="242.92"
       x2="87.023"
       y2="242.92" />
    <linearGradient
       inkscape:collect="always"
       xlink:href="#linearGradient77"
       id="linearGradient24"
       gradientUnits="userSpaceOnUse"
       x1="76.076"
       y1="254.52"
       x2="75.672"
       y2="231.38" />
    <linearGradient
       inkscape:collect="always"
       xlink:href="#swatch20"
       id="linearGradient25"
       gradientUnits="userSpaceOnUse"
       x1="64.658"
       y1="242.92"
       x2="87.023"
       y2="242.92" />
    <linearGradient
       inkscape:collect="always"
       xlink:href="#swatch20"
       id="linearGradient26"
       gradientUnits="userSpaceOnUse"
       x1="39.817"
       y1="125.22"
       x2="65.581"
       y2="125.22" />
    <linearGradient
       inkscape:collect="always"
       xlink:href="#swatch20"
       id="linearGradient27"
       gradientUnits="userSpaceOnUse"
       x1="39.817"
       y1="125.22"
       x2="65.581"
       y2="125.22" />
    <linearGradient
       inkscape:collect="always"
       xlink:href="#swatch20"
       id="linearGradient29"
       gradientUnits="userSpaceOnUse"
       x1="39.817"
       y1="125.22"
       x2="65.581"
       y2="125.22" />
    <linearGradient
       inkscape:collect="always"
       xlink:href="#swatch20"
       id="linearGradient30"
       gradientUnits="userSpaceOnUse"
       x1="39.817"
       y1="125.22"
       x2="65.581"
       y2="125.22" />

<linearGradient
       inkscape:collect="always"
       xlink:href="#lustry_swatch5"
       id="lustry_linearGradient66"
       x1="177.55695"
       y1="252.38835"
       x2="284.8421"
       y2="252.38835"
       gradientUnits="userSpaceOnUse"
       gradientTransform="matrix(0.25676388,0,0,0.25676388,81.272009,-1.4681886)" /><linearGradient
       id="lustry_swatch5"
       inkscape:swatch="solid"><stop
         style="stop-color:#000000;stop-opacity:1;"
         offset="0"
         id="lustry_stop5" /></linearGradient><linearGradient
       inkscape:collect="always"
       xlink:href="#lustry_swatch5"
       id="lustry_linearGradient67"
       x1="215.85577"
       y1="189.20853"
       x2="241.50751"
       y2="189.20853"
       gradientUnits="userSpaceOnUse"
       gradientTransform="matrix(0.25676388,0,0,0.25676388,81.272009,-1.4681886)" /><linearGradient
       inkscape:collect="always"
       xlink:href="#lustry_swatch5"
       id="lustry_linearGradient68"
       x1="228.15517"
       y1="146.79311"
       x2="229.67241"
       y2="146.79311"
       gradientUnits="userSpaceOnUse"
       gradientTransform="matrix(0.25676388,0,0,0.25676388,81.272009,-1.4681886)" /><linearGradient
       inkscape:collect="always"
       xlink:href="#lustry_swatch5"
       id="lustry_linearGradient69"
       x1="224.74138"
       y1="254.49429"
       x2="234.03448"
       y2="254.49429"
       gradientUnits="userSpaceOnUse"
       gradientTransform="matrix(0.25676388,0,0,0.25676388,81.848773,-1.4681886)" />
  </defs>
  <g
     id="layer1-5"
     transform="matrix(-1,0,0,1,290,0)">
    <path
       id="edit_color__4__stena"
       d="m 124.2,189.95 c -29.416,-1.3067 -54.704,-4.7158 -73.386,-9.8932 -4.674,-1.2953 -12.404,-3.8482 -13.768,-4.5473 -0.5649,-0.28942 -0.90995,-0.96406 -1.6289,-3.1848 -6.2992,-19.457 -7.4312,-43.23 -3.0896,-64.882 3.4028,-16.97 9.332,-30.793 18.443,-42.997 3.2779,-4.3909 10.467,-11.699 14.326,-14.564 13.818,-10.257 34.017,-16.807 59.82,-19.397 6.0982,-0.61228 23.86,-0.86301 30.637,-0.43248 27.31,1.7349 51.463,8.3014 67.638,18.388 16.153,10.073 27.967,27.583 33.523,49.686 5.8066,23.099 4.4263,49.198 -3.755,71.006 -0.72663,1.9368 -1.6236,4.122 -1.9932,4.856 -0.64976,1.2902 -0.7697,1.3721 -3.6132,2.4669 -17.48,6.7301 -41.967,11.011 -74.925,13.099 -8.1777,0.518 -39.667,0.77704 -48.228,0.39675 z"
       fill="url(#radialGradient2)"
       stroke-width="1.0435"
       style="fill:url(#radialGradient2)" />
    <g
       id="edit_pattern__5__kytky"
       style="display:none">
      <path
         id="kytkyok"
         transform="translate(0.8691,-0.035366)"
         d="m 31.733,101.02 c 14.365,-60.187 59.928,-65.51 104.17,-73.157 61.493,2.2481 107.98,18.852 120.87,67.59 6.7219,26.639 -1.905,53.277 -5.9638,79.916 l -215.49,1.988 c -4.455,-25.446 -14.905,-50.892 -3.5783,-76.337 z"
         fill="url(#pattern3)"
         stroke-width="1.351" />
    </g>
    <g
       id="edit_pattern__5__tapeta"
       style="display:none">
      <path
         id="kytky"
         d="m 30.514,99.222 c 14.365,-60.187 59.928,-65.51 104.17,-73.157 61.493,2.2481 107.98,18.852 120.87,67.59 6.7219,26.639 -1.905,53.277 -5.9638,79.916 l -215.49,1.988 c -4.455,-25.446 -14.905,-50.892 -3.5783,-76.337 z"
         fill="url(#pattern23)"
         stroke-width="1.351" />
    </g>
    <g
       id="edit_pattern__5__kolecka"
       transform="translate(207.94,9.1446)"
       style="display:none">
      <path
         id="kolecko"
         d="m -175.15,91.072 c 14.365,-60.187 59.928,-65.51 104.17,-73.157 61.493,2.2481 107.98,18.852 120.87,67.59 6.7219,26.639 -1.905,53.277 -5.9638,79.916 l -215.49,1.988 c -4.455,-25.446 -14.905,-50.892 -3.5783,-76.337 z"
         fill="url(#pattern24)"
         stroke-width="1.351" />
    </g>
    <path
       id="fixed__obrys_komory"
       d="M 34.42,177.06 C 20.763,139.82 25.315,81.208 60.109,50.77 c 37.07,-32.706 135.27,-30.44 172.67,1.6191 33.168,28.497 37.395,86.461 19.511,124.67 -47.151,21.049 -169.42,20.725 -217.87,0 z"
       fill="none"
       stroke="#2f1c12"
       stroke-linejoin="round"
       stroke-width="4.543" />
  </g>
  <g
     id="layer11"
     transform="matrix(-1,0,0,1,289.1309,-0.035366)">
    <path
       id="edit_color__2__koberec"
       d="m 133.79,191.48 c -35.273,-1.068 -66.195,-5.9563 -91.262,-14.428 -4.7754,-1.6138 -5.1178,-1.7789 -6.286,-3.0316 -2.4144,-2.589 -3.0211,-4.6425 -2.0429,-6.9147 5.359,-12.448 60.492,-22.341 124.49,-22.338 42.744,0.002 74.724,4.4789 88.267,12.357 2.7536,1.6017 5.3936,4.1706 6.192,6.025 1.4396,3.3439 0.20491,7.0132 -3.7729,11.212 l -2.1984,2.3207 -5.1037,1.6155 c -20.557,6.5069 -43.175,10.522 -69.646,12.364 -12.116,0.8431 -27.23,1.1629 -38.639,0.81745 z"
       fill="#7682ea"
       stroke-width="1.0435"
       inkscape:label="edit_color__2__koberec" />
    <path
       id="fixed__vnejsi_tvar_koberec"
       d="m 36.979,176 c 53.591,20.415 149.23,22.908 210.5,1.4468 57.896,-50.137 -253.74,-38.683 -210.5,-1.4468 z"
       fill="none"
       stroke="url(#linearGradient3)"
       stroke-width="1.3908"
       style="stroke:url(#linearGradient3)" />
  </g>
  <g
     id="layer25"
     transform="matrix(-1,0,0,1,343.56,25.321)">
    <g
       id="g32"
       transform="translate(115.18,-17.283)"
       stroke="url(#linearGradient20)"
       style="stroke:url(#linearGradient20)">
      <rect
         id="edit_color__skrin"
         x="118.02"
         y="59.57"
         width="55.087002"
         height="94.904999"
         ry="2.3497"
         fill="url(#linearGradient4)"
         style="fill:url(#linearGradient4);stroke:url(#linearGradient5)" />
      <path
         id="path1-7"
         d="m 144.34,59.782 -0.63509,94.946"
         fill="#5c2e2e"
         stroke-linecap="round"
         style="stroke:url(#linearGradient6)" />
      <ellipse
         id="path2-2"
         cx="149.37"
         cy="109.37"
         rx="1.1114"
         ry="2.3815999"
         fill="#5c2e2e"
         stroke-linecap="round"
         style="stroke:url(#linearGradient7)" />
      <ellipse
         id="ellipse2"
         cx="138.44"
         cy="109.22"
         rx="1.1114"
         ry="2.3815999"
         fill="#5c2e2e"
         stroke-linecap="round"
         style="stroke:url(#linearGradient9)" />
    </g>
  </g>
  <g
     id="layer28"
     transform="matrix(-1,0,0,1,264.782,31.947)">
    <g
       id="g46"
       transform="translate(41.747,-130.01)"
       fill="url(#linearGradient1)"
       stroke="#000000"
       stroke-linecap="square"
       style="fill:url(#linearGradient1)">
      <path
         id="path46"
         transform="translate(12.996,16.115)"
         d="m 51.499,236.88 0.03764,10.522 -1.3308,0.0497 -0.1988,-9.741 z"
         stroke-width="0.63"
         style="fill:url(#linearGradient10)" />
      <path
         id="path42"
         transform="translate(12.996,16.115)"
         d="m 44.134,243.72 6.7473,-7.5907 20.664,0.28114 -6.0445,7.169 z"
         stroke-width="0.83"
         style="fill:url(#linearGradient11)" />
      <path
         id="path43"
         transform="translate(12.996,16.115)"
         d="m 71.825,236.87 0.0025,10.486 -1.0848,0.0146 -0.12851,-9.249 z"
         stroke-width="0.63"
         style="fill:url(#linearGradient13)" />
      <path
         id="path44"
         transform="translate(12.996,16.115)"
         d="m 66.709,242.2 -0.10293,11.014 -1.2606,0.0146 -0.05823,-9.7058 z"
         stroke-width="0.63"
         style="fill:url(#linearGradient14)" />
      <path
         id="path45"
         transform="translate(12.996,16.115)"
         d="m 45.385,243.73 0.0582,9.6913 -1.5211,0.11998 0.01206,-9.6089 z"
         stroke-width="0.63"
         style="fill:url(#linearGradient15)" />
    </g>
  </g>
  <g
     id="layer1"
     transform="matrix(-1,0,0,1,264.782,31.947)">
    <g
       id="g11"
       transform="matrix(1.1932,0,0,1.1932,21.9,-21.677)">
      <g
         id="layer24"
         transform="matrix(0.83806,0,0,0.83806,-20.497,-26.76)">
        <g
           id="g31"
           transform="translate(-3.8596,-86.56)"
           fill="#891605"
           stroke="#000000"
           stroke-linecap="square">
          <path
             id="path7"
             d="m 36.12,193.05 c -15.142,8.1521 -3.9491,31.288 -2.9769,45.922 l 3.8973,-3.1704"
             stroke-width="0.93" />
          <path
             id="path6"
             d="m 34.733,267.8 17.693,11.63 c 1.5796,1.6011 4.2558,2.1056 8.747,0.79518 l 30.515,-6.0633 c 2.5931,-0.40452 6.0015,0.53043 5.0693,-5.6657 l 0.59638,-21.47 c 1.9648,-1.4951 5.5982,-5.4542 0.2982,-9.0452 l -20.675,-6.6596 c -1.6336,-9.6267 7.6959,-38.632 -13.717,-40.057 l -18.289,-0.49699 c -4.5829,1.4984 -13.309,-0.27314 -12.723,12.524 l 4.5723,32.801 c -4.8463,2.5293 -3.6923,5.6041 -2.8825,8.6476 z"
             stroke-width="0.93" />
          <path
             id="path8"
             d="m 91.489,274.36 c 1.0461,-13.262 -3.8844,-34.731 4.9287,-36.695"
             stroke-width="0.93" />
          <path
             id="path11"
             d="M 61.02,257.94 43.158,249.7262"
             stroke-width="0.93" />
          <path
             id="path12"
             d="M 61.074,258.16 90.84,253.4592"
             stroke-width="0.93" />
          <path
             id="path13"
             d="m 61.226,266.57 29.965,-4.7299"
             stroke-width="0.93" />
          <path
             id="path14"
             d="m 59.905,245.73 11.804,-1.5904 19.283,7.5542"
             stroke-width="0.93" />
          <path
             id="path15"
             d="m 71.411,243.85 c 0.03403,-4.6862 -1.2072,-9.1588 5.6657,-12.325"
             stroke-width="0.93" />
          <ellipse
             id="path16"
             cx="47.532001"
             cy="208.35001"
             rx="1.0934"
             ry="1.1431"
             stroke-width="0.43" />
          <ellipse
             id="ellipse16"
             cx="62.854"
             cy="207.72"
             rx="1.0934"
             ry="1.1431"
             stroke-width="0.43" />
          <ellipse
             id="ellipse17"
             cx="50.167999"
             cy="227.14999"
             rx="1.0934"
             ry="1.1431"
             stroke-width="0.43" />
          <ellipse
             id="ellipse18"
             cx="65.630997"
             cy="225.96001"
             rx="1.0934"
             ry="1.1431"
             stroke-width="0.43" />
        </g>
      </g>
    </g>
  </g>
  <g
     id="edit_variant__6__lampa"
     transform="matrix(-1,0,0,1,264.782,31.947)"
     style="display:none">
    <g
       id="g1"
       transform="translate(49.699,-117.69)"
       stroke="#000000"
       stroke-linecap="square">
      <path
         id="path39"
         d="m 63.217,228.86 7.4502,-0.14057 3.3737,8.153 -13.776,-0.14056 z"
         fill="url(#radialGradient41)"
         stroke-width="0.83"
         style="fill:url(#radialGradient41)" />
      <path
         id="path40"
         d="m 65.195,237.22 c -7e-5,1.7443 -2.1283,4.6269 0,5.2328 l 3.2568,-0.10161 c 2.0682,-0.15472 0.11935,-3.3462 -0.0362,-5.182 z"
         fill="#af6060"
         stroke-width="0.71607" />
    </g>
  </g>
  <g
     id="layer26"
     transform="matrix(-1,0,0,1,269.608,-22.461)">
    <path
       id="path130"
       d="m 63.994,151.53 c 8.0838,10.364 4.4489,23.081 -14.711,17.982 -2.757,-0.0338 -4.3101,-3.9327 -6.2992,-8.4684 0.15306,-0.7737 3.11,-3.6046 10.829,-4.0063 l 0.39325,-1.4733 c 1.8295,0.94768 7.967,-0.95568 9.788,-4.0343 z"
       fill="#494949"
       stroke="url(#linearGradient159)"
       stroke-width="0.70096"
       style="stroke:url(#linearGradient159)" />
    <path
       id="path142"
       d="m 50.744,161.43 c 3.9972,8.8289 6.8877,11.303 13.675,8.9676"
       fill="none"
       stroke="#000000"
       stroke-linecap="round"
       stroke-linejoin="bevel"
       stroke-width="0.46024" />
    <path
       id="path143"
       d="m 52.579,158.29 c 1.1631,5.3192 2.2642,13.606 15.285,5.5153"
       fill="none"
       stroke="#000000"
       stroke-linecap="round"
       stroke-linejoin="bevel"
       stroke-width="0.46024" />
    <path
       id="path144"
       d="m 53.921,154.91 c 0.45753,6.7108 11.554,6.9102 12.693,2.0761"
       fill="none"
       stroke="#000000"
       stroke-linecap="round"
       stroke-linejoin="bevel"
       stroke-width="0.46024" />
    <path
       id="path126"
       d="m 70.802,127.28 c 1.9829,18.833 -23.033,26.915 -31.677,6.145 -3.19,-19.354 25.473,-27.533 31.677,-6.145 z"
       fill="#464646"
       stroke="url(#linearGradient163)"
       stroke-width="0.83793"
       style="stroke:url(#linearGradient163)" />
    <path
       id="path127"
       d="m 55.303,114.17 c -0.89182,-3.7406 2.236,-7.4812 4.4394,-11.222 2.2906,-1.9864 3.879,-4.8027 9.6186,-2.713 0.68654,2.5381 -0.25003,4.6284 -9.002,4.5627 -2.07,2.8531 -3.9664,5.7497 -3.4529,9.2487 z"
       fill="#494949"
       stroke="url(#linearGradient162)"
       stroke-width="0.83793"
       style="stroke:url(#linearGradient162)" />
    <path
       id="path128"
       d="m 44.435,120.88 c -3.6279,-3.154 -4.7982,-6.8346 -3.8228,-10.975 3.7557,-1.6623 6.37,-3.7323 5.5492,-7.029 -3.5951,-0.11465 -6.8906,0.445 -7.8922,6.1658 -0.82846,4.7665 0.0665,9.3303 4.8093,13.441 z"
       fill="#494949"
       stroke="url(#linearGradient161)"
       stroke-width="0.83793"
       style="stroke:url(#linearGradient161)" />
    <path
       id="path129"
       d="m 54.867,145.53 c -5.7294,8.5524 1.3275,11.635 5.6159,11.333 5.4637,-0.24282 5.7479,-9.4756 0.55523,-12.241 -3.739,1.0493 -2.755,0.84665 -6.1711,0.90781 z"
       fill="#494949"
       stroke="url(#linearGradient160)"
       stroke-width="0.75616"
       style="stroke:url(#linearGradient160)" />
    <path
       id="path182"
       d="m 76.487,178.24 c -0.71935,-17.582 -6.1402,-10.425 -9.2395,-13.43 l 0.91593,-2.667 c 4.7316,0.10735 11.315,-0.73543 10.526,11.804 2.8533,-1.4035 5.8274,-1.2641 5.6845,0.68143 0.78857,3.0887 -7.757,5.9572 -7.8868,3.6117 z"
       fill="#494949"
       stroke="url(#linearGradient183)"
       stroke-width="0.65124"
       style="stroke:url(#linearGradient183)" />
    <path
       id="path138"
       d="m 46.782,127.79 c 0.55368,-2.0119 1.8167,-2.5993 3.4738,-2.0667 0.61161,0.52761 -0.74115,0.0317 -1.914,0.75124 -1.1739,0.72025 -1.7504,2.1061 -1.5598,1.3155 z"
       fill="url(#linearGradient149)"
       stroke="url(#linearGradient150)"
       stroke-width="0.35391"
       style="fill:url(#linearGradient149);stroke:url(#linearGradient150)" />
    <path
       id="path139"
       d="m 62.481,123.18 c -1.489,-1.2522 -2.7694,-1.0354 -3.7603,0.24982 -0.19067,0.72852 0.58586,-0.36763 1.867,-0.43524 1.2823,-0.0676 2.4577,0.69176 1.8933,0.1854 z"
       fill="url(#linearGradient147)"
       stroke="url(#linearGradient148)"
       stroke-width="0.32996"
       style="fill:url(#linearGradient147);stroke:url(#linearGradient148)" />
    <path
       id="path38"
       d="m 73.306,182.31 c -0.71935,-17.582 -4.848,-10.723 -7.9474,-13.728 l 1.2141,-2.0706 c 4.7316,0.10735 9.7242,-1.0336 8.9355,11.506 2.8533,-1.4035 5.8274,-1.2641 5.6845,0.68143 0.78857,3.0887 -7.757,5.9572 -7.8868,3.6117 z"
       fill="#494949"
       stroke="url(#linearGradient38)"
       stroke-width="0.65124"
       style="stroke:url(#linearGradient38)" />
    <path
       id="path27"
       d="m 67.949,159.73 c 6.1848,-3.258 6.9538,-9.6604 4.4349,-11.504 -6.1344,-3.7377 -11.333,-4.2557 -9.9,-3.0679 0.01439,0.0119 1.2267,3.2452 3.9285,3.8418 l 4.7673,2.4527 c -1.6065,3.9266 -3.6679,3.4222 -5.5075,5.0779 -1.6345,0.62054 -5.207,-0.1569 -2.3416,3.7972 2.5865,0.74882 1.7567,-1.1113 4.6185,-0.59817 z"
       fill="#494949"
       stroke="url(#linearGradient28)"
       stroke-width="0.864"
       style="stroke:url(#linearGradient28)" />
    <path
       id="path94"
       transform="translate(12.996,16.115)"
       d="m 38.374,117.77 c -1.1676,0.15536 -5.434,-4.6412 -1.4059,-7.0235 1.2884,-0.47509 3.7515,-0.0313 4.6803,3.5132 0.29774,1.0805 -7.69e-4,3.1592 -3.2744,3.5103 z"
       fill="#ffffff"
       stroke="url(#linearGradient119)"
       stroke-width="0.6119"
       style="stroke:url(#linearGradient119)" />
    <ellipse
       id="ellipse94"
       transform="matrix(0.93323,-0.35928,0.35439,0.9351,12.996,16.115)"
       cx="-4.6528001"
       cy="121.65"
       rx="1.655"
       ry="2.2748001"
       stroke="url(#linearGradient118)"
       stroke-width="0.6119"
       style="stroke:url(#linearGradient118)" />
    <path
       id="path95"
       transform="translate(12.996,16.115)"
       d="m 47.926,115.24 c -4.4683,-0.77357 -3.4965,-6.0132 -1.8792,-6.7639 0.86298,-0.64741 2.9971,-0.5927 4.2719,1.8112 0.76263,1.6913 0.43212,3.6346 -0.24344,4.0995 -0.78846,0.7608 -1.3033,0.92786 -2.1493,0.8532 z"
       fill="#ffffff"
       stroke="url(#linearGradient117)"
       stroke-width="0.54088"
       style="stroke:url(#linearGradient117)" />
    <ellipse
       id="ellipse95"
       transform="matrix(0.79748,-0.60334,0.49598,0.86833,12.996,16.115)"
       cx="-14.489"
       cy="120.15"
       rx="1.5632"
       ry="1.9815"
       stroke="url(#linearGradient116)"
       stroke-width="0.53303"
       style="stroke:url(#linearGradient116)" />
    <circle
       id="circle96"
       transform="translate(12.996,16.115)"
       cx="39.791"
       cy="116.78"
       r="0.40856999"
       fill="#ffffff"
       stroke-width="0.30595" />
    <ellipse
       id="ellipse96"
       transform="rotate(4.1272,-217.12,188.39)"
       cx="56.848"
       cy="110.58"
       rx="0.33329999"
       ry="0.32255"
       fill="#ffffff"
       stroke-width="0.24553" />
    <ellipse
       id="ellipse97"
       transform="rotate(4.1272,-217.12,188.39)"
       cx="56.256001"
       cy="110.15"
       rx="0.12902001"
       ry="0.10752"
       fill="#ffffff"
       stroke-width="0.088198" />
    <ellipse
       id="ellipse98"
       transform="translate(12.996,16.115)"
       cx="39.234001"
       cy="116.41"
       rx="0.12902001"
       ry="0.10752"
       fill="#ffffff"
       stroke-width="0.088198" />
    <path
       id="path31"
       transform="translate(12.996,16.115)"
       d="m 43.092,121.57 c 2.0521,1.0944 4.5685,2.6238 6.4662,-1.6868"
       fill="#494949"
       stroke="url(#linearGradient31)"
       stroke-linecap="round"
       stroke-width="0.864"
       style="stroke:url(#linearGradient31)" />
  </g>
  <g
     id="g37"
     transform="matrix(-1,0,0,1,440.49,-86.272)">
    <g
       id="g50"
       transform="translate(159.37,-25.004)"
       fill="url(#linearGradient56)"
       stroke="url(#linearGradient57)"
       style="fill:url(#linearGradient56);stroke:url(#linearGradient57)">
      <path
         id="edit_color__kniha__4"
         d="m 65.901,236.67 -1.2425,13.468 10.337,2.4849 c 0.95313,0.57975 1.9544,0.97896 3.4292,-0.39759 l 6.9081,-5.0693 1.6898,-13.866 -7.4051,5.5663 c -1.1364,1.0861 -2.1211,0.5033 -3.131,0.19879 z"
         style="fill:url(#linearGradient16);stroke:url(#linearGradient18)" />
      <path
         id="kniha_3"
         d="m 75.095,252.52 1.4401,-13.767"
         style="fill:url(#linearGradient19);stroke:url(#linearGradient21)" />
      <path
         id="kniha_2"
         d="m 79.27,239 -1.0934,13.319"
         style="fill:url(#linearGradient22);stroke:url(#linearGradient23)" />
      <path
         id="edit_color__kniha__1"
         d="m 66.745,236.91 0.74548,-1.3916 c 5.9598,0.67322 10.454,1.7046 10.486,3.8268 0.59056,-2.7724 3.7112,-4.8069 7.4548,-6.6596 l 1.3916,1.0437 -8.6476,5.7154 z"
         style="fill:url(#linearGradient24);stroke:url(#linearGradient25)" />
    </g>
    <path
       id="path37"
       d="m 212.26,168.96 c -20.07,1.3206 -6.6555,27.891 -6.185,44.701 l 19.258,7.8719 c 6.1345,2.047 3.9667,6.308 5.0605,9.6993 l 0.14057,27.411 c -3.3028,1.0045 -6.1944,-0.0467 -9.137,-0.84342 l -17.993,-11.667 -0.70285,-22.913 -0.56227,-7.169 c -10.558,-40.918 -0.61644,-44.725 10.121,-47.091 z"
       fill="url(#linearGradient37)"
       stroke="#000000"
       stroke-linecap="square"
       stroke-width="0.83"
       style="fill:url(#linearGradient37)" />
    <path
       id="path9"
       d="m 230.53,258.05 -0.35642,-28.772 c 0.53098,-16.261 -21.638,-1.9644 -6.6596,2.2861 l 0.69578,27.136"
       fill="#891605"
       stroke="#000000"
       stroke-linecap="square"
       stroke-width="0.93" />
    <path
       id="path10"
       d="m 206.78,214.01 21.172,8.5482 c -4.7683,-3.275 -14.7,5.1027 -3.7911,9.2867 l -20.774,-9.244 c -0.29509,-3.5768 -0.9324,-7.3247 3.3935,-8.591 z"
       fill="#891605"
       stroke="#000000"
       stroke-linecap="square"
       stroke-width="0.93" />
  </g>
  <g
     id="layer3"
     transform="matrix(-1,0,0,1,269.19,-21.589)"
     stroke="url(#linearGradient43)"
     stroke-width="0.7"
     style="stroke:url(#linearGradient43)">
    <g
       id="edit_variant__5__bryle"
       fill="none"
       stroke-linecap="round"
       style="stroke:url(#linearGradient29)">
      <path
         id="path35"
         d="m 46.154,131.05 -6.2393,-5.9609"
         stroke="url(#linearGradient43)"
         stroke-width="0.9"
         style="stroke:url(#linearGradient26)" />
      <path
         id="path34"
         d="m 65.083,125.4 -1.9767,-8.8595"
         stroke="url(#linearGradient43)"
         stroke-width="0.7"
         style="stroke:url(#linearGradient27)" />
      <path
         id="path33"
         d="m 54.84,128.27 c 0.39481,-0.83793 0.87608,-1.5177 2.0322,-0.56498"
         stroke="url(#linearGradient46)"
         stroke-width="0.9"
         style="stroke:url(#linearGradient46)" />
      <ellipse
         id="ellipse32"
         transform="matrix(0.97004,-0.24295,0.2931,0.95608,0,0)"
         cx="21.294001"
         cy="139.38"
         rx="4.5443001"
         ry="4.6504998"
         stroke="url(#linearGradient44)"
         stroke-width="1.0097"
         style="stroke:url(#linearGradient44)" />
      <ellipse
         id="path32"
         transform="matrix(0.96671,-0.25586,0.27861,0.9604,0,0)"
         cx="12.517"
         cy="139.53"
         rx="4.6816001"
         ry="4.6675"
         stroke="url(#linearGradient45)"
         stroke-width="1.0482"
         style="stroke:url(#linearGradient45)" />
    </g>
    <g
       id="edit_variant__5__hvezda"
       transform="matrix(0.53954,0,0,0.7375,53.791,92.383)"
       style="display:none;stroke:url(#linearGradient30)">
      <path
         id="path25"
         transform="matrix(1.5701,0,0,1.2194,3.7123,-15.62)"
         d="m 2.8057,60.668 -6.7554,-1.4544 -5.0279,4.7404 -0.70428,-6.8742 -6.0621,-3.3169 6.3202,-2.7941 1.2813,-6.7904 4.6103,5.1474 6.854,-0.87975 -3.4708,5.9753 z"
         fill="none"
         stroke="#fdfdfd"
         stroke-opacity="0.37157"
         stroke-width="0.18521" />
      <path
         id="path28"
         transform="matrix(1.4501,0,0,1.2205,19.883,-19.919)"
         d="m 2.8057,60.668 -6.7554,-1.4544 -5.0279,4.7404 -0.70428,-6.8742 -6.0621,-3.3169 6.3202,-2.7941 1.2813,-6.7904 4.6103,5.1474 6.854,-0.87975 -3.4708,5.9753 z"
         fill="none"
         stroke="#fdfdfd"
         stroke-opacity="0.37157"
         stroke-width="0.18521" />
      <path
         id="path36"
         d="m 21.346,41.1 -8.2526,-11.368 -1.7132,0.90032 8.896,11.248 z"
         fill="none"
         stroke="#fdfdfd"
         stroke-opacity="0.37157"
         stroke-width="0.14492" />
      <path
         id="path41"
         d="m -13.299,49.356 -9.9104,-11.419 -1.5305,1.341 9.9648,11.055 z"
         fill="none"
         stroke="#fdfdfd"
         stroke-opacity="0.37157"
         stroke-width="0.18521" />
      <path
         id="path47"
         d="m -10.248,61.772 c -0.02946,-0.10897 -0.25631,-1.7794 -0.50414,-3.7122 -0.24783,-1.9328 -0.47789,-3.6683 -0.51126,-3.8569 l -0.06067,-0.34283 -4.5664,-1.9284 c -2.5115,-1.0606 -4.5673,-1.9477 -4.5683,-1.9713 -9.97e-4,-0.02355 2.135,-0.77281 4.7467,-1.665 2.6117,-0.89217 4.7658,-1.6443 4.7869,-1.6713 0.0211,-0.02703 0.46954,-1.8232 0.99653,-3.9915 0.52699,-2.1682 0.97231,-3.9533 0.98959,-3.9667 0.01728,-0.01342 1.5886,1.3267 3.4919,2.9781 2.3624,2.0498 3.5315,3.0033 3.6843,3.005 0.12313,0.0013 2.4466,-0.21686 5.1632,-0.48503 2.7166,-0.26817 4.9644,-0.4681 4.995,-0.4443 0.030643,0.02377 -1.1171,1.6115 -2.5506,3.5282 l -2.6063,3.4849 2.2247,3.6516 c 1.2236,2.0084 2.2035,3.6681 2.1776,3.6882 -0.025916,0.02013 -2.2261,-0.32779 -4.8894,-0.77315 -2.6632,-0.44536 -4.9524,-0.8229 -5.0871,-0.83897 -0.19184,-0.02291 -0.95473,0.4903 -3.524,2.3706 -4.6024,3.3682 -4.3234,3.1813 -4.3884,2.9408 z m 4.3113,-4.8264 c 1.3858,-1.0135 2.5887,-1.8427 2.6731,-1.8427 0.15361,0 6.189,0.99516 6.5527,1.0805 0.10622,0.02491 0.19313,0.008 0.19313,-0.03765 0,-0.04562 -0.64559,-1.1425 -1.4346,-2.4375 -0.78905,-1.295 -1.4346,-2.4034 -1.4346,-2.4632 0,-0.05979 0.77592,-1.1463 1.7243,-2.4144 0.94835,-1.2681 1.7057,-2.3188 1.6829,-2.3347 -0.022724,-0.01598 -1.5063,0.11997 -3.2969,0.30207 -1.7905,0.18211 -3.3549,0.33164 -3.4763,0.33228 -0.14961,6.44e-4 -0.96644,-0.64678 -2.5357,-2.0103 -1.2732,-1.1063 -2.3469,-1.9836 -2.386,-1.9495 -0.039084,0.03408 -0.35487,1.2383 -0.70176,2.6761 -0.34688,1.4378 -0.63884,2.619 -0.64879,2.625 -0.01,0.006 -1.4325,0.49562 -3.1612,1.088 -1.7287,0.59242 -3.1551,1.1082 -3.1698,1.1462 -0.0146,0.03796 1.3495,0.65247 3.0314,1.3656 l 3.058,1.2966 0.35341,2.646 c 0.19438,1.4553 0.3564,2.6749 0.36004,2.7103 0.0037,0.03535 0.02695,0.06427 0.0518,0.06427 0.02484,0 1.179,-0.82922 2.5648,-1.8427 z"
         fill="#c6189d"
         stroke="url(#linearGradient47)"
         stroke-width="0.068078"
         style="stroke:url(#linearGradient47)" />
      <path
         id="path48"
         d="M 6.9905,57.54 C 6.963298,57.43094 6.75378,55.759 6.52491,53.8247 6.29603,51.8903 6.08356,50.1533 6.05274,49.9645 l -0.056028,-0.34312 -4.2173,-1.9301 c -2.3195,-1.0615 -4.2181,-1.9494 -4.219,-1.973 -7.674e-4,-0.02359 1.9717,-0.77347 4.3838,-1.6664 2.412,-0.89293 4.4014,-1.6457 4.4209,-1.6727 0.01949,-0.02707 0.43364,-1.8248 0.92034,-3.9949 0.4867,-2.1701 0.89796,-3.9566 0.91392,-3.9701 0.01596,-0.01344 1.4672,1.3278 3.2249,2.9806 2.6127,2.4566 3.2429,3.0048 3.4536,3.0037 0.2467,-0.0012 3.7913,-0.36804 7.5192,-0.77809 0.96679,-0.10635 1.7814,-0.17345 1.8103,-0.14913 0.02889,0.02432 -1.0306,1.6138 -2.3545,3.5322 l -2.407,3.4879 2.0546,3.6547 c 1.13,2.0101 2.035,3.6712 2.0111,3.6914 -0.02395,0.02015 -2.0559,-0.32807 -4.5155,-0.77382 -2.4596,-0.44574 -4.5738,-0.8236 -4.6982,-0.83969 -0.17717,-0.02292 -0.88173,0.49072 -3.2545,2.3726 -4.2505,3.3711 -3.9928,3.184 -4.0528,2.9433 z m 3.9817,-4.8305 c 1.2799,-1.0144 2.3908,-1.8443 2.4687,-1.8443 0.14186,0 5.7158,0.99601 6.0517,1.0814 0.09809,0.02492 0.17836,0.008 0.17836,-0.03769 0,-0.04566 -0.59623,-1.1435 -1.325,-2.4396 -0.72873,-1.2961 -1.325,-2.4055 -1.325,-2.4654 0,-0.05985 0.7166,-1.1473 1.5924,-2.4165 0.87584,-1.2692 1.5753,-2.3208 1.5543,-2.3368 -0.02099,-0.01598 -1.3911,0.12007 -3.0448,0.30233 -1.6536,0.18227 -3.0984,0.33192 -3.2105,0.33257 -0.13818,8.08e-4 -0.89255,-0.64734 -2.3418,-2.012 -1.1759,-1.1073 -2.1675,-1.9853 -2.2036,-1.9512 -0.03611,0.0341 -0.32774,1.2394 -0.6481,2.6784 -0.32036,1.439 -0.58999,2.6212 -0.59919,2.6272 -0.0092,0.006 -1.323,0.49604 -2.9195,1.089 -1.5966,0.59294 -2.9139,1.1091 -2.9274,1.1471 -0.013505,0.03799 1.2463,0.65302 2.7996,1.3667 l 2.8242,1.2977 0.32639,2.6483 c 0.17952,1.4566 0.32915,2.6772 0.33252,2.7126 0.0035,0.03539 0.0249,0.06434 0.04784,0.06434 0.02294,0 1.0889,-0.82994 2.3687,-1.8443 z"
         fill="#c6189d"
         stroke="url(#linearGradient48)"
         stroke-width="0.065452"
         style="stroke:url(#linearGradient48)" />
      <path
         id="path49"
         d="M 20.241,41.683 C 20.17393,41.61907 11.8335,31.062 11.6726,30.837 l -0.12182,-0.17006 0.74289,-0.39015 c 0.40859,-0.21458 0.76074,-0.38295 0.78255,-0.37414 0.03086,0.01246 7.8625,10.761 8.0782,11.087 0.03899,0.05897 -0.06006,0.15936 -0.40495,0.41034 -0.31098,0.2263 -0.47316,0.31652 -0.50848,0.28285 z"
         fill="#c6189d"
         stroke="url(#linearGradient49)"
         stroke-width="0.038496"
         style="stroke:url(#linearGradient49)" />
      <path
         id="path51"
         d="m -19.664,44.717 c -2.6793,-2.9724 -4.8499,-5.4315 -4.8235,-5.4646 0.10105,-0.12714 1.2677,-1.1115 1.2938,-1.0916 0.02919,0.02224 9.3493,10.759 9.5573,11.01 0.11804,0.14246 0.10168,0.16162 -0.46299,0.542 -0.32195,0.21688 -0.6096,0.39747 -0.63922,0.40132 -0.02963,0.0038 -2.246,-2.425 -4.9253,-5.3974 z"
         fill="#c6189d"
         stroke="url(#linearGradient51)"
         stroke-width="0.049199"
         style="stroke:url(#linearGradient51)" />
    </g>
  </g>
  <g
     id="edit_variant__8__kytka"
     transform="matrix(-1.1932,0,0,1.1932,244.223,-4.4809578)"
     inkscape:label="edit_variant__8__kytka"
     style="display:none">
    <path
       id="path4"
       d="m 60.304,69.301 3.1628,11.035 h 7.5907 l 3.2331,-10.964 z"
       fill="url(#linearGradient4-9)"
       stroke="url(#linearGradient12)"
       stroke-linecap="round"
       stroke-width="1.149"
       style="fill:url(#linearGradient4-9);stroke:url(#linearGradient12)" />
    <path
       id="path5"
       d="m 72.253,69.02 c 3.6943,1.4135 7.9297,1.5129 11.035,4.3576 1.8401,-2.5652 -8.1909,-3.7251 -13.091,-5.6931 0.2046,0.46795 5.1637,-0.1668 6.9582,-0.75556 1.0696,-0.35094 8.1062,0.93153 7.0921,-4.69e-4 -1.7108,-1.5724 -11.075,-1.6959 -13.681,-0.71995 4.1006,-1.4847 8.7576,-5.5648 13.495,-4.2874 -1.9876,-3.7879 -8.5852,-0.33163 -15.744,4.0062 2.6378,-3.658 4.6262,-9.864 8.3639,-9.2073 -2.4912,-0.78571 -4.8108,-2.149 -11.035,9.629 -0.47924,-4.665 -1.2988,-9.7619 0.56228,-11.456 -3.2306,0.90349 -3.353,5.2605 -2.3897,10.824 -3.059,-5.3342 -8.6315,-11.944 -10.683,-8.891 3.3478,0.82245 6.5796,5.0191 8.645,9.7344 -4.5564,-3.4025 -10.127,-5.951 -12.089,-1.8274 3.373,-2.6284 6.9128,0.55216 10.472,2.7411 -4.3882,0.396 -5.0924,2.5463 -5.6228,4.7794 1.7764,-1.8 3.3586,-3.778 7.3096,-3.5845 z"
       fill="#37ad17"
       stroke="url(#linearGradient8)"
       stroke-linecap="round"
       stroke-width="0.665"
       style="stroke:url(#linearGradient8)" />
    <path
       id="path17"
       d="m 63.863,68.435 c -2.1136,-2.8905 -2.3741,-5.7005 -2.3607,-8.4985 0.43187,2.5346 1.2607,5.0693 2.9074,7.6039 0.89691,-1.8146 -3.5211,-6.2781 -2.9501,-8.5117 0.09168,2.0109 5.7233,7.0662 3.6973,9.6284 l 1.4759,0.24901 c -0.71049,-1.477 -0.86373,-4.3466 -2.1983,-5.4908 1.2422,-0.36618 2.0659,2.5453 3.0565,4.1499 0.06737,-2.8171 -1.5009,-5.9134 2.0978,-8.1276 -1.9245,2.4049 -1.0969,5.3259 -0.905,8.1276 l 0.80746,0.02911 c 0.96124,-2.2081 0.27451,-4.0459 -1.0062,-5.0238 1.3938,1.4295 2.2396,-0.28033 2.0625,4.9947 3.6995,-7.0892 4.0166,-4.5562 5.1687,-4.3983 -1.7418,-0.8599 -3.7433,2.9304 -5.2194,5.7008 l -7.8514,-0.03514 c -2.279,-1.2725 -4.5414,-2.4803 -6.3614,-1.9631 1.667,0.11247 1.4741,-1.7013 5.4669,0.82003 -0.03155,-0.80688 -4.1922,-7.6267 -4.0256,-5.5663 0.05515,0.68191 6.3135,6.1361 6.1378,6.3117 z"
       fill="#287d11"
       stroke="url(#linearGradient17)"
       stroke-linecap="round"
       stroke-width="0.2"
       style="stroke:url(#linearGradient17)" />
  </g>
  <rect
     id="rect1"
     x="-193.46796"
     y="91.627716"
     width="57.193653"
     height="5.3660588"
     ry="2.5578628"
     fill="url(#linearGradient3-4)"
     stroke="url(#linearGradient2)"
     stroke-linecap="round"
     stroke-width="1.33591"
     transform="scale(-1,1)"
     style="fill:url(#linearGradient3-4);stroke:url(#linearGradient2)" />
  <path
     id="path211"
     d="m 216.179,140.67 c 6.9058,-1.0844 12.225,-5.3648 10.437,-7.9231 -4.5973,-5.5196 -11.18,-10.412 -11.577,-7.5797 0,0 1.6537,2.4566 3.1536,4.8523 l 3.7188,3.8618 c -2.7893,3.1967 -4.577,2.0532 -6.853,3.0256 -1.7474,0.059 -4.8769,-1.8313 -3.4431,2.8367 2.2057,1.5445 2.0216,-0.48392 4.564,0.92651 z"
     fill="#494949"
     stroke="url(#linearGradient227)"
     stroke-width="1.1641"
     style="stroke:url(#linearGradient227)" />
  <g
     id="edit_variant__3__voda"
     inkscape:label="edit_variant__3__voda"
     transform="matrix(0.43108478,0,0,0.43108478,110.50655,95.683923)"
     style="display:none">
    <path
       style="fill:#beeff6;fill-opacity:1;stroke:#000000;stroke-width:0.794002;stroke-dasharray:none;stroke-opacity:1"
       d="m 118.32284,147.33989 1.23932,-15.94206 c -1.00679,-1.62457 -8.68394,-1.48704 -10.36516,-0.16899 l 1.23931,16.16739 c 1.25608,1.33218 5.63269,1.94343 7.88653,-0.0563 z"
       id="path31-4"
       sodipodi:nodetypes="ccccc" />
    <path
       style="fill:#beeff6;fill-opacity:1;stroke:#000000;stroke-width:0.794002;stroke-dasharray:none;stroke-opacity:1"
       d="m 119.56216,131.5105 c 0.68752,1.76546 -9.32428,2.84996 -10.42149,-0.22533"
       id="path32-2"
       sodipodi:nodetypes="cc" />
    <path
       style="fill:#f66a3d;fill-opacity:1;stroke:none;stroke-width:0.794002;stroke-dasharray:none;stroke-opacity:1"
       d="m 118.02079,147.37758 c -3.57541,2.06995 -6.35126,0.78195 -7.47181,0.075 l -0.43428,-8.77769 c 2.77736,-0.72544 6.45273,-0.84347 8.46357,0.30558 z"
       id="path33-3"
       sodipodi:nodetypes="ccccc" />
    <path
       style="fill:#df200c;fill-opacity:1;stroke:#df200c;stroke-width:0.794002;stroke-dasharray:none;stroke-opacity:1"
       d="m 111.08678,147.39817 c -0.65961,-0.34 0.46074,-0.39283 1.28322,-0.44812 1.29225,-0.0869 2.76658,-0.3099 3.82745,-0.15003 1.48308,0.22349 1.88371,0.2236 1.03924,0.54248 -1.50485,0.84818 -3.59724,1.00055 -5.48221,0.37198 z"
       id="path34-2"
       sodipodi:nodetypes="cssccc" />
  </g>

<g
       id="edit_variant__6__lustr__1"
       style="display:inline;stroke-width:0.916507;stroke-dasharray:none"
       inkscape:label="edit_variant__6__lustr__1"
       transform="matrix(1.0791778,0,0,1.0791778,-7.8839412,-1.3545165)"><g
         id="edit_color__6__lustr__1"
         inkscape:label="edit_color__6__lustr__1"
         style="stroke-width:0.916507;stroke-dasharray:none"><path
           style="fill:#ede694;fill-opacity:1;stroke:url(#lustry_linearGradient66);stroke-width:0.916507;stroke-linecap:round;stroke-dasharray:none;stroke-opacity:1"
           d="M 126.86222,63.404898 C 126.41715,47.214525 153.11977,47.62863 154.40918,63.267162 Z"
           id="lustry_path66"
           sodipodi:nodetypes="ccc" /><path
           style="fill:#ede694;fill-opacity:1;stroke:url(#lustry_linearGradient67);stroke-width:0.916507;stroke-linecap:round;stroke-dasharray:none"
           d="m 138.63661,51.221537 c -6.61652,-9.533455 9.04219,-10.833556 3.50615,0.194787"
           id="lustry_path67"
           sodipodi:nodetypes="cc" /></g><path
         style="fill:#2092ba;fill-opacity:1;stroke:url(#lustry_linearGradient68);stroke-width:0.916507;stroke-linecap:round;stroke-dasharray:none;stroke-opacity:1"
         d="m 139.92706,43.563997 -0.073,-14.791592 0.38957,0.09739 v 14.657672 z"
         id="lustry_path68"
         sodipodi:nodetypes="ccccc" /><path
         style="fill:#fcf425;fill-opacity:1;stroke:url(#lustry_linearGradient69);stroke-width:0.916507;stroke-linecap:round;stroke-dasharray:none;stroke-opacity:1"
         d="m 139.55425,63.517425 c 0.5529,1.197948 1.91013,1.175771 2.38613,0"
         id="lustry_path69"
         sodipodi:nodetypes="cc" /></g>
<g
       id="edit_variant__6__lustr__2"
       transform="matrix(0.64264263,0,0,0.58525613,159.32876,-37.667828)"
       inkscape:label="edit_variant__6__lustr__2"
       style="display:none"><path
         style="fill:#cda014;fill-opacity:1;stroke:#000000;stroke-width:0.600001;stroke-dasharray:none"
         d="m -53.05109,123.57022 63.920094,-0.51757 0.258786,4.39936 -63.66131,0.25879 z"
         id="lustry_path48" /><path
         style="fill:#cda014;fill-opacity:1;stroke:#000000;stroke-width:0.529845;stroke-dasharray:none"
         d="m -45.998147,127.80482 -0.10056,21.03283 2.916283,-0.12984 -0.100563,-21.03281 z"
         id="lustry_path49"
         sodipodi:nodetypes="ccccc" /><path
         style="fill:#cda014;fill-opacity:1;stroke:#000000;stroke-width:0.529845;stroke-dasharray:none"
         d="m 1.7478351,127.67543 -0.10056,21.03283 2.916283,-0.12984 -0.100563,-21.03281 z"
         id="lustry_path50"
         sodipodi:nodetypes="ccccc" /><path
         style="fill:#e2e181;fill-opacity:1;stroke:#000000;stroke-width:0.600001;stroke-dasharray:none"
         d="m -50.722019,165.49353 c 1.049203,6.3869 10.776607,7.38348 12.162932,0.12939 z"
         id="lustry_path53"
         sodipodi:nodetypes="ccc" /><path
         style="fill:#cda014;fill-opacity:1;stroke:#000000;stroke-width:0.357688;stroke-dasharray:none"
         d="m -23.430722,127.54298 -0.06789,14.19886 1.968727,-0.0876 -0.06789,-14.19885 z"
         id="lustry_path54"
         sodipodi:nodetypes="ccccc" /><g
         id="edit_color__6__lustr__2"
         style="display:inline"><path
           style="fill:#81e0e2;fill-opacity:1;stroke:#000000;stroke-width:0.600001;stroke-dasharray:none"
           d="m -49.94566,148.67245 h 10.610218 l 5.82268,16.82107 h -22.643759 z"
           id="lustry_path51" /><path
           style="fill:#81e0e2;fill-opacity:1;stroke:#000000;stroke-width:0.600001;stroke-dasharray:none"
           d="M -1.811499,148.41366 H 8.798719 l 5.82268,16.82107 H -8.02236 Z"
           id="lustry_path52" /><path
           style="fill:#81e0e2;fill-opacity:1;stroke:#000000;stroke-width:0.405049;stroke-dasharray:none"
           d="m -26.095613,141.63032 h 7.162756 l 3.93078,11.35558 h -15.286369 z"
           id="lustry_path55" /></g><path
         style="fill:#e2e181;fill-opacity:1;stroke:#000000;stroke-width:0.405049;stroke-dasharray:none"
         d="m -26.619718,152.98591 c 0.708297,4.31167 7.275082,4.98444 8.210963,0.0873 z"
         id="lustry_path56"
         sodipodi:nodetypes="ccc" /><path
         style="fill:#e2e181;fill-opacity:1;stroke:#000000;stroke-width:0.600001;stroke-dasharray:none"
         d="m -2.3290722,165.49353 c 1.049203,6.3869 10.776607,7.38348 12.162932,0.12939 z"
         id="lustry_path57"
         sodipodi:nodetypes="ccc" /><path
         style="fill:#cda014;fill-opacity:1;stroke:#000000;stroke-width:0.421294;stroke-dasharray:none"
         d="m -24.580764,114.05374 -0.146437,9.13289 4.246117,-0.0563 -0.146418,-9.13289 z"
         id="lustry_path58"
         sodipodi:nodetypes="ccccc" /></g>
<g
       id="edit_variant__6__lustr__3"
       inkscape:label="edit_variant__6__lustr__3"
       style="display:none"><path
         style="display:inline;fill:#cda014;fill-opacity:1;stroke:#000000;stroke-width:0.292305;stroke-dasharray:none"
         d="m 144.60508,29.49824 -0.0555,11.603397 1.60885,-0.07163 -0.0555,-11.603387 z"
         id="lustry_path50-1"
         sodipodi:nodetypes="ccccc" /><path
         style="display:inline;fill:#e2e181;fill-opacity:1;stroke:#000000;stroke-width:0.331009;stroke-dasharray:none"
         d="m 142.35593,50.361739 c 0.57883,3.523528 5.94524,4.073321 6.71005,0.07135 z"
         id="lustry_path57-5"
         sodipodi:nodetypes="ccc" /><path
         style="display:inline;fill:#a5f96a;fill-opacity:1;stroke:#000000;stroke-width:0.331009;stroke-dasharray:none"
         d="m 142.5944,41.160896 h 5.85345 l 3.21226,9.279856 h -12.49212 z"
         id="edit_color__6__lustr__3" /></g>
<g
       id="edit_variant__6__lustr__4"
       inkscape:label="edit_variant__6__lustr__4"
       style="display:none"><path
         style="fill:#dcdcdc;fill-opacity:1;stroke:#000000;stroke-width:0.4732"
         d="m 141.06582,57.745021 c -2.8042,-0.427425 -2.02479,1.722797 -0.0529,1.639354 2.40788,-0.545602 0.14068,-5.424134 -4.62214,-5.789315 -1.42365,-0.07141 -2.33445,0.587532 -3.25736,0.871242 l 1.16342,-1.480718 c 1.86538,-0.592712 3.96399,-1.190379 7.40355,2.644131 -0.41206,-1.698613 -1.03135,-3.21072 -2.43259,-4.019078 l 0.37017,-0.951881 c 0.92215,0.624494 1.87549,1.222609 2.1682,2.379713 l 0.053,-11.052452 0.52882,-1.903775 0.42307,2.009535 c -0.15865,7.086261 0.0866,21.284924 -0.47595,21.25879 -0.21152,-0.324754 -1.21079,-0.134453 -0.26441,-1.216299 -0.55847,-0.346636 -0.71768,-0.547532 -0.26441,-1.2163 -1.0052,-0.278658 -0.52476,-0.628064 -0.58171,-0.951892 -4.23563,0.233286 -2.99553,-3.961396 -0.26442,-2.802767 0.20081,0.193893 0.69446,0.387808 0.10573,0.581712 z"
         id="lustry_path3"
         sodipodi:nodetypes="cccccccccccccccccc" /><path
         style="fill:#dcdcdc;fill-opacity:1;stroke:#000000;stroke-width:0.4732"
         d="m 141.64753,34.318043 c -2.49645,8.584789 -11.39354,30.291083 -19.83096,18.931948 l -1.63936,-0.05286 c 9.12467,14.41092 19.52329,-7.123131 21.89337,-17.292592 z"
         id="lustry_path1"
         sodipodi:nodetypes="ccccc" /><path
         style="fill:#dcdcdc;fill-opacity:1;stroke:#000000;stroke-width:0.4732"
         d="m 141.62109,34.344485 c -0.63395,13.50724 -5.30233,27.074897 -12.08367,17.319038 h -1.32206 c 4.35606,8.178663 11.0217,6.977327 14.25185,-11.792812 l 0.0264,-5.446902 z"
         id="lustry_path2"
         sodipodi:nodetypes="cccccc" /><path
         style="fill:#fcb51f;fill-opacity:1;stroke:#000000;stroke-width:0.4732"
         d="m 118.36623,51.390812 c 0.97897,1.9021 3.71578,2.627228 5.3099,0.03741"
         id="lustry_path5"
         sodipodi:nodetypes="cc" /><ellipse
         style="fill:#fcb51f;fill-opacity:1;stroke:#000000;stroke-width:0.4732"
         id="lustry_path4"
         cx="120.9464"
         cy="51.446903"
         rx="2.617553"
         ry="0.69178182" /><path
         style="fill:#fc1a29;fill-opacity:1;stroke:#000000;stroke-width:0.4732"
         d="m 119.92741,47.296211 2.1034,-0.01865 v 4.001119 c -0.0131,0.420294 -0.30978,0.358359 -0.5609,0.373931 h -1.08442 c -0.61816,0.04167 -0.33937,-0.306582 -0.44873,-0.486108 z"
         id="lustry_path6"
         sodipodi:nodetypes="ccccccc" /><path
         style="fill:#f8d857;fill-opacity:1;stroke:#000000;stroke-width:0.4732"
         d="m 121.04922,47.099898 c 1.37508,-0.467009 0.42682,-1.738243 -0.0374,-2.841918 -0.3633,0.999389 -1.93254,2.299683 0.0374,2.841918 z"
         id="lustry_path7"
         sodipodi:nodetypes="ccc" /><path
         style="fill:#fcb51f;fill-opacity:1;stroke:#000000;stroke-width:0.4732"
         d="m 126.1441,49.857667 c 0.97898,1.90211 3.71578,2.627238 5.3099,0.03741"
         id="lustry_path8"
         sodipodi:nodetypes="cc" /><ellipse
         style="fill:#fcb51f;fill-opacity:1;stroke:#000000;stroke-width:0.4732"
         id="lustry_ellipse8"
         cx="128.72426"
         cy="49.913757"
         rx="2.617553"
         ry="0.69178182" /><path
         style="fill:#fc1a29;fill-opacity:1;stroke:#000000;stroke-width:0.4732"
         d="m 127.70528,45.763069 2.1034,-0.01869 V 49.7455 c -0.0131,0.420284 -0.30978,0.358349 -0.5609,0.373932 h -1.08441 c -0.61817,0.04167 -0.33939,-0.306593 -0.44873,-0.486109 z"
         id="lustry_path9"
         sodipodi:nodetypes="ccccccc" /><path
         style="fill:#f8d857;fill-opacity:1;stroke:#000000;stroke-width:0.4732"
         d="m 128.82709,45.566754 c 1.37508,-0.467008 0.42681,-1.738241 -0.0374,-2.841915 -0.3633,0.999389 -1.93254,2.299685 0.0374,2.841915 z"
         id="lustry_path10"
         sodipodi:nodetypes="ccc" /><path
         style="fill:#dcdcdc;fill-opacity:1;stroke:#000000;stroke-width:0.315466;stroke-dasharray:none"
         d="m 134.54831,50.278355 c -3.80182,-1.059965 0.18875,-4.410851 0.739,-1.813593 0.061,0.484456 -0.60446,1.030303 -0.49387,0.254016 -0.0872,-1.756445 -2.92999,0.448602 0.10083,1.045417 z"
         id="lustry_path11"
         sodipodi:nodetypes="ccccc" /><path
         style="fill:#dcdcdc;fill-opacity:1;stroke:#000000;stroke-width:0.315466;stroke-dasharray:none"
         d="m 126.31697,56.365651 c -2.03613,-3.381069 3.16585,-3.077098 1.78252,-0.811065 -0.28833,0.394064 -1.14689,0.333995 -0.53346,-0.154437 1.14268,-1.336779 -2.43814,-1.685707 -0.64454,0.829227 z"
         id="lustry_path12"
         sodipodi:nodetypes="ccccc" /><path
         style="fill:#dcdcdc;fill-opacity:1;stroke:#000000;stroke-width:0.315466;stroke-dasharray:none"
         d="m 122.01942,55.795471 c -3.8207,0.989707 0.10742,4.413569 0.70545,1.826906 0.0699,-0.483263 -0.58536,-1.041282 -0.48911,-0.263086 -0.11951,1.754537 -2.92123,-0.502533 0.12005,-1.043381 z"
         id="lustry_path13"
         sodipodi:nodetypes="ccccc" /><path
         style="fill:#dcdcdc;fill-opacity:1;stroke:#000000;stroke-width:0.315466;stroke-dasharray:none"
         d="m 134.80159,56.301979 c -0.14497,3.944162 4.25974,1.160025 1.95238,-0.153179 -0.44305,-0.205244 -1.16525,0.262894 -0.39205,0.393372 1.64698,0.616564 -1.31742,2.65528 -0.9654,-0.41358 z"
         id="lustry_path14"
         sodipodi:nodetypes="ccccc" /><path
         style="fill:#dcdcdc;fill-opacity:1;stroke:#000000;stroke-width:0.4732"
         d="m 144.25809,57.670232 c 2.80419,-0.427424 2.02479,1.722797 0.0529,1.639355 -2.40787,-0.545603 -0.14068,-5.424134 4.62214,-5.789315 1.42366,-0.07141 2.33445,0.587531 3.25736,0.871241 l -1.16341,-1.480718 c -1.86539,-0.592711 -3.964,-1.190379 -7.40356,2.644132 0.41207,-1.698614 1.03136,-3.21072 2.4326,-4.019078 l -0.37017,-0.951881 c -0.92216,0.624494 -1.87549,1.222609 -2.16819,2.379713 l -0.053,-11.052453 -0.52882,-1.903773 -0.42307,2.009533 c 0.15865,7.086262 -0.0866,21.284925 0.47595,21.258791 0.21153,-0.324755 1.21078,-0.134453 0.26441,-1.2163 0.55846,-0.346635 0.71768,-0.547531 0.26441,-1.216299 1.00521,-0.278658 0.52477,-0.628075 0.58171,-0.951892 4.23563,0.233286 2.99554,-3.961396 0.26442,-2.802768 -0.20081,0.193894 -0.69445,0.387808 -0.10573,0.581712 z"
         id="lustry_path17"
         sodipodi:nodetypes="cccccccccccccccccc" /><path
         style="fill:#dcdcdc;fill-opacity:1;stroke:#000000;stroke-width:0.4732"
         d="m 143.67637,34.243256 c 2.49646,8.584787 11.39354,30.291082 19.83098,18.931947 l 1.63935,-0.05286 c -9.12468,14.41092 -19.52329,-7.123137 -21.89338,-17.292592 z"
         id="lustry_path18"
         sodipodi:nodetypes="ccccc" /><path
         style="fill:#dcdcdc;fill-opacity:1;stroke:#000000;stroke-width:0.4732"
         d="m 143.43841,34.269698 c 0.63394,13.507239 5.56674,27.074895 12.34807,17.319037 h 1.32206 c -4.35605,8.178663 -10.99524,6.977327 -14.22539,-11.792811 l -0.18513,-5.446904 z"
         id="lustry_path19"
         sodipodi:nodetypes="cccccc" /><path
         style="fill:#fcb51f;fill-opacity:1;stroke:#000000;stroke-width:0.4732"
         d="m 166.95767,51.316024 c -0.97896,1.902099 -3.71578,2.627228 -5.30989,0.03741"
         id="lustry_path20"
         sodipodi:nodetypes="cc" /><ellipse
         style="fill:#fcb51f;fill-opacity:1;stroke:#000000;stroke-width:0.4732"
         id="lustry_ellipse20"
         cx="-164.37752"
         cy="51.372108"
         rx="2.617553"
         ry="0.69178182"
         transform="scale(-1,1)" /><path
         style="fill:#fc1a29;fill-opacity:1;stroke:#000000;stroke-width:0.4732"
         d="m 165.3965,47.221422 -2.10339,-0.01865 v 4.00112 c 0.0131,0.420294 0.30977,0.358359 0.56089,0.373931 h 1.08442 c 0.61815,0.04178 0.33938,-0.306583 0.44873,-0.486109 z"
         id="lustry_path21"
         sodipodi:nodetypes="ccccccc" /><path
         style="fill:#f8d857;fill-opacity:1;stroke:#000000;stroke-width:0.4732"
         d="m 164.27468,47.025109 c -1.37506,-0.467009 -0.42681,-1.738244 0.0374,-2.841917 0.3633,0.999389 1.93254,2.299683 -0.0374,2.841917 z"
         id="lustry_path22"
         sodipodi:nodetypes="ccc" /><path
         style="fill:#fcb51f;fill-opacity:1;stroke:#000000;stroke-width:0.4732"
         d="m 159.1798,49.782879 c -0.97896,1.90211 -3.71578,2.627238 -5.30989,0.03741"
         id="lustry_path23"
         sodipodi:nodetypes="cc" /><ellipse
         style="fill:#fcb51f;fill-opacity:1;stroke:#000000;stroke-width:0.4732"
         id="lustry_ellipse23"
         cx="-156.59966"
         cy="49.838982"
         rx="2.617553"
         ry="0.69178182"
         transform="scale(-1,1)" /><path
         style="fill:#fc1a29;fill-opacity:1;stroke:#000000;stroke-width:0.4732"
         d="m 157.61862,45.68828 -2.10339,-0.0187 v 4.001127 c 0.0131,0.420284 0.30977,0.358349 0.5609,0.373931 h 1.08442 c 0.61815,0.04167 0.33937,-0.306593 0.44873,-0.486119 z"
         id="lustry_path24"
         sodipodi:nodetypes="ccccccc" /><path
         style="fill:#f8d857;fill-opacity:1;stroke:#000000;stroke-width:0.4732"
         d="m 156.49681,45.491966 c -1.37507,-0.467008 -0.42681,-1.738242 0.0374,-2.841916 0.36329,0.999388 1.93254,2.299685 -0.0374,2.841916 z"
         id="lustry_path25"
         sodipodi:nodetypes="ccc" /><path
         style="fill:#dcdcdc;fill-opacity:1;stroke:#000000;stroke-width:0.315466;stroke-dasharray:none"
         d="m 150.77559,50.203567 c 3.80182,-1.059965 -0.18874,-4.410852 -0.739,-1.813594 -0.061,0.484457 0.60446,1.030304 0.49387,0.254016 0.0872,-1.756445 2.93001,0.448603 -0.10083,1.045407 z"
         id="lustry_path26"
         sodipodi:nodetypes="ccccc" /><path
         style="fill:#dcdcdc;fill-opacity:1;stroke:#000000;stroke-width:0.315466;stroke-dasharray:none"
         d="m 159.00695,56.290863 c 2.03611,-3.38107 -3.16585,-3.077099 -1.78253,-0.811065 0.28832,0.394064 1.14688,0.333995 0.53346,-0.154437 -1.14268,-1.33678 2.43814,-1.685707 0.64454,0.829226 z"
         id="lustry_path27"
         sodipodi:nodetypes="ccccc" /><path
         style="fill:#dcdcdc;fill-opacity:1;stroke:#000000;stroke-width:0.315466;stroke-dasharray:none"
         d="m 163.30448,55.720683 c 3.82072,0.989707 -0.1074,4.413569 -0.70544,1.826895 -0.0699,-0.483252 0.58536,-1.041271 0.48911,-0.263075 0.1195,1.754537 2.92122,-0.502533 -0.12004,-1.043382 z"
         id="lustry_path28"
         sodipodi:nodetypes="ccccc" /><path
         style="fill:#dcdcdc;fill-opacity:1;stroke:#000000;stroke-width:0.315466;stroke-dasharray:none"
         d="m 150.52232,56.227191 c 0.14496,3.944162 -4.25975,1.160024 -1.95239,-0.153179 0.44306,-0.205245 1.16526,0.262894 0.39206,0.393371 -1.64698,0.616565 1.31741,2.655281 0.9654,-0.413579 z"
         id="lustry_path29"
         sodipodi:nodetypes="ccccc" /><ellipse
         style="fill:#dcdcdc;fill-opacity:1;stroke:#000000;stroke-width:0.315466;stroke-dasharray:none"
         id="lustry_path31"
         cx="142.52008"
         cy="32.705124"
         rx="1.6129179"
         ry="1.9830959" /><ellipse
         style="fill:#dcdcdc;fill-opacity:1;stroke:#000000;stroke-width:0.207007;stroke-dasharray:none"
         id="lustry_ellipse31"
         cx="142.70456"
         cy="30.479717"
         rx="1.0583898"
         ry="1.3012991" /></g>
<g
       id="edit_variant__6__lustr__5"
       inkscape:label="edit_variant__6__lustr__5"
       style="display:none"><path
         style="fill:#dcdcdc;fill-opacity:1;stroke:#000000;stroke-width:0.359546;stroke-dasharray:none"
         d="m 140.82612,47.849287 c 0.0993,-5.767319 -12.39118,-5.39006 -11.19698,0.251877 l -1.17421,0.172913 c -2.46111,-6.999571 13.84283,-8.025117 13.09949,-0.781947 z"
         id="lustry_path36"
         sodipodi:nodetypes="ccccc" /><ellipse
         style="fill:#f9fcbc;fill-opacity:1;stroke:#000000;stroke-width:0.29959;stroke-dasharray:none"
         id="lustry_ellipse36"
         cx="128.38124"
         cy="51.018631"
         rx="4.3959465"
         ry="4.5022202" /><path
         style="fill:#dcdcdc;fill-opacity:1;stroke:#000000;stroke-width:0.4;stroke-dasharray:none"
         d="m 142.42106,29.637527 0.26821,17.970264 h 2.1457 l -0.26821,-18.372585 z"
         id="lustry_path32" /><ellipse
         style="fill:#dcdcdc;fill-opacity:1;stroke:#000000;stroke-width:0.4;stroke-dasharray:none"
         id="lustry_path33"
         cx="143.61638"
         cy="49.215515"
         rx="8.0129309"
         ry="1.612069" /><path
         style="fill:#dcdcdc;fill-opacity:1;stroke:#000000;stroke-width:0.385592;stroke-dasharray:none"
         d="m 137.02676,48.430296 c 0.11443,-5.756727 -13.25703,-4.837869 -11.88102,0.793706 l -1.12119,-0.09512 c -2.83581,-6.986715 14.7916,-8.158408 13.93509,-0.928541 z"
         id="lustry_path34"
         sodipodi:nodetypes="ccccc" /><ellipse
         style="fill:#f9fcbc;fill-opacity:1;stroke:#000000;stroke-width:0.321293;stroke-dasharray:none"
         id="lustry_path35"
         cx="123.93966"
         cy="51.868389"
         rx="5.0652156"
         ry="4.4939508" /><path
         style="fill:#dcdcdc;fill-opacity:1;stroke:#000000;stroke-width:0.338923;stroke-dasharray:none"
         d="m 141.7357,50.729058 c -0.84895,-4.98926 -11.76315,-2.290694 -9.64794,2.345132 l -0.98371,0.102455 c -3.59871,-5.565537 11.0398,-8.76027 11.49055,-2.376912 z"
         id="lustry_path37"
         sodipodi:nodetypes="ccccc" /><ellipse
         style="fill:#f9fcbc;fill-opacity:1;stroke:#000000;stroke-width:0.282406;stroke-dasharray:none"
         id="lustry_ellipse37"
         cx="118.74901"
         cy="79.199699"
         rx="4.4521565"
         ry="3.9500337"
         transform="rotate(-10.795454)" /><path
         style="fill:#dcdcdc;fill-opacity:1;stroke:#000000;stroke-width:0.246854;stroke-dasharray:none"
         d="m 142.81547,50.921078 c -0.44372,-5.063951 -5.98058,-1.558894 -4.87503,3.146332 l -0.51415,0.103989 c -1.88093,-5.648855 5.83415,-9.870712 6.06974,-3.391794 z"
         id="lustry_path38"
         sodipodi:nodetypes="ccccc" /><ellipse
         style="fill:#f9fcbc;fill-opacity:1;stroke:#000000;stroke-width:0.282406;stroke-dasharray:none"
         id="lustry_ellipse38"
         cx="125.48705"
         cy="81.449852"
         rx="4.4521565"
         ry="3.9500337"
         transform="rotate(-10.795454)" /><path
         style="fill:#dcdcdc;fill-opacity:1;stroke:#000000;stroke-width:0.359546;stroke-dasharray:none"
         d="m 146.22329,47.588512 c -0.0993,-5.767319 11.73453,-5.240382 10.54033,0.401555 l 0.97305,-0.0953 c 2.46111,-6.999571 -12.98672,-7.752838 -12.24338,-0.509668 z"
         id="lustry_path39"
         sodipodi:nodetypes="ccccc" /><ellipse
         style="fill:#f9fcbc;fill-opacity:1;stroke:#000000;stroke-width:0.29959;stroke-dasharray:none"
         id="lustry_ellipse39"
         cx="-157.81036"
         cy="50.63932"
         rx="4.3959465"
         ry="4.5022202"
         transform="scale(-1,1)" /><path
         style="fill:#dcdcdc;fill-opacity:1;stroke:#000000;stroke-width:0.385592;stroke-dasharray:none"
         d="m 149.53363,48.21862 c -0.11443,-5.756727 12.88824,-5.005503 11.51223,0.626072 l 1.12119,-0.09512 c 2.83581,-6.986715 -14.15459,-7.990775 -13.29808,-0.760908 z"
         id="lustry_path40"
         sodipodi:nodetypes="ccccc" /><ellipse
         style="fill:#f9fcbc;fill-opacity:1;stroke:#000000;stroke-width:0.321293;stroke-dasharray:none"
         id="lustry_ellipse40"
         cx="-162.25194"
         cy="51.489079"
         rx="5.0652156"
         ry="4.4939508"
         transform="scale(-1,1)" /><path
         style="fill:#dcdcdc;fill-opacity:1;stroke:#000000;stroke-width:0.338923;stroke-dasharray:none"
         d="m 144.4559,50.685014 c 0.84895,-4.98926 11.76315,-2.62596 9.64794,2.009866 l 0.98371,0.102455 c 3.59871,-5.565537 -10.97681,-8.471022 -11.42756,-2.087664 z"
         id="lustry_path41"
         sodipodi:nodetypes="ccccc" /><ellipse
         style="fill:#f9fcbc;fill-opacity:1;stroke:#000000;stroke-width:0.282406;stroke-dasharray:none"
         id="lustry_ellipse41"
         cx="-162.30656"
         cy="25.222448"
         rx="4.4521565"
         ry="3.9500337"
         transform="matrix(-0.98230211,-0.18730338,-0.18730338,0.98230211,0,0)" /><path
         style="fill:#dcdcdc;fill-opacity:1;stroke:#000000;stroke-width:0.246854;stroke-dasharray:none"
         d="m 143.61082,50.709401 c 0.44372,-5.063951 5.74589,-1.726527 4.64034,2.978699 l 0.51415,0.103989 c 1.88093,-5.648855 -5.73357,-9.535446 -5.96916,-3.056528 z"
         id="lustry_path42"
         sodipodi:nodetypes="ccccc" /><ellipse
         style="fill:#f9fcbc;fill-opacity:1;stroke:#000000;stroke-width:0.282406;stroke-dasharray:none"
         id="lustry_ellipse42"
         cx="-155.76613"
         cy="27.434921"
         rx="4.4521565"
         ry="3.9500337"
         transform="matrix(-0.98230211,-0.18730338,-0.18730338,0.98230211,0,0)" /></g>
</svg>
