<?xml version="1.0" encoding="UTF-8"?>
<!-- Created with Inkscape (http://www.inkscape.org/) -->
<svg id="svg1" width="297mm" height="210mm" version="1.1" viewBox="0 0 297 210" xml:space="preserve" xmlns="http://www.w3.org/2000/svg" xmlns:xlink="http://www.w3.org/1999/xlink"><defs id="defs1"><linearGradient id="swatch32"><stop id="stop32" offset="0"/></linearGradient><linearGradient id="swatch31" gradientTransform="translate(-458.85 -88.34)"><stop id="stop31" offset="0"/></linearGradient><pattern id="pattern28" patternTransform="matrix(.6 0 0 .6 516.35 44.38)" preserveAspectRatio="xMidYMid" xlink:href="#Bamboo"/><pattern id="Bamboo" width="120.7296" height="193.4609" fill="#a77beb" patternTransform="translate(516.35 44.38)" patternUnits="userSpaceOnUse" preserveAspectRatio="xMidYMid"><path id="path48322" d="m14.841 0c.0189 2.0205.06501 6.5527.06501 10.645 0 5.1206-.89408 15.037-.89408 15.037l6.0961 2.2759s-.81279-12.924-.81279-16.581c0-3.0531.19691-9.1219.27175-11.377zm31.649 0c-.01512.21037-.07219.9835-.29102 3.5332-.24378 2.8448-.97538 4.8362-.97538 4.8362h9.4693s0-.69087-.73157-3.2106c-.59917-2.0641-.59894-4.3616-.5791-5.1588zm22.492 0-.32768 10.346 6.265-2.9884-.59059-7.3572zm31.502 0c.1285 1.0541.95021 8.1365.47119 14.311-.5173 6.667-1.4936 14.426-1.4936 14.426h9.2534s-1.6103-11.322-1.6103-17.644c0-5.6204.47701-10.116.58801-11.092zm-9.3423.85725s-.36208 6.1315.44073 9.4693c1.2104 5.0331 2.138 7.8393 2.5578 2.9744.41873-4.865-2.9986-12.444-2.9986-12.444zm-68.872 6.3641s-1.482 4.183-.94235 6.8772c.53957 2.6941.8956 1.1445 1.2751-1.6371.25172-1.8447-.3326-5.2401-.3326-5.2401zm52.477 2.4346-5.978 2.3559s.91952 6.7247.91952 16.668c0 9.9431-1.1494 19.255-1.1494 19.255s1.2078 12.529.74804 21.093c-.45982 8.5637-1.1494 16.611-1.1494 16.611h6.7235s-1.0337-13.105-1.0909-18.335c-.05745-5.2302.97663-20.518.97663-20.518s-.74755-14.138-.86234-18.678c-.1149-4.5405.86234-18.45.86234-18.45zm-29.523.01474s1.3005 5.9335 1.3005 17.476c0 11.542-1.2192 20.808-1.2192 20.808s1.6256 13.411 1.3005 19.426c-.32504 6.0148-1.3818 17.882-1.3818 17.882l8.4533-2.1133s-.65027-11.379-.81282-19.182c-.16252-7.803 1.3005-16.988 1.3005-16.988s-1.0566-11.217-1.0566-21.296c0-10.079 1.3411-16.012 1.3411-16.012zm32.355.034394s7.2131 6.4563 12.135 8.7543c7.4219 3.4651 11.811 5.0892 6.2206-.19438-5.5918-5.2823-18.356-8.5599-18.356-8.5599zm-43.53.50165s-6.2792.98033-9.3067 3.4938c-3.0274 2.5134-.83187 1.9064 2.9312.4915 2.4956-.9383 6.3755-3.9853 6.3755-3.9853zm-10.727 6.4377c-2.0819.02835.03779 1.2282 3.4989 2.8919 2.7217 1.3076 8.2526 2.0968 8.2526 2.0968s-5.7179-4.3698-10.145-4.8794c-.69169-.07963-1.221-.11452-1.6066-.10912zm42.917 5.0242s-4.0383 4.6287-5.4459 7.7598c-2.1224 4.7215-3.1057 7.5077.20334 3.9167 3.3081-3.5916 5.2427-11.677 5.2427-11.677zm-7.0296 3.518s-3.1045 6.221-3.7542 10.052c-.97946 5.7772-1.2629 9.1099 1.3386 4.233 2.6003-4.8774 2.4168-14.285 2.4168-14.285zm-45.36 2.0409s1.0566 10.404 1.1379 19.508c.08126 9.1035-1.2192 18.37-1.2192 18.37h6.8276s-1.2192-9.9976-1.2192-13.655c.01134-7.2762-.25361-14.603.89408-21.783zm98.594 1.4516s-1.8852 5.0703-2.1413 8.1167c-.38615 4.5938-.40709 7.2266 1.1913 3.2424 1.5975-3.9845.94998-11.359.94998-11.359zm-12.982 1.4961s1.5507 12.127 1.5507 18.967c0 6.8395-1.3792 16.322-1.3792 16.322l8.9664 2.2988s-1.6671-11.954-1.4948-19.368c.17234-7.4142 1.3221-18.22 1.3221-18.22zm18.264 4.7245s-4.7263 5.4666-6.4619 9.1543c-2.617 5.5608-3.8646 8.8409-.003 4.5987 3.8609-4.2429 6.4657-13.753 6.4657-13.753zm-50.91.10938s-4.0414 1.2031-6.0072 2.5032c-2.9642 1.9605-4.5585 3.2161-1.3208 2.347 3.2374-.86981 7.328-4.8502 7.328-4.8502zm-7.2696 14.022v.0013s2.4767 4.7918 4.5492 6.9356c3.1251 3.2327 5.0502 4.9176 3.1814 1.0541-1.8695-3.8631-7.7306-7.991-7.7306-7.991zm-3.283 3.1598s2.2654 1.9579 3.7987 2.6594c2.3121 1.0577 3.6766 1.5551 1.919-.04694-1.7579-1.6018-5.7176-2.6124-5.7176-2.6124zm-25.895 3.3579s-4.5018 8.5452-4.1847 14.518c.3171 5.9722 1.5688 2.7455 3.2589-3.1268 1.1208-3.8944.92583-11.391.92583-11.391zm31.749.77344c-.08428.000718-.17386.0016-.26683.0049-2.9777.07176-7.2683 2.5908-7.2683 2.5908s3.74-.18899 5.6897-.88266c2.8482-1.0135 4.455-1.7327 1.8454-1.712zm-48.025 10.408s1.3817 9.7538 1.2192 18.532c-.16252 8.7784-1.2192 21.702-1.2192 21.702l6.34-2.7636s-.81282-13.168-.81282-20.808c0-7.6405.81282-16.663.81282-16.663zm85.655.40133s1.2066 11.034 1.4364 19.081c.2298 8.0465-1.552 18.967-1.552 18.967h9.369s-1.265-16.552-1.4948-22.185c-.23017-5.6325 1.3222-13.507 1.3222-13.507zm-56.905 2.4257c-.01134.0026-13.183 3.2627-19.154 9.1759-5.9746 5.9159-1.4161 4.2141 6.3298.49913 5.1345-2.4625 12.817-9.6681 12.825-9.6751zm40.769 5.1855v.0013s5.1312 7.5521 8.9918 10.818c5.8214 4.9246 9.3361 7.4561 5.4065 1.3513-3.9309-6.1036-14.398-12.171-14.398-12.171zm-29.787 10.033-8.7365 2.8741s1.6101 10.517 1.6675 17.012c.05745 6.4945-1.6091 20.921-1.6091 20.921h8.908s-1.6085-9.2535-1.4936-19.829c.1149-10.575 1.2637-20.978 1.2637-20.978zm14.483 2.2988s.80447 9.8852.91948 18.564c.1149 8.6787-.91948 17.128-.91948 17.128l6.265 2.2416s-.80413-13.506-.97667-20.806c-.17235-7.2994 1.0922-17.128 1.0922-17.128zm25.465 2.5108c-5.0458-.05013-12.56 4.3792-12.571 4.3854 0 0 6.3498-.12067 9.722-1.2954 5.085-1.7715 7.8982-3.0384 2.8486-3.09zm-57.166 7.2213s-.30161 6.7527.58292 10.29c1.3353 5.3336 2.3446 8.2718 2.7242 2.8957.37871-5.3764-3.3071-13.185-3.3071-13.185zm39.711 7.8792s-.86143 3.097-.72011 4.8616c.21354 2.661.48741 4.1641 1.2523 1.7171.76422-2.4472-.53091-6.5787-.53091-6.5787zm-55.886 1.303-6.34 2.7636s.81282 13.168.81282 20.808c0 7.6405-.97538 15.769-.97538 15.769s.98381 11.073 1.0529 17.233c.06917 6.16-.75946 19.736-.75946 19.736h6.773s-1.5282-10.645-1.6535-17.136c-.12548-6.4912 1.2522-21.702 1.2522-21.702s-1.5442-6.9903-1.3818-15.769c.16252-8.7784 1.2192-21.702 1.2192-21.702zm79.373.68452s1.6098 8.7356 1.4948 17.702c-.1149 8.966-1.6091 20.461-1.6091 20.461s1.0343 6.38 1.1494 17.76c.1149 11.38-1.4948 19.829-1.4948 19.829l8.9664-1.9546s-.34469-9.1953-1.1494-17.931c-.80459-8.7361 1.3221-18.622 1.3221-18.622s-1.0353-9.8853-1.2078-18.794c-.17234-8.9086 1.6091-18.45 1.6091-18.45zm-75.527.12584s6.8445 6.5468 11.452 8.8102c6.9473 3.4129 11.043 4.9872 5.7303-.37848-5.3135-5.3649-17.182-8.4317-17.182-8.4317zm64.816.01s-4.9041 1.127-7.3686 2.4727c-3.7163 2.0296-5.7369 3.3459-1.8187 2.5489 3.918-.79778 9.1874-5.0216 9.1874-5.0216zm-11.45 6.7883c-1.1567-.003-1.0904.51851.99443 1.9546 3.7067 2.552 11.339 2.5705 11.339 2.5705s-4.747-3.0542-7.7878-3.7453c-2.0061-.4558-3.6457-.77713-4.5454-.77978zm42.952 5.0293s-3.7558 4.5656-5.1169 7.6989c-2.0524 4.7248-3.0244 7.5212.0469 3.9853 3.0704-3.5366 5.0699-11.684 5.0699-11.684zm-6.9648 2.9858s-3.275 6.3191-3.9662 10.294c-1.0421 5.993-1.3477 9.4694 1.3957 4.5263 2.7419-4.9436 2.5705-14.82 2.5705-14.82zm-45.436 2.7623s1.0345 12.013 1.3793 17.703c.34507 5.69-1.2649 20.116-1.2649 20.116h6.4377s-.91941-17.529-.97663-21.725c-.05745-4.1956.86101-14.024.86101-14.024zm-10.247 1.2269s-1.8025 4.9477-1.9596 7.8843c-.23698 4.428-.16101 6.9571 1.378 3.0646 1.5379-3.8929.58167-10.949.58167-10.949zm-12.973 1.3602s1.5513 7.2421 1.6662 15.978c.1149 8.7361-1.2065 19.886-1.2065 19.886l8.9079 1.7818s-1.8387-13.392-1.4364-22.646c.40233-9.2534.91952-15 .91952-15zm75.754 5.2503s-3.8143 1.2128-5.7303 2.4638c-2.8892 1.8866-4.4592 3.0872-1.4123 2.2035 3.0466-.88448 7.1426-4.6673 7.1426-4.6673zm-57.94.0954s-4.649 5.2469-6.279 8.8076c-2.4578 5.3691-3.6005 8.54.20825 4.4705 3.8077-4.0704 6.072-13.278 6.072-13.278zm-57.759 13.678s2.845 6.5235 6.6384 9.1099c3.7932 2.5863 2.4847.37862-.20183-3.3046-1.7817-2.4426-6.4365-5.8052-6.4365-5.8052zm-3.8634 3.1204s2.9317 2.7807 5.4878 3.2931c2.556.51251 1.3833-.35176-.83694-1.6828-1.4708-.88175-4.644-1.6088-4.6508-1.6104zm83.395 3.2817s-3.1221 6.5732-3.5357 10.589c-.62347 6.0564-.64611 9.543 2.0016 4.3866 2.6463-5.157 1.5342-14.976 1.5342-14.976zm-76.266.73532c-.59849.0174-1.6221.19933-2.8614.45344-2.023.41483-5.4344 2.361-5.4344 2.361s4.8601.0872 7.5439-1.5431c1.5934-.96799 1.6265-1.2957.75182-1.2713zm60.244 10.45s.56874 6.7829.97792 13.45c.40384 6.5802-.5122 15.179-.53469 16.437h5.3468c-.16554-1.7264-.16139-7.6927-.27175-15.575-.11112-7.9315.68961-14.312.68961-14.312zm-23.104.8052s.97758 6.7824 1.265 12.357c.29594 5.4554-.01134 13.945-.20976 16.724h6.8924c-.44164-5.5844-.47089-9.9752-.5334-13.621-.1149-4.368 1.3792-13.391 1.3792-13.391zm50.534 2.6912s-9.5535 3.6664-13.804 6.5228c-6.4091 4.3077-9.7422 6.927-2.0358 4.1327 7.7037-2.7946 15.836-10.652 15.84-10.656zm-67.208 3.8659s5.1571 7.943 9.1213 11.204c5.9775 4.9175 9.6021 7.3912 5.6643.9487-3.9391-6.442-14.786-12.153-14.786-12.153zm79.58 11.461-8.8787 2.0689 1.0224 8.9956h7.2086zm-94.247 1.5418c.52823 5.1207.74804 9.5217.74804 9.5217h4.7258s-.04838-2.2572.78467-4.7261c.80829-2.3952.60964-4.7956.60964-4.7956zm24.724 2.7979c-5.4785.0147-13.065 4.5657-13.065 4.5657s6.865-.203 10.37-1.4262c5.2847-1.8444 8.1732-3.1533 2.695-3.1395z" style="paint-order:markers fill stroke"/></pattern><pattern id="pattern23" patternTransform="translate(185,405)" preserveAspectRatio="none" xlink:href="#pattern6795"/><pattern id="pattern6795" width="20" height="20" fill="#baac3d" patternTransform="translate(185,405)" patternUnits="userSpaceOnUse"><path id="rect6713" d="m10 10h10l-5 10h-10zm-5-10h10l-5 10h-10z" stop-color="#000000" stroke-linecap="square" stroke-width="4.8561" style="paint-order:stroke markers fill"/></pattern><pattern id="pattern8" patternTransform="rotate(45 -930.08 2132.6)" preserveAspectRatio="xMidYMid" xlink:href="#shading33"/><pattern id="shading33" width="684.32459" height="639.79" fill="#140ce6" patternTransform="translate(956.48 1282.3)" patternUnits="userSpaceOnUse" preserveAspectRatio="xMidYMid"><path id="path33" d="m684.32.001h-342.16v9.928l342.16-9.929zm0 9.118h-342.16v9.926l342.16-9.636zm0 9.117h-342.16v9.926l342.16-9.344zm0 9.118h-342.16v9.925l342.16-9.053zm0 9.118h-342.16v9.923l342.16-8.76zm0 9.117h-342.16v9.923l342.16-8.468zm0 9.118h-342.16v9.921l342.16-8.176zm0 9.118h-342.16v9.92l342.16-7.884zm0 9.117h-342.16v9.92l342.16-7.592zm0 9.118h-342.16v9.918l342.16-7.3zm0 9.117h-342.16v9.918l342.16-7.008zm0 9.118h-342.16v9.917l342.16-6.716zm0 9.118h-342.16v9.915l342.16-6.424zm0 9.117h-342.16v9.915l342.16-6.132zm0 9.118h-342.16v9.914l342.16-5.84zm0 9.117h-342.16v9.913l342.16-5.548zm0 9.118h-342.16v9.912l342.16-5.256zm0 9.118h-342.16v9.911l342.16-4.964zm0 9.117h-342.16v9.91l342.16-4.672zm0 9.118h-342.16v9.909l342.16-4.38zm0 9.118h-342.16v9.908l342.16-4.089zm0 9.117h-342.16v9.907l342.16-3.796zm0 9.118h-342.16v9.906l342.16-3.504zm0 9.117h-342.16v9.905l342.16-3.212zm0 9.118h-342.16v9.904l342.16-2.92zm0 9.118h-342.16v9.903l342.16-2.628zm0 9.117h-342.16v9.902l342.16-2.336zm0 9.118h-342.16v9.901l342.16-2.044zm0 9.117h-342.16v9.901l342.16-1.752zm0 9.118h-342.16v9.899l342.16-1.46zm0 9.118h-342.16v9.898l342.16-1.168zm0 9.117h-342.16v9.898l342.16-.876zm0 9.118h-342.16v9.896l342.16-.584zm0 9.118h-342.16v9.895l342.16-.292zm0 9.117h-342.16v9.895h342.16zm-684.32-310h342.16v9.928l-342.16-9.929zm0 9.118h342.16v9.926l-342.16-9.636zm0 9.117h342.16v9.926l-342.16-9.344zm0 9.118h342.16v9.925l-342.16-9.053zm0 9.118h342.16v9.923l-342.16-8.76zm0 9.117h342.16v9.923l-342.16-8.468zm0 9.118h342.16v9.921l-342.16-8.176zm0 9.118h342.16v9.92l-342.16-7.884zm0 9.117h342.16v9.92l-342.16-7.592zm0 9.118h342.16v9.918l-342.16-7.3zm0 9.117h342.16v9.918l-342.16-7.008zm0 9.118h342.16v9.917l-342.16-6.716zm0 9.118h342.16v9.915l-342.16-6.424zm0 9.117h342.16v9.915l-342.16-6.132zm0 9.118h342.16v9.914l-342.16-5.84zm0 9.117h342.16v9.913l-342.16-5.548zm0 9.118h342.16v9.912l-342.16-5.256zm0 9.118h342.16v9.911l-342.16-4.964zm0 9.117h342.16v9.91l-342.16-4.672zm0 9.118h342.16v9.909l-342.16-4.38zm0 9.118h342.16v9.908l-342.16-4.089zm0 9.117h342.16v9.907l-342.16-3.796zm0 9.118h342.16v9.906l-342.16-3.504zm0 9.117h342.16v9.905l-342.16-3.212zm0 9.118h342.16v9.904l-342.16-2.92zm0 9.118h342.16v9.903l-342.16-2.628zm0 9.117h342.16v9.902l-342.16-2.336zm0 9.118h342.16v9.901l-342.16-2.044zm0 9.117h342.16v9.901l-342.16-1.752zm0 9.118h342.16v9.899l-342.16-1.46zm0 9.118h342.16v9.898l-342.16-1.168zm0 9.117h342.16v9.898l-342.16-.876zm0 9.118h342.16v9.896l-342.16-.584zm0 9.118h342.16v9.895l-342.16-.292zm0 9.117h342.16v9.895h-342.16zm684.32 329.79h-342.16v-9.928l342.16 9.929zm0-9.118h-342.16v-9.926l342.16 9.636zm0-9.117h-342.16v-9.926l342.16 9.344zm0-9.118h-342.16v-9.925l342.16 9.053zm0-9.118h-342.16v-9.923l342.16 8.76zm0-9.117h-342.16v-9.923l342.16 8.468zm0-9.118h-342.16v-9.921l342.16 8.176zm0-9.118h-342.16v-9.92l342.16 7.884zm0-9.117h-342.16v-9.92l342.16 7.592zm0-9.118h-342.16v-9.918l342.16 7.3zm0-9.117h-342.16v-9.918l342.16 7.008zm0-9.118h-342.16v-9.917l342.16 6.716zm0-9.118h-342.16v-9.915l342.16 6.424zm0-9.117h-342.16v-9.915l342.16 6.132zm0-9.118h-342.16v-9.914l342.16 5.84zm0-9.117h-342.16v-9.913l342.16 5.548zm0-9.118h-342.16v-9.912l342.16 5.256zm0-9.118h-342.16v-9.911l342.16 4.964zm0-9.117h-342.16v-9.91l342.16 4.672zm0-9.118h-342.16v-9.909l342.16 4.38zm0-9.118h-342.16v-9.908l342.16 4.089zm0-9.117h-342.16v-9.907l342.16 3.796zm0-9.118h-342.16v-9.906l342.16 3.504zm0-9.117h-342.16v-9.905l342.16 3.212zm0-9.118h-342.16v-9.904l342.16 2.92zm0-9.118h-342.16v-9.903l342.16 2.628zm0-9.117h-342.16v-9.902l342.16 2.336zm0-9.118h-342.16v-9.901l342.16 2.044zm0-9.117h-342.16v-9.901l342.16 1.752zm0-9.118h-342.16v-9.899l342.16 1.46zm0-9.118h-342.16v-9.898l342.16 1.168zm0-9.117h-342.16v-9.898l342.16.876zm0-9.118h-342.16v-9.896l342.16.584zm0-9.118h-342.16v-9.895l342.16.292zm0-9.117h-342.16v-9.895h342.16zm-684.32 310h342.16v-9.928l-342.16 9.929zm0-9.118h342.16v-9.926l-342.16 9.636zm0-9.117h342.16v-9.926l-342.16 9.344zm0-9.118h342.16v-9.925l-342.16 9.053zm0-9.118h342.16v-9.923l-342.16 8.76zm0-9.117h342.16v-9.923l-342.16 8.468zm0-9.118h342.16v-9.921l-342.16 8.176zm0-9.118h342.16v-9.92l-342.16 7.884zm0-9.117h342.16v-9.92l-342.16 7.592zm0-9.118h342.16v-9.918l-342.16 7.3zm0-9.117h342.16v-9.918l-342.16 7.008zm0-9.118h342.16v-9.917l-342.16 6.716zm0-9.118h342.16v-9.915l-342.16 6.424zm0-9.117h342.16v-9.915l-342.16 6.132zm0-9.118h342.16v-9.914l-342.16 5.84zm0-9.117h342.16v-9.913l-342.16 5.548zm0-9.118h342.16v-9.912l-342.16 5.256zm0-9.118h342.16v-9.911l-342.16 4.964zm0-9.117h342.16v-9.91l-342.16 4.672zm0-9.118h342.16v-9.909l-342.16 4.38zm0-9.118h342.16v-9.908l-342.16 4.089zm0-9.117h342.16v-9.907l-342.16 3.796zm0-9.118h342.16v-9.906l-342.16 3.504zm0-9.117h342.16v-9.905l-342.16 3.212zm0-9.118h342.16v-9.904l-342.16 2.92zm0-9.118h342.16v-9.903l-342.16 2.628zm0-9.117h342.16v-9.902l-342.16 2.336zm0-9.118h342.16v-9.901l-342.16 2.044zm0-9.117h342.16v-9.901l-342.16 1.752zm0-9.118h342.16v-9.899l-342.16 1.46zm0-9.118h342.16v-9.898l-342.16 1.168zm0-9.117h342.16v-9.898l-342.16.876zm0-9.118h342.16v-9.896l-342.16.584zm0-9.118h342.16v-9.895l-342.16.292zm0-9.117h342.16v-9.895h-342.16z" stop-color="#000000" style="paint-order:markers fill stroke"/></pattern><linearGradient id="linearGradient3" x1="34.58" x2="258.65" y1="170.44" y2="170.44" gradientTransform="matrix(1.0002 0 0 1.0293 -3.3979 -10.944)" gradientUnits="userSpaceOnUse" xlink:href="#swatch32"/><linearGradient id="linearGradient200" x1="129.91" x2="158.04" y1="160.03" y2="160.03" gradientTransform="matrix(1.3847 0 0 1.3847 -159.62 -94.019)" gradientUnits="userSpaceOnUse" xlink:href="#swatch32"/><linearGradient id="linearGradient199" x1="144.03" x2="155.36" y1="141.79" y2="141.79" gradientTransform="matrix(1.3847 0 0 1.3847 -159.62 -94.019)" gradientUnits="userSpaceOnUse" xlink:href="#swatch32"/><linearGradient id="linearGradient198" x1="129.61" x2="135.98" y1="145.87" y2="145.87" gradientTransform="matrix(1.3847 0 0 1.3847 -159.62 -94.019)" gradientUnits="userSpaceOnUse" xlink:href="#swatch32"/><linearGradient id="linearGradient197" x1="142.73" x2="150.29" y1="178.27" y2="178.27" gradientTransform="matrix(1.3847 0 0 1.3847 -159.62 -94.019)" gradientUnits="userSpaceOnUse" xlink:href="#swatch32"/><linearGradient id="linearGradient196" x1="126.83" x2="151.08" y1="189.05" y2="189.05" gradientTransform="matrix(1.3847 0 0 1.3847 -159.62 -94.019)" gradientUnits="userSpaceOnUse" xlink:href="#swatch32"/><linearGradient id="linearGradient195" x1="149.39" x2="159.63" y1="198.5" y2="198.5" gradientTransform="matrix(1.3847 0 0 1.3847 -159.62 -94.019)" gradientUnits="userSpaceOnUse" xlink:href="#swatch32"/><linearGradient id="linearGradient194" x1="152.08" x2="165.89" y1="169.62" y2="169.62" gradientTransform="matrix(1.3847 0 0 1.3847 -159.62 -94.019)" gradientUnits="userSpaceOnUse" xlink:href="#swatch32"/><linearGradient id="linearGradient193" x1="139.75" x2="145.12" y1="160.23" y2="160.23" gradientTransform="matrix(1.3847 0 0 1.3847 -159.62 -94.019)" gradientUnits="userSpaceOnUse" xlink:href="#swatch32"/><linearGradient id="linearGradient192" x1="139.95" x2="144.92" y1="162.12" y2="162.12" gradientTransform="matrix(1.0179 0 0 1.0288 -156.52 -33.021)" gradientUnits="userSpaceOnUse" xlink:href="#swatch32"/><linearGradient id="linearGradient191" x1="149.99" x2="155.76" y1="156.9" y2="156.9" gradientTransform="matrix(1.3303 .095994 -.099796 1.383 -136.89 -108.14)" gradientUnits="userSpaceOnUse" xlink:href="#swatch32"/><linearGradient id="linearGradient190" x1="160.63" x2="165.99" y1="151.48" y2="151.48" gradientTransform="matrix(.89022 0 1.0561e-8 .98284 -164.74 -18.546)" gradientUnits="userSpaceOnUse" xlink:href="#swatch32"/><linearGradient id="linearGradient189" x1="142.64" x2="154.17" y1="165.94" y2="165.94" gradientTransform="matrix(1.3818 -.088836 .088836 1.3818 -173.27 -82.043)" gradientUnits="userSpaceOnUse" xlink:href="#swatch32"/><linearGradient id="linearGradient188" x1="136.37" x2="142.93" y1="182.1" y2="182.1" gradientTransform="matrix(1.3847 0 0 1.3847 -159.62 -94.019)" gradientUnits="userSpaceOnUse" xlink:href="#swatch32"/><linearGradient id="linearGradient186" x1="125.46" x2="130.44" y1="63.081" y2="63.081" gradientTransform="matrix(1.2833 0 0 1.2833 -133.45 40.21)" gradientUnits="userSpaceOnUse" xlink:href="#swatch32"/><linearGradient id="linearGradient187" x1="137.39" x2="141.59" y1="61.999" y2="61.999" gradientTransform="matrix(1.2833 0 0 1.2833 -148.34 41.645)" gradientUnits="userSpaceOnUse" xlink:href="#swatch32"/><linearGradient id="linearGradient184" x1="125.46" x2="130.44" y1="63.081" y2="63.081" gradientTransform="matrix(-.98542 .67855 .67855 .98542 131.98 -32.515)" gradientUnits="userSpaceOnUse" xlink:href="#swatch32"/><linearGradient id="linearGradient185" x1="137.39" x2="141.59" y1="61.999" y2="61.999" gradientTransform="matrix(-.98542 .67855 .67855 .98542 144.17 -39.288)" gradientUnits="userSpaceOnUse" xlink:href="#swatch32"/><linearGradient id="linearGradient183" x1="134.98" x2="143.83" y1="200.73" y2="200.73" gradientTransform="matrix(1.3847 0 0 1.3847 -159.62 -94.019)" gradientUnits="userSpaceOnUse" xlink:href="#swatch32"/><linearGradient id="linearGradient87" x1="149.42" x2="158.06" y1="156.96" y2="156.96" gradientUnits="userSpaceOnUse"><stop id="stop87" stop-color="#b5a667" offset="0"/></linearGradient><linearGradient id="linearGradient28" x1="-126.04" x2="-66" y1="31.509" y2="31.509" gradientUnits="userSpaceOnUse" xlink:href="#swatch32"/><linearGradient id="linearGradient29" x1="-79.12" x2="-52.681" y1="32.105" y2="32.105" gradientTransform="translate(.42171)" gradientUnits="userSpaceOnUse" xlink:href="#swatch32"/><linearGradient id="linearGradient30" x1="-79.12" x2="-52.681" y1="32.105" y2="32.105" gradientTransform="matrix(-1 0 0 1 -192.52 -.012059)" gradientUnits="userSpaceOnUse" xlink:href="#swatch32"/><linearGradient id="linearGradient31" x1="-112.02" x2="-79.617" y1="75.393" y2="75.393" gradientUnits="userSpaceOnUse" xlink:href="#swatch31"/><linearGradient id="linearGradient5-4" x1="129.91" x2="158.04" y1="160.03" y2="160.03" gradientTransform="matrix(1.0056 0 0 1.0056 -390.08 -173.9)" gradientUnits="userSpaceOnUse" xlink:href="#swatch31"/><linearGradient id="linearGradient7-5" x1="144.03" x2="155.36" y1="141.79" y2="141.79" gradientTransform="matrix(1.0056 0 0 1.0056 -390.08 -173.9)" gradientUnits="userSpaceOnUse" xlink:href="#swatch31"/><linearGradient id="linearGradient8-1" x1="129.61" x2="135.98" y1="145.87" y2="145.87" gradientTransform="matrix(1.0056 0 0 1.0056 -390.08 -173.9)" gradientUnits="userSpaceOnUse" xlink:href="#swatch31"/><linearGradient id="linearGradient12-7" x1="142.73" x2="150.29" y1="178.27" y2="178.27" gradientTransform="matrix(1.0056 0 0 1.0056 -390.08 -173.9)" gradientUnits="userSpaceOnUse" xlink:href="#swatch31"/><linearGradient id="linearGradient34-5" x1="152.08" x2="165.89" y1="169.62" y2="169.62" gradientTransform="matrix(1.0056 0 0 1.0056 -390.08 -173.9)" gradientUnits="userSpaceOnUse" xlink:href="#swatch31"/><linearGradient id="linearGradient35-2" x1="139.75" x2="145.12" y1="160.23" y2="160.23" gradientTransform="matrix(1.0056 0 0 1.0056 -390.08 -173.9)" gradientUnits="userSpaceOnUse" xlink:href="#swatch31"/><linearGradient id="linearGradient36-7" x1="139.95" x2="144.92" y1="162.12" y2="162.12" gradientTransform="matrix(.73926 0 0 .74714 -332.61 -221.05)" gradientUnits="userSpaceOnUse" xlink:href="#swatch31"/><linearGradient id="linearGradient37-6" x1="149.99" x2="155.76" y1="156.9" y2="156.9" gradientTransform="matrix(.96613 .069714 -.072476 1.0044 -373.58 -184.15)" gradientUnits="userSpaceOnUse" xlink:href="#swatch31"/><linearGradient id="linearGradient38-1" x1="160.63" x2="165.99" y1="151.48" y2="151.48" gradientTransform="matrix(.64651 0 0 .71378 -306.87 -265.19)" gradientUnits="userSpaceOnUse" xlink:href="#swatch31"/><linearGradient id="linearGradient264" x1="142.64" x2="154.17" y1="165.94" y2="165.94" gradientTransform="matrix(.77717 -.099798 .099798 .77717 -372.27 -121.43)" gradientUnits="userSpaceOnUse" xlink:href="#swatch31"/><linearGradient id="linearGradient30-2" x1="136.37" x2="142.93" y1="182.1" y2="182.1" gradientTransform="matrix(1.0056 0 0 1.0056 -390.08 -173.9)" gradientUnits="userSpaceOnUse" xlink:href="#swatch31"/><linearGradient id="linearGradient46-2" x1="125.46" x2="130.44" y1="63.081" y2="63.081" gradientTransform="matrix(.93197 0 0 .93197 -371.08 -76.414)" gradientUnits="userSpaceOnUse" xlink:href="#swatch31"/><linearGradient id="linearGradient45-1" x1="137.39" x2="141.59" y1="61.999" y2="61.999" gradientTransform="matrix(.93197 0 0 .93197 -381.9 -75.372)" gradientUnits="userSpaceOnUse" xlink:href="#swatch31"/><linearGradient id="linearGradient47-6" x1="125.46" x2="130.44" y1="63.081" y2="63.081" gradientTransform="matrix(-.71565 .49279 .49279 .71565 -178.32 -129.23)" gradientUnits="userSpaceOnUse" xlink:href="#swatch31"/><linearGradient id="linearGradient48-8" x1="137.39" x2="141.59" y1="61.999" y2="61.999" gradientTransform="matrix(-.71565 .49279 .49279 .71565 -169.46 -134.15)" gradientUnits="userSpaceOnUse" xlink:href="#swatch31"/><linearGradient id="linearGradient32" x1="-303.91" x2="-168.12" y1="100.51" y2="100.51" gradientTransform="matrix(1.0521 0 0 .56173 8.7804 46.228)" gradientUnits="userSpaceOnUse" xlink:href="#swatch32"/><linearGradient id="linearGradient36" x1="-303.91" x2="-168.12" y1="100.51" y2="100.51" gradientTransform="matrix(1.0521 0 0 .56173 -10.949 182.33)" gradientUnits="userSpaceOnUse" xlink:href="#swatch32"/><linearGradient id="linearGradient37" x1="-112.02" x2="-79.617" y1="75.393" y2="75.393" gradientTransform="translate(-19.729 136.1)" gradientUnits="userSpaceOnUse" xlink:href="#swatch31"/><linearGradient id="linearGradient38" x1="-79.12" x2="-52.681" y1="32.105" y2="32.105" gradientTransform="matrix(-1 0 0 1 -212.25 136.09)" gradientUnits="userSpaceOnUse" xlink:href="#swatch32"/><linearGradient id="linearGradient39" x1="-79.12" x2="-52.681" y1="32.105" y2="32.105" gradientTransform="translate(-19.308 136.1)" gradientUnits="userSpaceOnUse" xlink:href="#swatch32"/><linearGradient id="linearGradient40" x1="-126.04" x2="-66" y1="31.509" y2="31.509" gradientTransform="translate(-19.729 136.1)" gradientUnits="userSpaceOnUse" xlink:href="#swatch32"/></defs><g id="layer1"><path id="edit_color__stena" d="m124.2 186.37c-29.416-1.3067-54.704-4.7158-73.386-9.8932-4.674-1.2953-12.404-3.8482-13.768-4.5473-.5649-.28942-.90995-.96406-1.6289-3.1848-6.2992-19.457-7.4312-43.23-3.0896-64.882 3.4028-16.97 9.332-30.793 18.443-42.997 3.2779-4.3909 10.467-11.699 14.326-14.564 13.818-10.257 34.017-16.807 59.82-19.397 6.0982-.61228 23.86-.86301 30.637-.43248 27.31 1.7349 51.463 8.3014 67.638 18.388 16.153 10.073 27.967 27.583 33.523 49.686 5.8066 23.099 4.4263 49.198-3.755 71.006-.72663 1.9368-1.6236 4.122-1.9932 4.856-.64976 1.2902-.7697 1.3721-3.6132 2.4669-17.48 6.7301-41.967 11.011-74.925 13.099-8.1777.518-39.667.77704-48.228.39675z" fill="#cff09f" stroke-width="1.0435"/><g id="edit_pattern__stena__prouzky"><path id="path1-4" d="m124.4 188.98c-29.416-1.3067-54.704-4.7158-73.386-9.8932-4.674-1.2953-12.404-3.8482-13.768-4.5473-.5649-.28942-.90995-.96406-1.6289-3.1848-6.2992-19.457-7.4312-43.23-3.0896-64.882 3.4028-16.97 9.332-30.793 18.443-42.997 3.2779-4.3909 10.467-11.699 14.326-14.564 13.818-10.257 34.017-16.807 59.82-19.397 6.0982-.61228 23.86-.86301 30.637-.43248 27.31 1.7349 51.463 8.3014 67.638 18.388 16.153 10.073 27.967 27.583 33.523 49.686 5.8066 23.099 4.4263 49.198-3.755 71.006-.72663 1.9368-1.6236 4.122-1.9932 4.856-.64976 1.2902-.7697 1.3721-3.6132 2.4669-17.48 6.7301-41.967 11.011-74.925 13.099-8.1777.518-39.667.77704-48.228.39675z" fill="url(#pattern8)" stroke-width="1.0435"/></g><g id="edit_pattern__stena__tapeta"><path id="vvr" d="m124.36 188.05c-29.416-1.3067-54.704-4.7158-73.386-9.8932-4.674-1.2953-12.404-3.8482-13.768-4.5473-.5649-.28942-.90995-.96406-1.6289-3.1848-6.2992-19.457-7.4312-43.23-3.0896-64.882 3.4028-16.97 9.332-30.793 18.443-42.997 3.2779-4.3909 10.467-11.699 14.326-14.564 13.818-10.257 34.017-16.807 59.82-19.397 6.0982-.61228 23.86-.86301 30.637-.43248 27.31 1.7349 51.463 8.3014 67.638 18.388 16.153 10.073 27.967 27.583 33.523 49.686 5.8066 23.099 4.4263 49.198-3.755 71.006-.72663 1.9368-1.6236 4.122-1.9932 4.856-.64976 1.2902-.7697 1.3721-3.6132 2.4669-17.48 6.7301-41.967 11.011-74.925 13.099-8.1777.518-39.667.77704-48.228.39675z" fill="url(#pattern28)" stroke-width="1.0435"/></g><g id="edit_pattern__stena__obdelniky" transform="translate(256.05 23.458)"><path id="path1-4-1" d="m-131.25 165.44c-29.416-1.3067-54.704-4.7158-73.386-9.8932-4.674-1.2953-12.404-3.8482-13.768-4.5473-.5649-.28942-.90995-.96406-1.6289-3.1848-6.2992-19.457-7.4312-43.23-3.0896-64.882 3.4028-16.97 9.332-30.793 18.443-42.997 3.2779-4.3909 10.467-11.699 14.326-14.564 13.818-10.257 34.017-16.807 59.82-19.397 6.0982-.61228 23.86-.86301 30.637-.43248 27.31 1.7349 51.463 8.3014 67.638 18.388 16.153 10.073 27.967 27.583 33.523 49.686 5.8066 23.099 4.4263 49.198-3.755 71.006-.72663 1.9368-1.6236 4.122-1.9932 4.856-.64976 1.2902-.7697 1.3721-3.6132 2.4669-17.48 6.7301-41.967 11.011-74.925 13.099-8.1777.518-39.667.77704-48.228.39675z" fill="url(#pattern23)" stroke-width="1.0435"/></g><path id="fixed__obrys_komory" d="m34.42 177.06c-13.657-37.24-9.105-95.852 25.689-126.29 37.07-32.706 135.27-30.44 172.67 1.6191 33.168 28.497 37.395 86.461 19.511 124.67-47.151 21.049-169.42 20.725-217.87 0z" fill="none" stroke="#2f1c12" stroke-linejoin="round" stroke-width="4.543"/></g><g id="layer11"><path id="edit_color__koberec" d="m133.79 191.48c-35.273-1.068-66.195-5.9563-91.262-14.428-4.7754-1.6138-5.1178-1.7789-6.286-3.0316-2.4144-2.589-3.0211-4.6425-2.0429-6.9147 5.359-12.448 60.492-22.341 124.49-22.338 42.744.002 74.724 4.4789 88.267 12.357 2.7536 1.6017 5.3936 4.1706 6.192 6.025 1.4396 3.3439.20491 7.0132-3.7729 11.212l-2.1984 2.3207-5.1037 1.6155c-20.557 6.5069-43.175 10.522-69.646 12.364-12.116.8431-27.23 1.1629-38.639.81745z" fill="#eaad76" stroke-width="1.0435"/><path id="fixed_vnejsi_tvar__koberec" d="m36.979 176c53.591 20.415 149.23 22.908 210.5 1.4468 57.896-50.137-253.74-38.683-210.5-1.4468z" fill="none" stroke="url(#linearGradient3)" stroke-width="1.3908"/></g><g id="layer17"><path id="edit_color__podlozka" d="m88.268 157.65c10.055 1.1468 32.337 19.8 45.878 20.024l-14.413 12.769c-13.181-1.1411-30.793-18.5-44.542-20.844z" fill="#3f6c78" stroke="#000" stroke-linecap="round" stroke-width=".5557"/></g><g id="layer13"><g id="g87" transform="translate(38.363 -27.338)"><path id="path163" d="m59.22 123.58c15.98 18.497-33.578 34.325-38.95 7.9827 5.2928-32.199 40.701-21.551 38.95-7.9827z" fill="#464646" stroke="url(#linearGradient200)" stroke-width=".93521"/><path id="path164" d="m39.814 110.09c-.99535-4.1748 2.4956-8.3497 4.9548-12.525 2.5566-2.217 4.3294-5.3602 10.735-3.0279.76625 2.8327-.27904 5.1657-10.047 5.0924-2.3103 3.1844-4.4269 6.4172-3.8537 10.322z" fill="#494949" stroke="url(#linearGradient199)" stroke-width=".93521"/><path id="path165" d="m26.739 117.11c-4.0491-3.5202-5.3553-7.6281-4.2666-12.249 4.1917-1.8553 7.1095-4.1656 6.1934-7.845-4.0125-.12796-7.6906.49666-8.8085 6.8816-.92463 5.3199.0742 10.414 5.3677 15.002z" fill="#494949" stroke="url(#linearGradient198)" stroke-width=".93521"/><path id="path166" d="m39.372 145.55c-9.1522 9.9233.7289 14.55 6.312 14.43 6.6435-.14846 7.4002-11.764 1.2199-15.396-4.5857 1.2134-3.3822.98656-7.5319.96524z" fill="#494949" stroke="url(#linearGradient197)" stroke-width=".93521"/><path id="path167" d="m49.586 159.09c6.4871 16.669-18.336 30.901-33.582 20.507-2.6022-1.704-4.8648-13.995 3.7161-19.819.79726-.94066 7.0236-6.0348 14.727-1.9269l1.9269-1.9268c.94801 2.3657 8.884 6.1792 13.213 3.1656z" fill="#494949" stroke="url(#linearGradient196)" stroke-width=".93521"/><path id="path168" d="m48.209 173.68c3.9896 4.5513 2.9274 11.628-1.2263 19.303.65973 3.1737 13.755 2.1475 14.11.8073-.21091-3.3169-4.7531-5.2678-8.7551-4.4206 3.2261-5.7348 2.9186-12.433-1.9269-20.37z" fill="#494949" stroke="url(#linearGradient195)" stroke-width=".93521"/><path id="path169" d="m49.707 147.04c4.3613.80991 6.5927 3.5466 7.5598 6.4539-1.0338 5.8082-5.8012 9.823-4.3504 8.4008 6.3998-.90229.00083 6.6898-2.9372 1.1362-.68613-5.2303 9.0762-8.7945 1.1132-11.833z" fill="#494949" stroke="url(#linearGradient194)" stroke-width=".93521"/><path id="path170" d="m34.308 133.62c-2.5285-.75449-6.5693-7.9201-.41291-11.561 1.9692-.72611 5.7338-.0478 7.1533 5.3695.33107 1.1141.61878 6.3991-6.7404 6.1917z" fill="#fff" stroke="url(#linearGradient193)" stroke-width=".93521"/><ellipse id="ellipse170" transform="matrix(.93323 -.35928 .35439 .9351 0 0)" cx="-11.524" cy="133.76" rx="2.5295" ry="3.4768" stroke="url(#linearGradient192)" stroke-width=".93522"/><path id="path171" d="m50.643 128.93c-6.8292-1.1823-5.344-9.1905-2.8721-10.338 1.319-.98948 4.5806-.90587 6.529 2.7682 1.1656 2.585.61913 3.3645.0825 6.2243z" fill="#fff" stroke="url(#linearGradient191)" stroke-width=".82666"/><ellipse id="ellipse171" transform="matrix(.79748 -.60334 .49598 .86833 0 0)" cx="-19.362" cy="130.34" rx="2.3891" ry="3.0285" stroke="url(#linearGradient190)" stroke-width=".81467"/><path id="path172" d="m39.698 137.53c4.8887.26926 7.115 3.236 12.254-2.5234l-.3445 1.2264c-2.5826 8.4264-8.0399 3.6263-11.909 1.2971z" fill="#b9031e" stroke="url(#linearGradient189)" stroke-width=".93521"/><circle id="circle172" cx="35.228" cy="127.31" r=".62444" fill="#fff" stroke-width=".46761"/><ellipse id="ellipse172" transform="rotate(4.1272)" cx="56.944" cy="119.34" rx=".50942" ry=".49298" fill="#fff" stroke-width=".37526"/><ellipse id="ellipse173" transform="rotate(4.1272)" cx="57.686" cy="120" rx=".19719" ry=".16433" fill="#fff" stroke-width=".1348"/><ellipse id="ellipse174" cx="36.247" cy="127.97" rx=".19719" ry=".16433" fill="#fff" stroke-width=".1348"/><path id="path174" d="m34.784 163.24c-10.422-8.1063-7.2017-10.491-5.568-12.271 4.5315-2.5841 4.4106-2.9402 8.9636-3.9764 0 0-1.9695 2.7706-3.3969 4.5026l-2.8141 3.3276 3.5785 4.5419c2.3809-.16072 4.1971.44493 1.514 7.1569-5.7221 1.6651-7.1382.10063-7.0193-2.615-.50114-3.3698 2.7275-1.2502 4.7422-.66652z" fill="#494949" stroke="url(#linearGradient188)" stroke-width=".93521"/><path id="path175" d="m27.715 121.59c.80306-2.9181 2.6349-3.77 5.0384-2.9975.88707.76524-1.075.046-2.7761 1.0896-1.7026 1.0446-2.5388 3.0547-2.2623 1.9079z" fill="url(#linearGradient186)" stroke="url(#linearGradient187)" stroke-width=".51331"/><path id="path176" d="m51.249 115.19c-2.1596-1.8161-4.0168-1.5018-5.4539.36231-.27654 1.0567.84971-.53318 2.7079-.63124 1.8598-.098 3.5647 1.0033 2.746.26888z" fill="url(#linearGradient184)" stroke="url(#linearGradient185)" stroke-width=".47858"/><path id="path177" d="m35.381 133.74c-1.4414.10275-1.2244.12749-2.8045.50753" fill="none" stroke="#000" stroke-linecap="round" stroke-linejoin="bevel" stroke-width=".43487"/><path id="path178" d="m50.774 129.09c2.8992-.72918 1.9315-1.3883 4.2736-1.3325" fill="none" stroke="#000" stroke-linecap="round" stroke-linejoin="bevel" stroke-width=".34135"/><path id="path179" d="m21.431 158.59c-9.4675 15.606-.46659 21.514 11.028 24.188" fill="none" stroke="#000" stroke-linecap="round" stroke-linejoin="bevel" stroke-width=".74817"/><path id="path180" d="m27.636 156.46c-3.0127 8.3226-8.684 20.673 16.236 20.837" fill="none" stroke="#000" stroke-linecap="round" stroke-linejoin="bevel" stroke-width=".74817"/><path id="path181" d="m37.624 165.07c-1.6711 3.6137 7.5284 7.9116 11.992 4.462" fill="none" stroke="#000" stroke-linecap="round" stroke-linejoin="bevel" stroke-width=".74817"/><path id="path182" d="m27.881 193.52c8.6204-10.347 5.346-14.073 6.7029-20.257l3.0279-.55053c.33135 6.016.23782 11.942-3.7161 18.305 3.7496.30854 7.1937 3.1673 5.1828 4.6548-2.3436 3.3486-13.369-.0658-11.198-2.1528z" fill="#494949" stroke="url(#linearGradient183)" stroke-width=".93521"/></g><g id="layer14" fill="#901328" stroke="#000" stroke-linecap="round"><path id="path260" transform="translate(38.363 -27.338)" d="m24.882 119.17c-2.3449 2.6761-3.0467 5.3118-3.5147 7.6611l30.615-13.654c-2.2229-1.1092-3.9928-2.4212-6.8626-2.4523z" stroke-width="1.0227"/><path id="path263" transform="translate(38.363 -27.338)" d="m31.822 160.71c-.30357.63023-.032.94039.60084 1.0796l2.9906-3.1536c-.2878-.26124-.51695-.57023-.88848-.57756z" stroke-width=".17858"/><path id="path264" transform="translate(38.363 -27.338)" d="m53.699 161.41c.34082-.0924.78479-.6171.71563-.84012l-2.9458-1.9137c-.35402.15977-.46365.45163-.40799.7864z" stroke-width=".15536"/></g></g><g id="edit_color__cinky" transform="translate(48.042 -19.696)" fill="#901328" stroke="#000" stroke-linecap="round" stroke-width=".93"><circle id="cd" transform="rotate(-9.2175)" cx="38.885" cy="188.97" r="3.84"/><circle id="vd" transform="rotate(-9.2175)" cx="51.932" cy="188.97" r="3.84"/><rect id="F_" transform="rotate(-9.2175)" x="42.972" y="188.19" width="4.8722" height="1.8993"/><circle id="tn" transform="rotate(14.289)" cx="112.97" cy="138.73" r="3.84"/><circle id="FV" transform="rotate(14.289)" cx="126.02" cy="138.73" r="3.84"/><rect id="VD" transform="rotate(14.289)" x="117.06" y="137.95" width="4.8722" height="1.8993"/></g><g id="layer15"><g id="g84" transform="translate(64.621 -37.089)" stroke="#000" stroke-linecap="round" stroke-width=".93"><ellipse id="edit_color__mic" cx="144.92" cy="187.17" rx="11.729" ry="10.834" fill="#6f6f6f"/><path id="path2" d="m137.33 179.13c3.1166 5.6142 10.765 10.157 19.144 8.6168" fill="none"/><path id="path3-0" d="m133.66 183.92c3.6884 6.3917 12.372 11.511 21.075 9.1173" fill="none"/></g></g><g id="layer16"><g id="g85" transform="translate(7.0316 6.0569)" stroke="#000" stroke-linecap="round"><path id="path78" d="m157.97 156.04c13.389-3.9424 18.057-1.9266 16.934 4.0448-5.1938 5.3739-8.0516 2.9864-8.521.59324-1.2743-3.1441 5.3608-2.9747 8.4131-.59324 3.064 3.9958.0674 6.5135-2.5886 9.1142-6.2947 7.3251.86077 9.5426 5.0155 8.4671l.43144-.32359" fill="none" stroke-width="1.4272"/><path id="path79" d="m150.97 155.67 5.0646-.92655c.54716.75337 1.6817.0382 1.1865 3.3976l-5.6088 1.0786c-2.2169-.85419-1.5082-2.4152-.6423-3.5497z" fill="url(#linearGradient87)" stroke-width="1.4272"/><path id="path80" d="m176.8 175.72 5.0695-2.9662c1.126-.0293 2.31-.19665 2.319 2.4269l-5.3391 3.6673c-1.8713-.84463-2.7632-1.8525-2.0494-3.128z" fill="#b5a667" stroke-width="1.4272"/><path id="path81" d="m151.39 156.45c1.5629.9137 1.1568 1.8274.70285 2.7411" fill="none" stroke-width=".93"/><path id="path82" d="m177.54 175.64c.89354.46396 2.3498-.43874 2.0382 2.952" fill="none" stroke-width=".93"/></g></g><text id="text32" x="-185.5256" y="30.912651" fill="#fae04b" font-size="3.175px" stroke-linecap="round" stroke-width="1.18" xml:space="preserve"><tspan id="tspan32" x="-185.5256" y="30.912651" stroke-width="1.18"/></text><g id="g32" transform="matrix(.29725 0 0 .29725 44.692 74.019)"><g id="edit_variant__pohar__nejenpohar" transform="translate(765.09 6.6879)"><g id="g31" transform="translate(-147.11 12.723)" fill="#fae04b" stroke-linecap="round" stroke-width="1.18"><path id="path28" d="m-126.04-2.3855 60.036.59639c-4.6852 49.002-15.819 65.76-30.018 67.193-22.584-5.9385-26.642-36.412-30.018-67.789z" stroke="url(#linearGradient28)"/><path id="path29" d="m-67.566 10.735c5.4609 1.0215 16.784-2.925 15.307 3.9759-10.314 48.942-17.952 33.661-26.44 38.765l2.7831-5.7651c13.073 2.9656 14.742-16.568 18.488-32.006h-9.9398z" stroke="url(#linearGradient29)"/><path id="path30" d="m-124.53 10.723c-5.4609 1.0215-16.784-2.9251-15.307 3.9759 10.314 48.942 17.952 33.661 26.44 38.765l-2.7831-5.7651c-13.073 2.9656-14.742-16.568-18.488-32.006h9.9398z" stroke="url(#linearGradient30)"/><path id="path31" d="m-100.49 64.012c-.83268 6.3485-.44271 12.878-3.5783 18.886-1.7662-.05194-4.2592-.54276-4.2741 1.0934-4.4557-.1127-3.4647 1.2498-3.6777 2.2861l32.404.49699c1.6087-3.0488-2.3828-2.5712-3.7771-2.7008.01578-1.4615-.7043-1.4226-4.1747-1.1757-3.0019-5.5844-3.0934-12.312-3.5783-18.886-2.505 1.581-5.2631 2.4971-9.3434 0z" stroke="url(#linearGradient31)"/></g><text id="text31" x="-252.72496" y="51.720814" fill="#080700" font-size="30.086px" stroke-linecap="round" stroke-width="11.181" xml:space="preserve"><tspan id="tspan31" x="-252.72496" y="51.720814" fill="#080700" stroke-width="11.181">1</tspan></text><path id="path5-9" d="m-231.16-15.869c11.605 13.433-24.386 24.928-28.287 5.7973 3.8438-23.384 29.559-15.651 28.287-5.7973z" fill="#464646" stroke="url(#linearGradient5-4)" stroke-width=".67919"/><path id="path7-2" d="m-245.25-25.665c-.72287-3.0319 1.8124-6.0639 3.5983-9.0958 1.8567-1.61 3.1441-3.8928 7.7964-2.199.55647 2.0572-.20266 3.7515-7.2966 3.6983-1.6778 2.3126-3.215 4.6604-2.7987 7.4966z" fill="#494949" stroke="url(#linearGradient7-5)" stroke-width=".67919"/><path id="path8-7" d="m-254.75-20.567c-2.9406-2.5565-3.8892-5.5399-3.0986-8.8959 3.0442-1.3474 5.1632-3.0252 4.4979-5.6974-2.9141-.09292-5.5852.3607-6.397 4.9977-.6715 3.8635.0539 7.5627 3.8982 10.895z" fill="#494949" stroke="url(#linearGradient8-1)" stroke-width=".67919"/><path id="path12-9" d="m-245.57.090786c-6.6466 7.2067.52937 10.567 4.584 10.48 4.8248-.10772 5.3743-8.5436.88593-11.181-3.3303.88124-2.4563.71649-5.47.70099z" fill="#494949" stroke="url(#linearGradient12-7)" stroke-width=".67919"/><path id="path33-3" d="m-237.53 1.3902c5.6974-.36653 10.261-2.9074 11.966-8.8635-1.5146-1.0329-.15406-2.0657.8996-3.0986 3.0247-.36885 2.2919 1.5168 1.3993 3.4984-2.2168 5.5579-6.1256 9.6909-13.394 10.995z" fill="#494949" stroke="url(#linearGradient34-5)" stroke-width=".67919"/><path id="path34-1" d="m-249.25-8.5728c-1.8363-.54794-4.7709-5.7519-.29987-8.3961 1.4301-.52732 4.1641-.03471 5.195 3.8995.24042.8091.44938 4.6472-4.8951 4.4966z" fill="#fff" stroke="url(#linearGradient35-2)" stroke-width=".67919"/><ellipse id="path36-2" transform="matrix(.93323 -.35928 .35439 .9351 0 0)" cx="-227.31" cy="-99.925" rx="1.837" ry="2.525" stroke="url(#linearGradient36-7)" stroke-width=".67919"/><path id="path37-3" d="m-237.39-11.982c-4.9597-.85863-3.881-6.6745-2.0858-7.5077.95788-.7186 3.3266-.65788 4.7416 2.0104.84648 1.8773.44963 2.4434.06 4.5203z" fill="#fff" stroke="url(#linearGradient37-6)" stroke-width=".60036"/><ellipse id="path38-3" transform="matrix(.79748 -.60334 .49598 .86833 0 0)" cx="-201.29" cy="-157.07" rx="1.7351" ry="2.1994" stroke="url(#linearGradient38-1)" stroke-width=".59164"/><path id="path96-9" d="m-244.76-5.9589c2.7995.05374 6.3154 1.8202 8.7526-2.7729l-.84431 1.9479c-.63356 5.6845-5.7766 2.2317-7.9083.82506z" fill="#b9031e" stroke="url(#linearGradient264)" stroke-width=".52922"/><circle id="path40-1" cx="-248.58" cy="-13.159" r=".4535" fill="#fff" stroke-width=".33959"/><ellipse id="circle40-1" transform="rotate(4.1272)" cx="-239.7" cy="1.0587" rx=".36996" ry=".35802" fill="#fff" stroke-width=".27253"/><ellipse id="ellipse40-3" transform="rotate(4.1272)" cx="-239.16" cy="1.5344" rx=".14321" ry=".11934" fill="#fff" stroke-width=".097897"/><ellipse id="ellipse41-8" cx="-247.84" cy="-12.681" rx=".14321" ry=".11934" fill="#fff" stroke-width=".097897"/><path id="path22-7" d="m-248.9 12.933c-7.5687-5.8871-5.2302-7.6187-4.0437-8.9116 3.2909-1.8767 3.2031-2.1353 6.5097-2.8879 0 0-1.4303 2.0121-2.4669 3.2699l-2.0437 2.4166 2.5988 3.2985c1.7291-.1167 3.0481.32313 1.0995 5.1976-4.1556 1.2093-5.1841.0731-5.0977-1.8991-.36394-2.4473 1.9808-.90796 3.444-.48405z" fill="#494949" stroke="url(#linearGradient30-2)" stroke-width=".67919"/><path id="path43-4" d="m-254.04-17.313c.58321-2.1192 1.9136-2.738 3.6591-2.1769.64421.55574-.78069.03328-2.0161.7913-1.2365.75867-1.8437 2.2185-1.643 1.3856z" fill="url(#linearGradient46-2)" stroke="url(#linearGradient45-1)" stroke-width=".37279"/><path id="path46-2" d="m-236.95-21.958c-1.5684-1.3189-2.9171-1.0906-3.9608.26313-.20085.76739.61709-.38722 1.9666-.45844 1.3506-.07124 2.5888.72865 1.9943.19529z" fill="url(#linearGradient47-6)" stroke="url(#linearGradient48-8)" stroke-width=".34756"/><path id="path54-7" d="m-248.47-8.4881c-1.0468.07457-.88921.0926-2.0368.36858" fill="none" stroke="#000" stroke-linecap="round" stroke-linejoin="bevel" stroke-width=".31582"/><path id="path55-9" d="m-237.29-11.863c2.1055-.52957 1.4027-1.0082 3.1037-.9677" fill="none" stroke="#000" stroke-linecap="round" stroke-linejoin="bevel" stroke-width=".2479"/><rect id="rect32" x="-310.96" y="99.922" width="142.86" height="5.5274" fill="#775314" stroke="url(#linearGradient32)" stroke-linecap="round" stroke-width="1.3548"/></g><g id="edit_variant__pohar__pohar" transform="translate(784.82 -129.41)" stroke-linecap="round"><path id="path32" transform="translate(-147.11 12.723)" d="m-145.77 133.71 60.036.59638c-4.6852 49.002-15.819 65.76-30.018 67.193-22.584-5.9385-26.642-36.412-30.018-67.789z" fill="#fae04b" stroke="url(#linearGradient40)" stroke-width="1.18"/><path id="path34" transform="translate(-147.11 12.723)" d="m-87.296 146.83c5.4609 1.0215 16.784-2.925 15.307 3.9759-10.314 48.942-17.952 33.661-26.44 38.765l2.7831-5.7651c13.073 2.9656 14.742-16.568 18.488-32.006h-9.9398z" fill="#fae04b" stroke="url(#linearGradient39)" stroke-width="1.18"/><path id="path35" transform="translate(-147.11 12.723)" d="m-144.26 146.82c-5.4609 1.0215-16.784-2.925-15.307 3.9759 10.314 48.942 17.952 33.661 26.44 38.765l-2.7831-5.7651c-13.073 2.9656-14.742-16.568-18.488-32.006h9.9398z" fill="#fae04b" stroke="url(#linearGradient38)" stroke-width="1.18"/><path id="path36" transform="translate(-147.11 12.723)" d="m-120.22 200.11c-.83268 6.3485-.44271 12.878-3.5783 18.886-1.7662-.0519-4.2592-.54276-4.2741 1.0934-4.4557-.1127-3.4647 1.2498-3.6777 2.2862l32.404.49698c1.6087-3.0488-2.3828-2.5712-3.7771-2.7008.0158-1.4615-.7043-1.4226-4.1747-1.1757-3.0019-5.5844-3.0934-12.312-3.5783-18.886-2.505 1.581-5.2631 2.4971-9.3434 0z" fill="#fae04b" stroke="url(#linearGradient37)" stroke-width="1.18"/><text id="text36" x="-272.45422" y="187.8194" fill="#080700" font-size="30.086px" stroke-width="11.181" xml:space="preserve"><tspan id="tspan36" x="-272.45422" y="187.8194" fill="#080700" stroke-width="11.181">1</tspan></text><rect id="rect36" x="-330.69" y="236.02" width="142.86" height="5.5274" fill="#775314" stroke="url(#linearGradient36)" stroke-width="1.3548"/></g></g></svg>
