<?xml version="1.0" encoding="UTF-8" standalone="no"?>
<!-- Created with Inkscape (http://www.inkscape.org/) -->

<svg
   width="297mm"
   height="210mm"
   viewBox="0 0 297 210"
   version="1.1"
   id="svg1"
   inkscape:version="1.4.2 (f4327f4, 2025-05-13)"
   sodipodi:docname="Sportovec 2.svg"
   xmlns:inkscape="http://www.inkscape.org/namespaces/inkscape"
   xmlns:sodipodi="http://sodipodi.sourceforge.net/DTD/sodipodi-0.dtd"
   xmlns:xlink="http://www.w3.org/1999/xlink"
   xmlns="http://www.w3.org/2000/svg"
   xmlns:svg="http://www.w3.org/2000/svg">
  <sodipodi:namedview
     id="namedview1"
     pagecolor="#ffffff"
     bordercolor="#000000"
     borderopacity="0.25"
     inkscape:showpageshadow="2"
     inkscape:pageopacity="0.0"
     inkscape:pagecheckerboard="0"
     inkscape:deskcolor="#d1d1d1"
     inkscape:document-units="mm"
     inkscape:zoom="0.66546717"
     inkscape:cx="619.11394"
     inkscape:cy="362.90295"
     inkscape:window-width="1920"
     inkscape:window-height="1001"
     inkscape:window-x="-9"
     inkscape:window-y="-9"
     inkscape:window-maximized="1"
     inkscape:current-layer="svg1" />
  <defs
     id="defs1">
    <pattern
       inkscape:collect="always"
       xlink:href="#pattern12-9"
       preserveAspectRatio="xMidYMid"
       id="pattern12"
       patternTransform="translate(515,75)"
       x="0"
       y="0" />
    <pattern
       patternUnits="userSpaceOnUse"
       width="10"
       height="10"
       patternTransform="translate(515,75)"
       preserveAspectRatio="xMidYMid"
       style="fill:#2b2b2b"
       id="pattern12-9"
       inkscape:label="Circle fill 2"
       inkscape:collect="always"
       inkscape:isstock="true">
      <path
         style="stroke-width:4.8561;stroke-linecap:square;paint-order:stroke markers fill;stop-color:#000000"
         d="M 0,0 V 10 H 10 C 5,10 0,5 0,0 Z"
         id="path11-6"
         sodipodi:nodetypes="cccc" />
    </pattern>
    <linearGradient
       id="swatch1">
      <stop
         style="stop-color:#fefea0;stop-opacity:1;"
         offset="0"
         id="stop1" />
      <stop
         style="stop-color:#368b8b;stop-opacity:1;"
         offset="1"
         id="stop2" />
    </linearGradient>
    <linearGradient
       inkscape:collect="always"
       xlink:href="#swatch5"
       id="linearGradient3"
       x1="34.580078"
       y1="170.44022"
       x2="258.64774"
       y2="170.44022"
       gradientUnits="userSpaceOnUse"
       gradientTransform="matrix(1.0001915,0,0,1.029348,-3.3978765,-10.944421)" />
    <linearGradient
       id="swatch5"
       inkscape:swatch="solid">
      <stop
         style="stop-color:#000000;stop-opacity:1;"
         offset="0"
         id="stop5" />
    </linearGradient>
    <linearGradient
       inkscape:collect="always"
       xlink:href="#swatch5"
       id="linearGradient200"
       gradientUnits="userSpaceOnUse"
       gradientTransform="matrix(1.3846664,0,0,1.3846664,-159.61576,-94.019221)"
       x1="129.91264"
       y1="160.03012"
       x2="158.04218"
       y2="160.03012" />
    <linearGradient
       inkscape:collect="always"
       xlink:href="#swatch5"
       id="linearGradient199"
       gradientUnits="userSpaceOnUse"
       gradientTransform="matrix(1.3846664,0,0,1.3846664,-159.61576,-94.019221)"
       x1="144.02711"
       y1="141.79066"
       x2="155.35843"
       y2="141.79066" />
    <linearGradient
       inkscape:collect="always"
       xlink:href="#swatch5"
       id="linearGradient198"
       gradientUnits="userSpaceOnUse"
       gradientTransform="matrix(1.3846664,0,0,1.3846664,-159.61576,-94.019221)"
       x1="129.61446"
       y1="145.86597"
       x2="135.97591"
       y2="145.86597" />
    <linearGradient
       inkscape:collect="always"
       xlink:href="#swatch5"
       id="linearGradient197"
       gradientUnits="userSpaceOnUse"
       gradientTransform="matrix(1.3846664,0,0,1.3846664,-159.61576,-94.019221)"
       x1="142.73494"
       y1="178.26958"
       x2="150.28915"
       y2="178.26958" />
    <linearGradient
       inkscape:collect="always"
       xlink:href="#swatch5"
       id="linearGradient196"
       gradientUnits="userSpaceOnUse"
       gradientTransform="matrix(1.3846664,0,0,1.3846664,-159.61576,-94.019221)"
       x1="126.83132"
       y1="189.05421"
       x2="151.08434"
       y2="189.05421" />
    <linearGradient
       inkscape:collect="always"
       xlink:href="#swatch5"
       id="linearGradient195"
       gradientUnits="userSpaceOnUse"
       gradientTransform="matrix(1.3846664,0,0,1.3846664,-159.61576,-94.019221)"
       x1="149.39458"
       y1="198.49698"
       x2="159.63252"
       y2="198.49698" />
    <linearGradient
       inkscape:collect="always"
       xlink:href="#swatch5"
       id="linearGradient194"
       gradientUnits="userSpaceOnUse"
       gradientTransform="matrix(1.3846664,0,0,1.3846664,-159.61576,-94.019221)"
       x1="152.07831"
       y1="169.62198"
       x2="165.89458"
       y2="169.62198" />
    <linearGradient
       inkscape:collect="always"
       xlink:href="#swatch5"
       id="linearGradient193"
       gradientUnits="userSpaceOnUse"
       gradientTransform="matrix(1.3846664,0,0,1.3846664,-159.61576,-94.019221)"
       x1="139.75301"
       y1="160.22891"
       x2="145.12048"
       y2="160.22891" />
    <linearGradient
       inkscape:collect="always"
       xlink:href="#swatch5"
       id="linearGradient192"
       gradientUnits="userSpaceOnUse"
       gradientTransform="matrix(1.0179315,0,0,1.0287753,-156.51524,-33.021005)"
       x1="139.95181"
       y1="162.11746"
       x2="144.92169"
       y2="162.11746" />
    <linearGradient
       inkscape:collect="always"
       xlink:href="#swatch5"
       id="linearGradient191"
       gradientUnits="userSpaceOnUse"
       gradientTransform="matrix(1.3303262,0.0959935,-0.09979613,1.3830247,-136.893,-108.14173)"
       x1="149.99097"
       y1="156.89909"
       x2="155.75603"
       y2="156.89909" />
    <linearGradient
       inkscape:collect="always"
       xlink:href="#swatch5"
       id="linearGradient190"
       gradientUnits="userSpaceOnUse"
       gradientTransform="matrix(0.89021981,0,1.0560852e-8,0.98284063,-164.74387,-18.546451)"
       x1="160.6265"
       y1="151.48192"
       x2="165.99396"
       y2="151.48192" />
    <linearGradient
       inkscape:collect="always"
       xlink:href="#swatch5"
       id="linearGradient189"
       gradientUnits="userSpaceOnUse"
       gradientTransform="matrix(1.3818137,-0.08883585,0.08883585,1.3818137,-173.26733,-82.042521)"
       x1="142.63554"
       y1="165.94427"
       x2="154.16566"
       y2="165.94427" />
    <linearGradient
       inkscape:collect="always"
       xlink:href="#swatch5"
       id="linearGradient188"
       gradientUnits="userSpaceOnUse"
       gradientTransform="matrix(1.3846664,0,0,1.3846664,-159.61576,-94.019221)"
       x1="136.37349"
       y1="182.09639"
       x2="142.93373"
       y2="182.09639" />
    <linearGradient
       inkscape:collect="always"
       xlink:href="#swatch5"
       id="linearGradient186"
       gradientUnits="userSpaceOnUse"
       gradientTransform="matrix(1.2832784,0,0,1.2832784,-133.45055,40.210152)"
       x1="125.4618"
       y1="63.081219"
       x2="130.44073"
       y2="63.081219" />
    <linearGradient
       inkscape:collect="always"
       xlink:href="#swatch5"
       id="linearGradient187"
       gradientUnits="userSpaceOnUse"
       gradientTransform="matrix(1.2832784,0,0,1.2832784,-148.34256,41.645137)"
       x1="137.39232"
       y1="61.999245"
       x2="141.59187"
       y2="61.999245" />
    <linearGradient
       inkscape:collect="always"
       xlink:href="#swatch5"
       id="linearGradient184"
       gradientUnits="userSpaceOnUse"
       gradientTransform="matrix(-0.98542041,0.67854602,0.67854602,0.98542041,131.97627,-32.515389)"
       x1="125.4618"
       y1="63.081219"
       x2="130.44073"
       y2="63.081219" />
    <linearGradient
       inkscape:collect="always"
       xlink:href="#swatch5"
       id="linearGradient185"
       gradientUnits="userSpaceOnUse"
       gradientTransform="matrix(-0.98542041,0.67854602,0.67854602,0.98542041,144.1705,-39.287791)"
       x1="137.39232"
       y1="61.999245"
       x2="141.59187"
       y2="61.999245" />
    <linearGradient
       inkscape:collect="always"
       xlink:href="#swatch5"
       id="linearGradient183"
       gradientUnits="userSpaceOnUse"
       gradientTransform="matrix(1.3846664,0,0,1.3846664,-159.61576,-94.019221)"
       x1="134.98193"
       y1="200.73343"
       x2="143.82831"
       y2="200.73343" />
    <linearGradient
       inkscape:collect="always"
       xlink:href="#swatch87"
       id="linearGradient87"
       x1="149.41998"
       y1="156.96223"
       x2="158.05615"
       y2="156.96223"
       gradientUnits="userSpaceOnUse" />
    <linearGradient
       id="swatch87"
       inkscape:swatch="solid">
      <stop
         style="stop-color:#b5a667;stop-opacity:1;"
         offset="0"
         id="stop87" />
    </linearGradient>
    <linearGradient
       inkscape:collect="always"
       xlink:href="#swatch5"
       id="linearGradient63"
       x1="25.74844"
       y1="200.89146"
       x2="31.380911"
       y2="200.89146"
       gradientUnits="userSpaceOnUse"
       gradientTransform="matrix(1.4170656,0,0,0.99786029,-10.680345,0.43039887)" />
    <linearGradient
       inkscape:collect="always"
       xlink:href="#swatch5"
       id="linearGradient64"
       gradientUnits="userSpaceOnUse"
       x1="25.74844"
       y1="200.89146"
       x2="31.380911"
       y2="200.89146"
       gradientTransform="matrix(1.3848612,0,0,0.99801301,14.61023,0.21002265)" />
    <linearGradient
       inkscape:collect="always"
       xlink:href="#swatch5"
       id="linearGradient65"
       gradientUnits="userSpaceOnUse"
       gradientTransform="matrix(-0.00656525,1.4170504,-0.99784958,-0.00462308,243.40442,130.30602)"
       x1="25.74844"
       y1="200.89146"
       x2="31.380911"
       y2="200.89146" />
    <linearGradient
       inkscape:collect="always"
       xlink:href="#swatch5"
       id="linearGradient66"
       x1="177.55695"
       y1="252.38835"
       x2="284.8421"
       y2="252.38835"
       gradientUnits="userSpaceOnUse" />
    <linearGradient
       inkscape:collect="always"
       xlink:href="#swatch5"
       id="linearGradient67"
       x1="215.85577"
       y1="189.20853"
       x2="241.50751"
       y2="189.20853"
       gradientUnits="userSpaceOnUse" />
    <linearGradient
       inkscape:collect="always"
       xlink:href="#swatch5"
       id="linearGradient68"
       x1="228.15517"
       y1="146.79311"
       x2="229.67241"
       y2="146.79311"
       gradientUnits="userSpaceOnUse" />
    <linearGradient
       inkscape:collect="always"
       xlink:href="#swatch5"
       id="linearGradient69"
       x1="224.74138"
       y1="254.49429"
       x2="234.03448"
       y2="254.49429"
       gradientUnits="userSpaceOnUse"
       gradientTransform="matrix(1.4394176,0,0,1.3223053,-97.940275,-81.497856)" />
    <pattern
       inkscape:collect="always"
       xlink:href="#ap107"
       preserveAspectRatio="xMidYMid"
       id="pattern9"
       patternTransform="matrix(0.41,0,0,0.41,848.4236,536.37873)"
       x="0"
       y="0" />
    <pattern
       patternUnits="userSpaceOnUse"
       preserveAspectRatio="xMidYMid"
       width="265.55448"
       height="209.71514"
       patternTransform="translate(848.4236,536.37873) scale(0.2)"
       style="fill:#e4d2d2"
       id="ap107"
       inkscape:collect="always"
       inkscape:isstock="true"
       inkscape:label="ap107">
      <path
         id="path6935"
         style="font-variation-settings:normal;opacity:1;mix-blend-mode:normal;fill-opacity:1;stroke:none;stroke-width:8.38594;stroke-linecap:butt;stroke-linejoin:miter;stroke-miterlimit:4;stroke-dasharray:none;stroke-dashoffset:0;stroke-opacity:1;paint-order:markers fill stroke;stop-color:#000000;stop-opacity:1"
         d="m 256.64889,0.00831496 -20.12413,0.00755906 c 3.60809,3.03155908 7.00003,6.48514018 10.25821,10.30707398 6.67181,7.827137 12.72529,17.189216 18.75129,27.054803 V 23.902413 c -4.18987,-6.459175 -8.5697,-12.629745 -13.32816,-18.2121453 -1.30216,-1.5274583 -2.64749,-3.0011716 -4.01995,-4.4366362 1.84396,0.7162583 3.56565,1.2662173 5.15358,1.6791307 4.01866,1.2058583 9.15553,1.3626331 12.19453,1.4461228 V 0.68375433 C 262.56011,0.54013228 259.34653,0.26040945 256.64889,0.01020472 Z M 8.8666205,0.01587402 C 5.854148,0.60287244 2.6793449,0.61708346 0.00566929,0.68348976 V 4.3786583 c 3.71708981,0 8.73800311,-0.5691969 12.17000271,-1.4461229 0.0018,-4.913e-4 0.0038,4.536e-4 0.0076,0 0.80281,-0.2086299 1.641638,-0.4565291 2.512404,-0.7411275 0.0018,-6.048e-4 0.0038,5.669e-4 0.0076,0 0.869253,-0.2834646 1.769839,-0.6048 2.702362,-0.9688441 -0.383017,0.4019905 -0.762482,0.8099149 -1.139565,1.2195023 -0.01134,0.011339 -0.02268,0.034016 -0.04762,0.059339 -0.323906,0.3511181 -0.647471,0.7031811 -0.967635,1.0601197 -0.139843,0.1553386 -0.277417,0.3155906 -0.41624,0.4719496 -0.506343,0.5704063 -1.010305,1.1443276 -1.507502,1.728 C 13.035213,6.1031433 12.745965,6.4456819 12.456605,6.7907528 8.0302488,12.079786 3.9315024,17.84383 0.0047622,23.906003 c -0.01133858,-0.01134 0.01133859,0.02268 0,0.01134 v 13.420082 c 3.9675213,6.497461 7.9368189,13.226305 12.0842458,19.952541 0.04762,0.07106 0.08315,0.143622 0.122079,0.214678 0.196913,0.317858 0.396056,0.613077 0.594104,0.924926 0.329574,0.520592 0.665234,1.03404 0.998475,1.538154 0.372284,0.564434 0.74468,1.121764 1.121764,1.666771 0.09487,0.139843 0.196913,0.277418 0.294047,0.41624 10.377147,14.839975 22.198262,22.421896 31.938747,26.135546 13.069795,4.252611 26.21537,4.799509 39.469908,0 10.695534,-4.077203 23.928488,-12.788145 34.971968,-30.682469 10.49953,-17.012069 19.80181,-34.141039 30.91536,-47.178822 3.25781,-3.8215559 6.64963,-7.2757418 10.2581,-10.30707404 h -17.4155 c 0.034,0.0075591 0.0711,0.01133858 0.10658,0.02267717 0.0227,0.0037795 0.034,0.01133858 0.0593,0.01133858 0.41741,0.0831496 0.82772,0.16365354 1.23791,0.25133858 0.84786,0.18028347 1.68302,0.37455118 2.50012,0.58817008 0.587,0.15307083 1.16213,0.32012603 1.7342,0.48975123 -1.33108,1.3944944 -2.62734,2.8315086 -3.89114,4.3141417 -5.14091,6.0309547 -9.81071,12.7518617 -14.3088,19.7808377 -2.14987,-3.359206 -4.3429,-6.648567 -6.60586,-9.82303 v -0.0076 c -1.28402,-1.800907 -2.59151,-3.560655 -3.92806,-5.28223 v -0.0076 c -0.2657,-0.342803 -0.5348,-0.6842455 -0.80277,-1.0233826 l -0.008,-0.00756 C 121.18357,8.9857448 120.91315,8.6429038 120.6428,8.3073196 h -0.008 c -0.27024,-0.3356221 -0.54191,-0.6676158 -0.81468,-0.9984378 l -0.008,-0.00756 C 119.5406,6.9691843 119.26802,6.6361323 118.99291,6.308863 l -0.008,-0.00756 c -0.27629,-0.327307 -0.56088,-0.6510236 -0.83959,-0.9747779 l -0.008,-0.00756 c -0.27855,-0.3235275 -0.5585,-0.6498141 -0.83954,-0.9676346 l -0.008,-0.00756 c -0.89647,-1.0186204 -1.80578,-2.0153952 -2.73286,-2.9905134 1.78907,-0.52886925 3.66255,-0.97594956 5.60704,-1.34199681 h -17.40325 c 0.5941,0.49802835 1.18106,1.01030551 1.76474,1.53195591 8.96923,8.0071559 16.62455,18.7652028 24.07056,30.6457318 -1.22449,1.997972 -2.44838,4.005468 -3.66456,6.029896 -0.31785,-0.534803 -0.64747,-1.07554 -0.9688,-1.605467 -1.64141,-2.697147 -3.34912,-5.345349 -5.15361,-7.905071 v -0.0076 c -0.22526,-0.318993 -0.45177,-0.633222 -0.68066,-0.949833 v -0.0076 c -0.22753,-0.316724 -0.46129,-0.630878 -0.69252,-0.943937 v -0.0076 c -0.23018,-0.311811 -0.46485,-0.620182 -0.69842,-0.932069 l -0.008,-0.0076 c -0.0711,-0.09487 -0.14211,-0.188598 -0.21468,-0.282331 -0.16592,-0.216945 -0.32844,-0.434003 -0.49685,-0.649814 -0.23585,-0.30463 -0.47672,-0.610734 -0.71743,-0.913096 l -0.008,-0.0076 c -0.24189,-0.303496 -0.48382,-0.605972 -0.7293,-0.907162 v -0.0076 c -0.24416,-0.297449 -0.49448,-0.58817 -0.74113,-0.882255 -0.003,-0.0034 -0.003,-0.01134 -0.008,-0.01134 -0.24793,-0.294047 -0.50279,-0.585789 -0.7542,-0.876321 -0.003,-0.0034 -0.003,-0.01134 -0.008,-0.01134 -0.25134,-0.290645 -0.5099,-0.577474 -0.76604,-0.864453 -0.003,-0.0034 -0.003,-0.01134 -0.008,-0.01134 -0.25626,-0.286866 -0.51228,-0.569197 -0.77197,-0.851414 -0.003,-0.0034 -0.003,-0.01134 -0.008,-0.01134 -0.25739,-0.281196 -0.52177,-0.557329 -0.78501,-0.833612 -0.004,-0.0038 -0.0113,-0.01134 -0.0113,-0.02268 -0.53008,-0.559711 -1.0696,-1.106381 -1.61783,-1.648404 -0.004,-0.0038 -0.0113,-0.01134 -0.0113,-0.01134 -1.3815,-1.36441 -2.81964,-2.675112 -4.32635,-3.915704 -1.20102,-0.988989 -2.44838,-1.927899 -3.73796,-2.82497 -0.004,-0.0034 -0.004,-0.01134 -0.008,-0.01134 C 95.502085,6.4721008 89.158639,3.5236913 81.738217,1.7974677 81.303043,1.690885 80.869002,1.5960189 80.426835,1.5034205 h -0.0076 C 80.312693,1.4807433 80.197417,1.4557984 80.088567,1.4323654 79.754079,1.3613102 79.428057,1.2997039 79.090091,1.2365858 78.638324,1.1534362 78.184139,1.066885 77.723565,0.99091654 h -0.0076 c -0.915439,-0.1504252 -1.847622,-0.28346457 -2.79428,-0.3984378 h -0.0076 C 74.441046,0.53314016 73.961953,0.48589606 73.480517,0.43373858 71.063206,0.19184882 68.543811,0.06599055 65.918627,0.06599055 v 0.0075591 C 49.685896,0.07604409 37.556939,4.8555969 28.060384,12.347754 c -4.901253,3.8671 -9.091956,8.444485 -12.856365,13.413922 -0.420964,0.556157 -0.839547,1.113486 -1.250079,1.67913 -0.467225,0.641537 -0.93086,1.289953 -1.384932,1.942488 -0.240756,0.347339 -0.479055,0.697286 -0.71743,1.04829 -0.622564,0.914268 -1.237039,1.836737 -1.838362,2.769827 C 9.2922331,34.31966 8.5864063,35.45023 7.8929386,36.590173 6.6789165,34.57697 5.4599811,32.580057 4.2345827,30.597014 5.1701669,29.122318 6.1141039,27.667767 7.0595528,26.23389 c 0.022677,-0.03402 0.047622,-0.08315 0.08315,-0.122079 0.8561763,-1.297512 1.7173039,-2.571099 2.5859149,-3.829984 0.2014488,-0.29178 0.4043713,-0.581027 0.6071433,-0.870388 0.809915,-1.160919 1.627426,-2.302752 2.451212,-3.425461 0.21241,-0.288 0.424555,-0.572787 0.636813,-0.857348 0.726916,-0.977121 1.459842,-1.942148 2.199949,-2.886199 0.163654,-0.208629 0.32504,-0.423344 0.489714,-0.63084 0.589379,-0.742337 1.184655,-1.473525 1.783257,-2.193789 C 21.428787,7.1692346 25.130721,3.3200504 29.092422,0.00755906 H 17.896706 V 0 Z M 199.65929,0.06349606 v 0.0075591 0.007559 c -28.42076,0 -44.01933,14.78271484 -55.61087,32.65557184 -11.59155,17.873461 -19.64009,38.830639 -33.37267,52.179212 -1.17989,1.146709 -2.33019,2.216542 -3.46835,3.247862 -3.6271,1.585814 -7.12302,3.527017 -10.55838,5.833776 -8.006551,4.008454 -19.063181,8.211364 -30.253568,8.211364 -12.42909,0 -24.346847,-5.166879 -32.153159,-9.498217 C 31.662539,90.70817 28.982249,89.095559 26.196359,87.79355 25.187225,86.87452 24.16955,85.927521 23.126287,84.913398 21.277002,83.115817 19.535773,81.177487 17.917531,79.245165 v -0.05934 C 11.111735,70.835339 5.6537575,60.621846 0.01182992,50.310992 v 7.47617 C 4.0457953,65.130369 8.2090961,72.355578 13.094929,78.805871 c 0.02268,0.03402 0.04724,0.05934 0.07105,0.09487 0.303496,0.399609 0.609525,0.795704 0.918992,1.188775 0.801638,1.024554 1.643906,2.0496 2.518602,3.057789 0.429279,0.495647 0.868006,0.985398 1.311383,1.470765 0.09487,0.106583 0.193133,0.222992 0.294047,0.330709 -0.09487,-0.02268 -0.196914,-0.04724 -0.294047,-0.07106 -0.433999,-0.106582 -0.867964,-0.21581 -1.299019,-0.305763 C 13.202306,83.808302 9.6361701,83.355893 5.9104252,83.138079 3.923074,79.647496 1.9670929,76.15098 0.00309921,72.561222 v 7.427074 c 0.55381418,1.009134 1.11942049,1.992416 1.67905509,2.996561 -0.5549858,-0.0076 -1.11707713,-0.07106 -1.67905509,-0.08315 l 0.00755906,7.090054 c 1.90688503,2.26e-4 3.75964723,0.07106 5.55174803,0.232441 3.0260409,0.264567 5.8980657,0.743508 8.6343687,1.415508 0.634394,0.155339 1.26085,0.320126 1.881146,0.496857 0.620221,0.176882 1.231484,0.361701 1.838438,0.557367 7.838135,2.535647 14.564183,6.749102 20.712302,12.237466 8.772473,7.83103 16.282319,18.29654 23.574161,29.86745 -1.226872,1.99314 -2.453858,3.9961 -3.670602,6.01758 -5.456352,-9.07276 -11.59748,-17.61294 -19.670702,-24.26041 -5.840428,-4.809 -12.709531,-8.58618 -20.945197,-10.82185 -0.668787,-0.18141 -1.347099,-0.35338 -2.034406,-0.51462 -0.653367,-0.15307 -1.315313,-0.29518 -1.985537,-0.42928 -0.03402,-0.008 -0.07106,-0.0113 -0.106583,-0.0227 -0.05934,-0.0113 -0.118677,-0.0227 -0.171968,-0.034 -0.333355,-0.0593 -0.661682,-0.13644 -0.998476,-0.19578 -0.04724,-0.004 -0.08315,-0.003 -0.122079,-0.008 -3.8778704,-0.68776 -8.0251838,-1.06605 -12.49477751,-1.06605 v 3.54195 c 6.73394641,0.001 12.64384251,0.85379 17.91802251,2.38386 v -0.008 c 7.31879,2.11978 13.395212,5.55787 18.671773,9.9027 8.055156,6.63269 14.253581,15.45343 19.866671,24.97134 -1.625991,2.71434 -3.263131,5.43617 -4.908473,8.15618 -8.234948,-11.13558 -18.636775,-20.39709 -33.629971,-24.49946 -0.617802,-0.16857 -1.242142,-0.32731 -1.875137,-0.47789 -0.05934,-0.0113 -0.106583,-0.034 -0.158741,-0.0472 -0.04762,-0.0113 -0.106582,-0.0227 -0.15307,-0.034 -0.636775,-0.14815 -1.283301,-0.28686 -1.936441,-0.41624 -0.651024,-0.13039 -1.31127,-0.2502 -1.979377,-0.3617 -0.165921,-0.0227 -0.335622,-0.0472 -0.50279,-0.0832 -0.257386,-0.034 -0.512278,-0.0832 -0.771969,-0.12207 -0.03402,-0.002 -0.05934,-0.004 -0.09487,-0.008 -3.2803654,-0.47789 -6.747704,-0.74117 -10.44200317,-0.74117 v 3.56651 c 4.04318737,0 7.79119367,0.30955 11.28759717,0.88226 0.276283,0.0476 0.553776,0.0949 0.827716,0.14098 0.356788,0.0593 0.709115,0.12699 1.06012,0.19578 0.267968,0.0472 0.537184,0.10658 0.802809,0.15874 0.02268,0.004 0.03402,0.008 0.05934,0.0113 0.633222,0.13418 1.259339,0.27629 1.875137,0.42928 0.679483,0.16857 1.350198,0.34999 2.00999,0.53953 14.189216,4.0707 23.721449,13.07894 31.626142,24.15632 -0.300094,0.48975 -0.594104,0.98185 -0.895294,1.47065 -1.519522,2.46282 -3.076498,4.70748 -4.651049,6.78977 -8.360164,-8.51516 -18.934526,-14.89999 -33.2256,-17.02922 -0.178016,-0.0227 -0.329575,-0.0227 -0.502791,-0.0472 -3.2285099,-0.46012 -6.6372658,-0.71032 -10.2642516,-0.71032 v 3.53578 c 3.804737,5.7e-4 7.3435843,0.27402 10.6564156,0.7838 0.02268,0.004 0.05934,0.008 0.08315,0.0113 0.03402,0.008 0.08315,0.0113 0.118677,0.0227 2.473058,0.38895 4.820598,0.91305 7.053165,1.55648 v -0.0113 c 9.847559,2.83828 17.451288,8.06087 23.849877,14.70089 -3.004044,3.61451 -6.058015,6.61228 -9.081637,9.09385 -4.377563,-2.71529 -9.268158,-4.89237 -14.76824,-6.37917 v -0.0227 c -5.358384,-1.45619 -11.2968534,-2.259 -17.91185814,-2.25995 v 3.57869 c 3.34329444,6e-4 6.48718114,0.20976 9.44923464,0.60714 0.022677,0.002 0.034016,0.004 0.059339,0.008 0.8170205,0.10658 1.6182795,0.23584 2.4082765,0.37342 0.355654,0.0593 0.703219,0.13417 1.054224,0.20145 0.474331,0.0949 0.945071,0.18595 1.409461,0.288 0.432832,0.0949 0.862073,0.19691 1.286854,0.30009 0.342803,0.0831 0.679483,0.17424 1.017486,0.26306 0.41144,0.10658 0.827641,0.21354 1.231673,0.3307 4.319584,1.25001 8.209436,2.95567 11.753386,5.03717 -4.679849,3.36642 -9.208857,5.58236 -13.254766,7.04712 -0.0017,5.6e-4 -0.0038,-7.2e-4 -0.0076,0 -0.843137,0.30463 -1.656945,0.57154 -2.451212,0.81464 -0.123213,0.034 -0.245292,0.0711 -0.367748,0.10658 -0.658129,0.19578 -1.292561,0.36888 -1.911912,0.52649 -0.106583,0.0227 -0.206362,0.0593 -0.306142,0.0832 -0.257386,0.0593 -0.50279,0.11867 -0.754167,0.17197 -0.33789,0.0831 -0.673549,0.15307 -0.998475,0.22072 -0.3794646,0.0831 -0.7542047,0.14929 -1.1158677,0.21468 -0.034016,0.008 -0.071055,0.0227 -0.1065827,0.0227 -0.1065827,0.0227 -0.2169449,0.034 -0.3250393,0.0593 -0.4055434,0.0711 -0.8016,0.12926 -1.1822741,0.18369 -0.376063,0.0227 -0.7363653,0.0711 -1.0719874,0.14097 -0.00756,8.4e-4 -0.011338,0.004 -0.022677,0.008 -3.6028725,0.42101 -5.78468035,0.20296 -5.78468035,0.20296 l 0.0075591,7.08386 c 0,0 2.97358105,0.17537 7.46985825,-0.41031 0.495685,-0.0227 1.0221732,-0.0831 1.5870992,-0.17196 2.349733,-0.38778 5.072504,-1.0198 8.021519,-1.97927 0.275149,-0.0831 0.549052,-0.16856 0.827716,-0.26343 v -0.0113 c 0.310677,-0.10658 0.609525,-0.192 0.924926,-0.30614 10.845808,-3.92576 24.498784,-12.63269 35.854451,-31.03181 11.027338,-17.86726 20.768277,-35.87388 32.631155,-49.12747 11.862728,-13.253634 25.471259,-21.815398 45.444549,-21.815398 19.97295,0 33.57566,8.561764 45.43854,21.815398 11.86273,13.25359 21.58541,31.26021 32.61275,49.12747 11.35566,18.39912 25.02705,27.10567 35.87282,31.03181 10.19062,3.68901 17.68017,3.13606 18.83716,3.1313 v -7.07153 c 0,0 -9.32009,-0.24076 -16.42885,-2.75146 -4.05838,-1.43403 -8.57873,-3.67941 -13.26085,-7.04712 7.86936,-4.62308 17.44762,-7.40678 29.6897,-7.40867 v -3.57872 c -13.41071,0.002 -24.06164,3.29647 -32.70467,8.65878 -3.02335,-2.48122 -6.0777,-5.47982 -9.08148,-9.09384 9.82548,-10.19751 22.4928,-17.05712 41.78615,-17.06011 v -3.53575 c -19.94105,0.003 -33.67585,7.26104 -44.01067,17.78926 -1.5764,-2.08411 -3.13542,-4.33028 -4.65717,-6.79586 -0.30123,-0.48854 -0.59531,-0.98067 -0.8953,-1.47065 9.48775,-13.29286 21.32799,-23.61392 40.74452,-25.98852 1.31248,-0.15988 2.66102,-0.2812 4.0444,-0.36775 0.26079,-0.0113 0.52055,-0.034 0.78501,-0.0476 0.40671,-0.0227 0.81823,-0.034 1.23171,-0.0593 0.0227,-9.5e-4 0.0472,9.4e-4 0.0831,0 0.25133,-0.008 0.50517,-0.0227 0.7601,-0.0227 0.0113,-2.6e-4 0.0227,2.3e-4 0.034,0 0.29178,-0.008 0.58224,-0.0113 0.87632,-0.0113 0.0476,-7.1e-4 0.10659,6.1e-4 0.15874,0 0.24189,-0.002 0.48503,-0.008 0.7293,-0.008 v -0.008 h 0.10658 v -3.56648 c -0.034,-1.5e-4 -0.0711,0 -0.10658,0 -12.98763,0 -23.3286,3.09154 -31.8223,8.15618 h 0.17197 c -7.99684,4.77404 -14.36258,11.29652 -19.787,18.63511 -1.64666,-2.72265 -3.28153,-5.4497 -4.90851,-8.16854 5.61396,-9.5193 11.81023,-18.34363 19.86671,-24.97735 7.94147,-6.53899 17.68539,-11.03138 30.76823,-12.05366 0.89646,-0.0711 1.81088,-0.12208 2.73913,-0.15875 0.12322,-0.004 0.25021,-0.008 0.37342,-0.0113 0.72216,-0.0227 1.45761,-0.034 2.19995,-0.034 0.13266,-7.2e-4 0.26457,-0.008 0.39844,-0.008 h 0.10658 v -0.008 -3.54194 c -3.09158,0.002 -6.34915,0.25738 -9.00196,0.52652 -11.34206,1.36785 -20.38526,5.35922 -27.87587,10.97503 v 0.0227 c -0.67238,0.50755 -1.33217,1.02932 -1.97938,1.56257 -8.07307,6.64751 -14.22062,15.18769 -19.67671,24.26041 -1.21595,-2.02231 -2.43889,-4.02977 -3.66444,-6.02374 7.29078,-11.56868 14.79647,-22.03105 23.56789,-29.86129 9.15465,-8.172357 19.58339,-13.530593 33.07237,-14.706934 1.79203,-0.156472 3.64487,-0.23244 5.5519,-0.23244 v -0.02268 l 0.0113,-7.071571 c -1.79864,0 -3.66062,0.119811 -5.51501,0.300094 -1.52424,-2.630853 -3.08587,-5.233738 -4.73083,-7.770217 C 243.71354,57.54085 228.096,42.733833 199.67539,42.733833 c -28.42088,0 -44.01933,14.807131 -55.61087,32.680101 -1.62838,2.510967 -3.17647,5.086828 -4.68779,7.690545 -1.82154,-0.139843 -3.93256,-0.220725 -6.59985,-0.220725 -0.19427,0.0028 -0.38302,0.01134 -0.5763,0.02268 4.90825,-8.771565 9.51946,-17.836459 14.854,-26.061921 11.3009,-17.425323 25.4115,-31.056378 52.62043,-31.056378 27.20874,0 41.34399,13.631055 52.64489,31.056378 4.73926,7.30715 8.92475,15.294501 13.23012,23.132788 V 72.550602 C 262.2991,66.610469 258.975,60.55612 255.30403,54.896088 243.71308,37.02274 228.09555,22.21595 199.6749,22.21595 v 0.0076 c -28.42088,0 -44.01933,14.80063 -55.61087,32.673978 -5.88877,9.080088 -10.86962,18.943634 -16.14093,28.213001 -4.46347,0.339024 -8.65168,1.062501 -12.64184,2.169222 13.23851,-14.085921 21.03341,-34.062425 31.7732,-50.62269 11.3009,-17.42536 25.41147,-31.0562641 52.62044,-31.0562641 27.20874,0 41.34399,13.6309041 52.64489,31.0562641 4.73892,7.30715 8.92497,15.281575 13.23012,23.12058 V 50.246438 C 262.29921,44.30725 258.975,38.374791 255.30403,32.714494 243.7132,14.841524 228.09555,0.05264882 199.6749,0.05264882 Z M 65.929776,3.6177638 c 5.026583,0 9.600076,0.4696063 13.787793,1.3419968 0.413858,0.08315 0.825335,0.1697008 1.231748,0.2630551 0.0038,0.0011 0.01134,0.00378 0.01134,0.00756 0.406715,0.094866 0.807534,0.192 1.207257,0.2940472 0.0038,0.00117 0.01134,0.00378 0.01134,0.00756 0.399648,0.1065827 0.796876,0.1957795 1.188813,0.3057638 0.0038,0.00121 0.01134,0.00378 0.01134,0.00756 0.392504,0.1065827 0.779074,0.2263937 1.164472,0.3428032 0.147024,0.047622 0.289134,0.094866 0.435213,0.1409764 0.627288,0.1969134 1.247584,0.3960945 1.85673,0.6130771 0.0038,0.00155 0.01134,0.00378 0.01134,0.00756 0.37115,0.1315275 0.738784,0.2657008 1.102828,0.4043716 0.0038,0.00155 0.01134,0.00378 0.01134,0.00756 0.363968,0.1387087 0.726916,0.2834646 1.085027,0.4292787 0.0038,0.00166 0.01134,0.00378 0.01134,0.00756 0.356788,0.1458898 0.715049,0.2940472 1.066054,0.4470425 l 0.0076,0.00756 c 0.351118,0.1530708 0.703219,0.311811 1.04829,0.4719874 l 0.0076,0.00756 c 0.34507,0.159874 0.684207,0.3178583 1.023344,0.4838173 l 0.01134,0.00756 c 0.33789,0.1659213 0.678312,0.335622 1.011515,0.5087244 0.0038,0.00212 0.01134,0.00378 0.01134,0.00756 0.331842,0.1731023 0.6593,0.3473387 0.986607,0.5264877 l 0.0076,0.0076 c 0.326173,0.17915 0.6593,0.360567 0.980674,0.5455 l 0.0076,0.0076 c 0.321259,0.185196 0.634431,0.378292 0.949833,0.570368 0.0038,0.0024 0.01134,0.0038 0.01134,0.0076 0.315591,0.192 0.627326,0.384227 0.938003,0.582236 0.0038,0.0024 0.01134,0.0038 0.01134,0.0076 0.309543,0.198048 0.614249,0.409096 0.918992,0.61304 h 0.0076 c 0.307276,0.205228 0.6048,0.413858 0.907162,0.624945 l 0.0076,0.0076 c 0.298961,0.20863 0.588171,0.416239 0.882256,0.630878 v 0.0076 c 0.592933,0.432831 1.172783,0.876321 1.746483,1.329788 0.003,0.0027 0.0113,0.0032 0.0113,0.0076 0.2846,0.225259 0.57158,0.461253 0.85141,0.692485 l 0.008,0.0076 c 0.0473,0.04762 0.10658,0.08315 0.15307,0.129259 0.22904,0.189733 0.45415,0.383018 0.68066,0.576303 0.003,0.0028 0.0113,0.0033 0.0113,0.0076 0.27515,0.235842 0.54905,0.475502 0.82057,0.71743 0.003,0.0028 0.0113,0.0033 0.0113,0.0076 0.27175,0.24189 0.53601,0.488542 0.80281,0.735194 0.003,0.0031 0.0113,0.0031 0.0113,0.0076 0.26683,0.246803 0.53363,0.496856 0.79687,0.747061 l 0.008,0.0076 c 0.008,0.0076 0.0113,0.01134 0.0227,0.02268 0.78977,0.755377 1.56185,1.531994 2.31639,2.328605 l 0.008,0.0076 c 0.25248,0.266835 0.49686,0.53246 0.74827,0.802809 l 0.008,0.0076 c 0.24794,0.270236 0.49686,0.538393 0.74113,0.814677 l 0.008,0.0076 c 0.24416,0.275149 0.48854,0.553776 0.72926,0.833612 l 0.008,0.0076 c 0.24189,0.279685 0.47909,0.55612 0.71743,0.839547 l 0.008,0.0076 c 0.23849,0.283465 0.4696,0.577512 0.70439,0.864491 l 0.008,0.0076 c 0.23471,0.286866 0.46722,0.579855 0.69845,0.870388 l 0.008,0.0076 c 0.23131,0.290645 0.46364,0.582236 0.69253,0.876321 v 0.0076 c 0.22904,0.295181 0.46008,0.589342 0.68658,0.888189 v 0.0076 c 0.2264,0.298961 0.4506,0.598828 0.67473,0.901228 v 0.0076 c 0.22299,0.302362 0.44704,0.607143 0.66761,0.913096 v 0.0076 c 0.22073,0.305763 0.44349,0.610696 0.66168,0.918992 v 0.0076 c 0.21808,0.308409 0.43404,0.613077 0.64986,0.924964 v 0.0076 c 2.2055,3.199597 4.28046,6.555704 6.28724,9.99462 -1.60607,2.682898 -3.22522,5.367496 -4.85322,8.052095 C 106.7452,34.335912 91.516384,22.293959 65.900787,22.293959 c -23.728441,0 -38.534626,10.328882 -49.513587,24.137915 -0.501581,0.630879 -1.0032,1.261266 -1.48902,1.905751 -1.660158,-2.747792 -3.303723,-5.490935 -4.9452477,-8.229845 1.2483027,-2.096429 2.5293737,-4.15476 3.8545137,-6.158476 0.662891,-1.001991 1.336289,-1.991811 2.022198,-2.965984 0.68538,-0.97474 1.38395,-1.930507 2.09571,-2.873953 v -0.0076 c 3.646753,-4.833257 7.6591,-9.23395 12.304819,-12.899222 C 39.16097,8.1569764 50.354306,3.6698079 65.900787,3.6698079 Z m 0,22.1829922 v 0.0076 c 25.194974,0 39.139054,11.672542 50.058974,27.238602 -0.1508,0.244157 -0.29632,0.490922 -0.44708,0.735193 -1.65872,2.687698 -3.35849,5.117443 -5.07995,7.353562 -1.98353,-2.066078 -4.09928,-4.013215 -6.35471,-5.80936 -0.19805,-0.157606 -0.39367,-0.316725 -0.5941,-0.47195 h -0.008 c -0.20032,-0.155338 -0.39844,-0.318992 -0.6,-0.471987 h -0.008 c -0.20296,-0.153071 -0.40793,-0.30841 -0.61308,-0.45891 h -0.008 c -0.20523,-0.150426 -0.40554,-0.305764 -0.61307,-0.454148 h -0.008 c -0.2075,-0.148158 -0.41503,-0.295182 -0.62495,-0.441147 h -0.008 c -0.20976,-0.14589 -0.41858,-0.291779 -0.63084,-0.435175 h -0.008 c -0.21241,-0.143622 -0.423342,-0.288 -0.636772,-0.429278 h -0.0076 C 99.312,51.881386 98.875616,51.601625 98.436019,51.330066 h -0.0076 c -0.439937,-0.271748 -0.885808,-0.535975 -1.335345,-0.796875 l -0.0076,-0.0076 C 96.184246,50.003866 95.26,49.506971 94.315836,49.030297 l -0.0076,-0.0076 C 86.497701,45.084661 77.211402,42.74778 65.91772,42.74778 c -19.591824,0 -33.177903,7.023382 -43.440756,17.256226 -1.428321,-1.923666 -2.839786,-3.992315 -4.22211,-6.2321 -0.118678,-0.190867 -0.232441,-0.384227 -0.349985,-0.576303 -9.45e-4,-0.0015 9.45e-4,-0.0038 0,-0.0076 -0.329575,-0.540737 -0.655748,-1.083817 -0.986608,-1.623609 0.322394,-0.44349 0.65813,-0.869216 0.986608,-1.30526 v -0.01134 C 28.531502,36.111496 42.269518,25.797543 65.917077,25.797543 Z m -0.07106,20.50405 v 0.0076 h 0.0076 l 0.01134,0.0076 0.0076,0.0076 h 0.03402 c 1.917845,0 3.767849,0.07106 5.557946,0.202961 0.03402,0.0031 0.08315,0.0029 0.122079,0.0076 0.0038,3.78e-4 0.01134,-2.27e-4 0.01134,0 0.04762,0.0038 0.09487,0.01134 0.147024,0.01134 2.388737,0.18633 4.668737,0.48737 6.844951,0.894123 0.272882,0.04762 0.545462,0.106582 0.81464,0.15307 l 0.0076,0.0076 c 0.270236,0.05934 0.536012,0.106583 0.802809,0.171969 l 0.0076,0.0076 c 0.266835,0.05934 0.539566,0.106583 0.80281,0.171969 l 0.0076,0.0076 c 0.263055,0.05934 0.535937,0.125858 0.796838,0.189732 0.132661,0.03402 0.266834,0.07106 0.398475,0.106583 0.131528,0.03402 0.261921,0.05934 0.392466,0.09487 h 0.0076 c 0.257386,0.07106 0.516964,0.143622 0.771969,0.214677 0.780283,0.218079 1.545978,0.451767 2.298028,0.698419 0.245291,0.08315 0.48737,0.161386 0.72926,0.245291 l 0.0076,0.0076 c 0.24189,0.08315 0.489751,0.164788 0.729298,0.251339 l 0.0076,0.0076 c 0.239622,0.08315 0.468397,0.174236 0.704352,0.263055 l 0.0076,0.0076 c 0.235842,0.09487 0.470778,0.176882 0.70439,0.269102 l 0.0076,0.0076 c 0.233575,0.09487 0.468397,0.192 0.698457,0.288 0.0038,0.0017 0.01134,0.0038 0.01134,0.0076 0.231308,0.09487 0.458911,0.189733 0.686589,0.288 0.0038,0.0018 0.01134,0.0038 0.01134,0.0076 0.227528,0.09487 0.455357,0.193133 0.680655,0.294047 0.0038,0.0019 0.01134,0.0038 0.01134,0.0076 0.22526,0.106582 0.454186,0.20296 0.673549,0.306142 0.01134,0.0076 0.02268,0.0076 0.03402,0.02268 0.667616,0.312945 1.322419,0.642708 1.967055,0.980674 0.0038,0.0022 0.01134,0.0038 0.01134,0.0076 0.214677,0.106582 0.43045,0.221858 0.64388,0.336756 0.0038,0.0021 0.01134,0.0038 0.01134,0.0076 0.212409,0.118677 0.421001,0.21959 0.630878,0.336756 0.0038,0.0022 0.01134,0.01134 0.01134,0.01134 0.209764,0.118677 0.417411,0.234709 0.624907,0.355654 0.0038,0.0022 0.01134,0.0034 0.01134,0.0076 0.207496,0.120945 0.413858,0.244157 0.619011,0.367748 0.0037,0.0024 0.01134,0.0038 0.01134,0.0076 0.205229,0.123213 0.410306,0.24189 0.613077,0.367748 0.0038,0.0024 0.01134,0.0037 0.01134,0.0076 0.202961,0.12548 0.406753,0.245291 0.607143,0.373417 l 0.0076,0.0076 c 0.106583,0.07106 0.21241,0.14589 0.318992,0.214678 0.09487,0.05934 0.188599,0.122078 0.282331,0.183685 0.0038,0.0025 0.01134,0.0036 0.01134,0.0076 0.198047,0.130393 0.392504,0.271748 0.58817,0.404371 0.0037,0.0026 0.01134,-0.0025 0.01134,0 0.19578,0.132662 0.388952,0.263433 0.582237,0.398438 0.0038,0.0026 0.01134,0.0034 0.01134,0.0076 0.193134,0.135307 0.390123,0.272882 0.582236,0.410306 l 0.0076,0.0076 c 0.193133,0.138708 0.385398,0.269102 0.576302,0.410305 l 0.008,0.0076 c 0.19086,0.140977 0.38184,0.290646 0.5704,0.435213 h 0.008 c 0.0593,0.03402 0.10658,0.08315 0.15874,0.122079 0.13531,0.106582 0.26457,0.212409 0.39844,0.318992 0.003,0.0027 0.0113,0.0034 0.0113,0.0076 0.18482,0.144756 0.36775,0.294047 0.55139,0.441146 h 0.008 c 0.18255,0.147024 0.36397,0.297827 0.5455,0.447043 0.003,0.0029 0.0113,0.0036 0.0113,0.0076 0.18142,0.149291 0.35943,0.301228 0.53953,0.452976 0.003,0.0028 0.0113,0.0034 0.0113,0.0076 0.17915,0.151937 0.35565,0.300095 0.53363,0.452977 0.003,0.003 0.0113,0.01134 0.0113,0.01134 0.17801,0.154205 0.34507,0.309544 0.52059,0.466016 0.003,0.0029 0.0113,0.0031 0.0113,0.0076 0.17537,0.156472 0.34167,0.320126 0.51462,0.477883 l 0.008,0.0076 c 0.0113,0.01134 0.034,0.02268 0.0472,0.04724 0.15912,0.144756 0.31446,0.288 0.47199,0.435212 0.003,0.0031 0.0113,0.0031 0.0113,0.0076 0.17197,0.160252 0.33789,0.32126 0.50868,0.483818 l 0.008,0.0076 c 0.17084,0.162519 0.34016,0.326173 0.50873,0.489751 0.003,0.0031 0.0113,0.0031 0.0113,0.0076 0.16819,0.164787 0.33448,0.335622 0.50279,0.50279 l 0.008,0.0076 c 0.49806,0.495685 0.9866,1.000856 1.47065,1.513587 -2.99445,3.536957 -6.03394,6.479584 -9.038703,8.903887 -0.682277,-0.43419 -1.38183,-0.851601 -2.086296,-1.257598 -0.481474,-0.277417 -0.971188,-0.550223 -1.464643,-0.814677 -0.163653,-0.08315 -0.320126,-0.170835 -0.483817,-0.257386 h -0.0076 c -0.330709,-0.173102 -0.668788,-0.347338 -1.004372,-0.514658 -0.167055,-0.08315 -0.334488,-0.169701 -0.50279,-0.251339 h -0.0076 c -0.168567,-0.08315 -0.33789,-0.170834 -0.508725,-0.251338 h -0.0076 c -0.169701,-0.08315 -0.336756,-0.15874 -0.508724,-0.239622 h -0.0076 c -0.518211,-0.236977 -1.0447,-0.468397 -1.574892,-0.692523 h -0.0076 C 90.753168,68.4966 90.57742,68.419502 90.40205,68.346935 h -0.0076 c -0.07106,-0.02268 -0.143622,-0.05934 -0.214677,-0.08315 -0.106583,-0.04724 -0.218079,-0.09487 -0.325039,-0.135307 -0.360567,-0.143622 -0.724536,-0.279685 -1.090961,-0.41624 -0.183685,-0.07106 -0.366236,-0.136441 -0.551395,-0.201448 -6.466054,-2.333821 -13.846035,-3.652196 -22.354545,-3.652196 -13.119723,0 -23.568265,3.14075 -32.104177,8.303358 C 30.712365,69.621808 27.643124,66.560844 24.62948,62.865789 34.387389,52.973291 46.906696,46.34502 65.858079,46.34502 Z m 133.790694,0.02268 c 27.20871,0 41.3441,13.637103 52.64504,31.062426 1.32439,2.042078 2.59125,4.152869 3.836,6.287206 -3.4071,0.506381 -6.54482,1.185827 -9.00798,1.8384 C 236.34973,72.955843 221.94671,63.828813 199.64946,63.828813 v 0.0076 c -22.47409,0 -36.91612,9.268648 -47.71189,21.9809 -3.3905,-0.966463 -5.74945,-1.71874 -8.70168,-2.218318 1.23266,-2.108749 2.48406,-4.188926 3.79321,-6.207571 C 158.33,59.96606 172.4406,46.328995 199.64946,46.328995 Z m 0,21.073852 v 0.0076 c 20.63226,0 33.72907,7.853708 43.7901,19.241651 -0.61546,0.224126 -1.22853,0.456529 -1.83224,0.698419 -0.034,0.01134 -0.0711,0.02268 -0.10658,0.04724 -2.40971,0.974778 -4.72951,2.094312 -6.96125,3.339666 -3.62056,-2.187288 -7.47186,-4.035628 -11.58172,-5.484435 -6.94809,-2.728819 -14.65712,-4.277291 -23.31069,-4.277291 -10.85654,0 -20.22693,2.438665 -28.4702,6.58749 -2.31995,1.087408 -4.55947,2.300749 -6.71009,3.640025 -2.81216,-1.62342 -5.77282,-3.030992 -8.87316,-4.216101 10.09194,-11.565203 23.2233,-19.578671 44.05345,-19.578671 z m -134.378977,0.0076 h 0.0076 c 0.213543,-0.0017 0.428069,0 0.64388,0 0.930898,0 1.845166,0.0076 2.745336,0.04762 0.01134,5.66e-4 0.03401,-6.05e-4 0.04724,0 1.959798,0.07106 3.847861,0.220346 5.668346,0.435174 0.03402,0.0038 0.08315,0.01134 0.122079,0.01134 0.0038,4.53e-4 0.01134,-4.91e-4 0.01134,0 0.04762,0.0038 0.08315,0.0076 0.122079,0.02268 2.206451,0.269102 4.313802,0.634432 6.33018,1.102828 0.03401,0.0076 0.07106,-8.31e-4 0.106582,0.02268 h 0.0076 c 0.03402,0.0076 0.07106,0.01134 0.106583,0.02268 5.616643,1.328466 10.523717,3.404863 14.909254,6.054349 -4.514684,3.184177 -8.880529,5.311408 -12.795062,6.728467 -11.443049,4.032151 -24.221367,3.011036 -32.815067,0 -4.171692,-1.510149 -8.8543,-3.807686 -13.689714,-7.353525 7.622929,-4.350538 16.815307,-7.002293 28.470312,-7.096101 z M 199.88232,88.182501 h 0.008 v 0.214677 c 0.034,-7.18e-4 0.071,6.8e-4 0.10658,0 10.91989,-0.198047 19.9677,2.310085 27.87587,6.636586 -1.9745,1.438753 -3.88585,2.967042 -5.71729,4.602028 -1.59035,1.419548 -3.12684,2.909068 -4.62667,4.455038 -4.84574,-1.15381 -10.16062,-1.78359 -16.01836,-1.78325 -0.50037,0 -1.00554,-0.002 -1.51355,0.008 -0.034,5.6e-4 -0.0711,-6.1e-4 -0.10658,0 v 3.56031 c 0.034,-6e-4 0.071,6.8e-4 0.10658,0 5.39191,-0.0949 10.28202,0.33222 14.74367,1.21331 -4.75835,5.31333 -9.10594,11.2159 -13.25465,17.44006 -0.57985,-0.008 -1.04591,-0.003 -1.2929,0 v -0.0113 c -0.12586,0.002 -0.19578,0.008 -0.19578,0.0113 -0.034,5.7e-4 -0.0711,0.004 -0.10658,0.008 v 2.41447 c -0.002,0.004 -0.004,0.008 -0.008,0.0113 v -2.43273 c -0.034,-7.2e-4 -0.0711,-0.008 -0.10658,-0.008 0,-0.008 -0.27742,-0.0113 -0.7293,-0.0113 v 0.008 c -0.55733,0.002 -1.3835,0.0113 -2.26727,0.034 -4.08222,-6.12737 -8.35615,-11.94422 -13.0219,-17.19492 4.80094,-1.06251 10.1057,-1.59043 16.01847,-1.48286 0.034,7.1e-4 0.071,-6.1e-4 0.10658,0 v -3.55416 c -0.034,-6e-4 -0.0711,-0.004 -0.10658,-0.008 v 0.008 c -0.50873,-0.008 -1.01269,-0.0113 -1.51359,-0.0113 -6.35698,-3.4e-4 -12.07121,0.74117 -17.24402,2.08967 -3.12548,-3.23777 -6.45052,-6.216458 -10.0069,-8.860955 8.11706,-4.628636 17.42898,-7.344869 28.75834,-7.139112 0.034,6.8e-4 0.0711,-7.18e-4 0.10659,0 z M 45.83263,101.95192 c 6.206135,2.20434 13.239987,3.82383 20.54691,3.82383 7.158236,0 14.154595,-1.55652 20.399849,-3.68901 -1.640466,1.58426 -3.223181,3.24514 -4.761335,4.96362 -5.674054,6.33932 -10.758615,13.52953 -15.632353,21.09225 -6.232214,-9.67736 -12.828019,-18.7251 -20.553071,-26.19069 z m 86.93061,1.53812 c -28.42061,0 -44.043857,14.7761 -55.63529,32.64953 -11.591547,17.87346 -19.615522,38.83052 -33.348095,52.17909 -10.282016,9.99447 -18.997342,15.48378 -25.85983,18.46341 -1.230047,0.53481 -2.401171,0.99254 -3.511219,1.37889 -0.554986,0.19313 -1.093341,0.36775 -1.617826,0.52649 -0.396057,0.11981 -0.77435,0.22299 -1.151434,0.32504 -0.124346,0.034 -0.257385,0.071 -0.379464,0.10658 -0.94749,0.2468 -1.8348474,0.43876 -2.6656253,0.58817 h 9.3266263 11.116045 c 0.09487,-0.0832 0.190866,-0.16479 0.288,-0.24529 9.921184,-8.22501 21.364611,-13.24033 36.583596,-13.24849 v 0.0113 c 1.433537,0 2.829733,0.0476 4.197695,0.13531 0.0038,3.8e-4 0.01134,-2.3e-4 0.01134,0 0.07106,0.004 0.138709,0.0113 0.20863,0.0227 0.385399,0.0227 0.77435,0.0593 1.151433,0.0949 2.107692,0.18369 4.139226,0.46957 6.103446,0.85142 0.388951,0.0711 0.77435,0.14929 1.158539,0.23244 1.941694,0.42217 3.817171,0.94156 5.631496,1.55036 0.359433,0.12095 0.71743,0.24567 1.071987,0.37342 l 0.0076,0.008 c 0.355654,0.12812 0.709115,0.25738 1.06012,0.3925 l 0.0076,0.008 c 0.703181,0.27024 1.404359,0.55261 2.089663,0.85141 5.167332,2.25298 9.841739,5.29081 14.216687,8.9652 h 17.06011 c 3.93861,-0.76128 8.20671,-1.18228 12.87473,-1.18228 v 0.008 h 0.008 c 0.5514,0 1.09569,0.008 1.6362,0.0227 0.54073,0.0113 1.08147,0.0227 1.61166,0.0472 0.53004,0.0227 1.04943,0.0476 1.5687,0.0831 0.4518,0.0227 0.89767,0.0593 1.34199,0.0949 0.3001,0.0227 0.59766,0.0476 0.89534,0.0832 0.12926,0.0113 0.25738,0.0227 0.38657,0.034 0.29404,0.034 0.58578,0.0593 0.87635,0.0949 0.2812,0.034 0.5621,0.071 0.83951,0.10658 0.0711,0.008 0.13531,0.004 0.20145,0.0227 0.10658,0.0113 0.2041,0.0227 0.30614,0.0472 0.21581,0.0227 0.42932,0.0593 0.64392,0.0949 0.3428,0.0476 0.68542,0.10658 1.02335,0.15874 0.0476,0.008 0.10658,0.0227 0.15874,0.034 0.40203,0.0711 0.80519,0.13984 1.20113,0.21467 0.0227,0.004 0.034,0.004 0.0593,0.008 0.0476,0.0113 0.0949,0.0227 0.14702,0.034 h 17.0417 c 8.71677,-7.3406 18.72227,-12.15069 31.38108,-13.25469 1.79006,-0.15874 3.64399,-0.25739 5.55806,-0.25739 1.91131,0 3.76203,0.0949 5.55795,0.25739 12.65881,1.104 22.66609,5.91409 31.38104,13.25469 h 20.32017 c -0.83248,-0.14929 -1.7218,-0.33563 -2.67178,-0.58224 -5.98095,-1.55524 -14.28136,-5.26035 -24.53613,-13.66522 -0.50872,-0.41741 -1.01386,-0.83361 -1.53195,-1.27465 -0.034,-0.0227 -0.0593,-0.0472 -0.0949,-0.0831 -2.0389,-1.73839 -4.15264,-3.65673 -6.33645,-5.77946 -13.73243,-13.34835 -21.78108,-34.30587 -33.37263,-52.1791 -11.59071,-17.87214 -27.18228,-32.65342 -55.59866,-32.65569 z m 0,3.53579 c 27.2084,0 41.31957,13.63699 52.62047,31.06242 11.3009,17.4251 19.32763,38.63403 33.88123,52.77971 0.64271,0.62494 1.27987,1.22781 1.91192,1.81999 -4.66398,-1.65683 -9.66104,-2.80222 -15.06244,-3.29681 -7.96944,-13.62073 -14.93673,-28.92888 -25.13061,-41.21023 -10.79108,-12.99995 -25.42144,-22.53233 -48.22057,-22.53233 -22.81501,0 -37.476059,9.54248 -48.26952,22.55675 -10.187301,12.28373 -17.150211,27.56897 -25.118363,41.18581 -5.369537,0.50514 -10.365165,1.62894 -15.01954,3.27844 0.62967,-0.59055 1.258621,-1.17872 1.899704,-1.80162 14.553714,-14.14594 22.561966,-35.35461 33.862866,-52.77971 11.300901,-17.42532 25.436033,-31.06242 52.644853,-31.06242 z m 66.35316,21.08005 c 0.004,1.1e-4 0.008,0 0.0113,0 l -0.008,0.008 z m -66.35316,1.10872 c 21.827,0 35.14639,8.78056 45.48752,21.2394 9.29019,11.19265 15.99141,25.40927 23.59858,38.67934 -0.72926,-0.0227 -1.45796,-0.0476 -2.19992,-0.0476 -1.71035,0 -3.37867,0.071 -5.02484,0.19578 -6.15583,-10.89441 -12.92202,-21.45324 -22.30556,-29.42623 -9.74665,-8.28121 -22.33036,-13.68975 -39.55578,-13.68975 -17.32343,0 -29.97596,5.4887 -39.74559,13.84913 -9.289511,7.94914 -16.000554,18.42898 -22.115603,29.24844 -1.630639,-0.11867 -3.296504,-0.18368 -4.994343,-0.18368 v 0.008 c -0.755376,1.5e-4 -1.50172,0.0227 -2.242772,0.0472 7.600441,-13.25938 14.309216,-27.46877 23.586293,-38.65489 10.343925,-12.47176 23.669855,-21.25765 45.512015,-21.25765 z m 0,20.5163 c 16.49091,0 28.07841,5.05183 37.26395,12.85633 8.4709,7.1975 14.85528,16.82033 20.73067,27.08541 -2.94939,0.38185 -5.78207,0.94866 -8.49937,1.69739 -10.94921,-13.80144 -25.77652,-24.1256 -49.49521,-24.1256 -23.70652,0 -38.561201,10.30625 -49.507431,24.09502 -0.131528,-0.034 -0.265701,-0.071 -0.398438,-0.10658 -0.0038,-0.001 -0.01134,-0.004 -0.01134,-0.008 -0.422135,-0.10658 -0.841927,-0.22072 -1.268447,-0.32504 -0.0038,-9.4e-4 -0.01134,-0.004 -0.01134,-0.008 -0.426898,-0.10658 -0.860939,-0.19918 -1.293052,-0.29405 -0.0038,-9.4e-4 -0.01134,-0.004 -0.01134,-0.008 -1.780611,-0.39251 -3.610356,-0.70795 -5.484435,-0.94988 5.830602,-10.18919 12.153298,-19.77252 20.534703,-26.9444 9.20947,-7.88084 20.86893,-12.97277 37.45376,-12.97277 z m 0,21.08005 h 0.008 c 22.08835,0.002 35.48662,8.99112 45.84291,21.69891 -2.99944,1.03638 -5.86617,2.27308 -8.59748,3.7197 -10.17865,-7.33021 -22.36165,-11.84535 -37.25159,-11.84535 -0.24189,0 -0.48855,-0.002 -0.72926,0 -14.54143,0.14476 -26.4937,4.62626 -36.497881,11.82078 -0.229039,-0.12095 -0.455357,-0.24302 -0.686589,-0.3617 -0.371149,-0.18973 -0.74589,-0.37493 -1.121801,-0.55737 -0.0038,-0.002 -0.01134,-0.004 -0.01134,-0.008 -0.376063,-0.18255 -0.752995,-0.36397 -1.133631,-0.53956 -0.0038,-0.002 -0.01134,-0.004 -0.01134,-0.008 -0.380636,-0.17537 -0.770759,-0.34621 -1.151433,-0.51466 -0.0038,-0.002 -0.01134,-0.004 -0.01134,-0.008 -0.385398,-0.16819 -0.774387,-0.32957 -1.16451,-0.48975 -0.0038,-0.002 -0.01134,-0.004 -0.01134,-0.008 -0.785008,-0.32239 -1.578218,-0.62135 -2.383749,-0.9131 -0.0038,-0.002 -0.0038,-0.0113 -0.0076,-0.0113 -0.305763,-0.10659 -0.616592,-0.21808 -0.924926,-0.32504 10.361726,-12.68489 23.78158,-21.65435 45.84903,-21.65602 z m 0.0227,20.66332 -0.008,0.008 -0.008,0.008 v 0.008 c 12.27307,0.001 22.05944,3.24647 30.60291,8.80581 -3.37319,2.33904 -6.53923,4.98002 -9.53507,7.85598 -0.78028,-0.25966 -1.57716,-0.50517 -2.38375,-0.7352 -0.0227,-0.008 -0.0476,-0.008 -0.0711,-0.0227 -0.4613,-0.1304 -0.92731,-0.25248 -1.39714,-0.37342 -0.47078,-0.12095 -0.94749,-0.23244 -1.42787,-0.3428 -0.46246,-0.10659 -0.9261,-0.20977 -1.3971,-0.30615 -0.0113,-0.003 -0.034,-0.0113 -0.0476,-0.0113 -0.0476,-0.0113 -0.0949,-0.0227 -0.14702,-0.034 -0.421,-0.0831 -0.84669,-0.15874 -1.27465,-0.23962 -0.0227,-0.004 -0.034,-0.0113 -0.0593,-0.0113 -0.0476,-0.008 -0.0949,-0.008 -0.14703,-0.0227 -0.32957,-0.0593 -0.65934,-0.11867 -0.99254,-0.17197 -0.25625,-0.0476 -0.51349,-0.0831 -0.77197,-0.12207 -0.25965,-0.034 -0.52176,-0.0711 -0.78383,-0.10659 -0.23963,-0.034 -0.48144,-0.0711 -0.72337,-0.0949 -0.0949,-0.0113 -0.20031,-0.0227 -0.30009,-0.034 -0.12586,-0.0113 -0.25361,-0.0227 -0.37947,-0.0476 -0.24415,-0.0227 -0.48854,-0.0593 -0.73519,-0.0831 -0.45063,-0.0473 -0.90244,-0.0949 -1.36052,-0.13531 -0.51583,-0.0472 -1.03759,-0.0832 -1.56253,-0.12208 -0.0227,-0.001 -0.034,-0.004 -0.0593,-0.008 -0.008,-4.5e-4 -0.004,6.1e-4 -0.0227,0 -0.53839,-0.034 -1.08268,-0.0593 -1.63003,-0.0831 -0.55499,-0.0227 -1.11349,-0.0476 -1.67902,-0.0593 -0.56802,-0.0113 -1.13722,-0.0227 -1.7159,-0.0227 -0.26684,0 -0.53836,-0.003 -0.80277,0 -7.60116,0.071 -14.28325,1.20669 -20.2221,3.18036 -0.20523,-0.19805 -0.41269,-0.39251 -0.61901,-0.58817 -0.30237,-0.28687 -0.60597,-0.58341 -0.9131,-0.86446 l -0.008,-0.008 c -0.30576,-0.28234 -0.60948,-0.56327 -0.91899,-0.83955 -0.003,-0.003 -0.0113,-0.003 -0.0113,-0.008 -0.30954,-0.27628 -0.62373,-0.55616 -0.938,-0.82768 l -0.008,-0.008 c -0.31408,-0.27137 -0.63205,-0.54308 -0.94983,-0.8087 -0.004,-0.003 -0.0113,-0.003 -0.0113,-0.008 -0.31786,-0.2657 -0.63443,-0.53598 -0.95577,-0.79688 v -0.008 c -0.32239,-0.26078 -0.64271,-0.51704 -0.96884,-0.772 -0.003,-0.003 -0.0113,-0.003 -0.0113,-0.008 -0.17197,-0.1338 -0.34734,-0.2657 -0.52056,-0.39844 -0.15874,-0.12208 -0.31785,-0.24643 -0.47788,-0.36775 -0.33071,-0.24907 -0.65813,-0.49209 -0.99254,-0.73519 -0.004,-0.003 -0.0113,-0.003 -0.0113,-0.008 -0.33449,-0.24303 -0.67238,-0.4862 -1.01152,-0.72337 -0.004,-0.003 -0.0113,-0.004 -0.0113,-0.008 -0.0593,-0.0472 -0.12208,-0.0831 -0.18369,-0.13531 8.53247,-5.53081 18.32156,-8.76182 30.55998,-8.76287 z m 132.74896,18.17537 -0.10659,0.0593 h 0.10659 z M 0,209.68365 v 0.0227 h 0.00755906 0.05933858 l -0.05933858,-0.0227 z m 199.65358,0.0113 v 0.008 c -0.12586,0 -0.24794,0.004 -0.37342,0.008 h 1.12774 c -0.25247,-0.002 -0.49924,-0.0113 -0.75421,-0.0113 z" />
    </pattern>
    <pattern
       inkscape:collect="always"
       xlink:href="#ap107"
       preserveAspectRatio="xMidYMid"
       id="pattern1"
       patternTransform="matrix(0.41,0,0,0.41,848.4236,536.37873)"
       x="0"
       y="0" />
  </defs>
  <g
     inkscape:label="komora"
     inkscape:groupmode="layer"
     id="layer1"
     style="display:inline">
    <path
       style="display:inline;fill:#cff09f;fill-opacity:1;stroke-width:1.04353"
       d="m 124.20026,189.9475 c -29.415888,-1.30674 -54.703584,-4.71579 -73.386267,-9.89325 -4.674003,-1.29529 -12.403798,-3.84825 -13.768232,-4.5473 -0.564896,-0.28942 -0.909947,-0.96406 -1.628937,-3.18482 -6.29918,-19.45652 -7.431238,-43.23 -3.089571,-64.88167 C 35.73006,90.470829 41.659277,76.64762 50.770242,64.442969 54.048155,60.052022 61.237189,52.743645 65.09628,49.879109 78.914122,39.622368 99.113768,33.072317 124.91582,30.481695 c 6.09819,-0.612283 23.8598,-0.863013 30.63692,-0.432483 27.30957,1.734901 51.46326,8.301389 67.63837,18.388349 16.15331,10.073353 27.96694,27.582754 33.52315,49.685825 5.80657,23.099014 4.42634,49.198314 -3.75504,71.005764 -0.72663,1.93682 -1.62356,4.12199 -1.99318,4.85597 -0.64976,1.29025 -0.7697,1.37212 -3.61316,2.46692 -17.47965,6.73006 -41.96663,11.011 -74.9249,13.09871 -8.1777,0.518 -39.66661,0.77704 -48.22772,0.39675 z"
       id="edit_volor__4_stena"
       inkscape:label="edit_volor__4_stena" />
    <g
       id="edit_pattern__5__vzor">
      <path
         style="display:inline;opacity:0.502924;fill:url(#pattern12);stroke-width:0.964999"
         d="M 81.903613,35.783132 C 127.3558,24.828258 166.1287,28.066876 203.16867,34.987951 c 41.60556,22.574316 57.45284,51.927125 58.84338,85.084339 35.53603,73.9059 -250.529314,92.79562 -234.578315,-0.79518 13.5249,-28.474621 6.513274,-59.801538 54.469878,-83.493978 z"
         id="path4"
         inkscape:label="stena"
         sodipodi:nodetypes="ccccc" />
    </g>
    <g
       id="edit_pattern__5__vlny"
       inkscape:label="edit_pattern__5__vlny"
       style="display:inline;fill:url(#pattern9);fill-opacity:1"
       transform="translate(-0.72415812,0.23596751)">
      <path
         style="display:inline;fill:url(#pattern9);fill-opacity:1;stroke-width:0.264583"
         d="M 29.421687,103.37349 C 46.922766,71.831089 47.097779,34.554342 143.13253,27.433735 c 64.76055,3.765793 107.35582,26.219953 118.08433,75.542165 0.70636,33.4413 6.23999,82.04722 -32.20481,81.50603 L 77.53012,187.26506 C 17.715697,183.85147 25.738844,153.52121 29.421687,103.37349 Z"
         id="path1-3"
         sodipodi:nodetypes="cccccc" />
    </g>
    <path
       id="fixed__obrys_komory"
       d="M 34.420336,177.0632 C 20.762869,139.82322 25.315355,81.210791 60.109358,50.771186 97.179602,18.064789 195.38323,20.331571 232.77865,52.390309 c 33.16811,28.496657 37.39541,86.461451 19.51066,124.672891 -47.15075,21.04865 -169.417525,20.72483 -217.868974,0 z"
       fill="none"
       stroke="#2f1c12"
       stroke-width="4.54299"
       stroke-linejoin="round"
       style="display:inline"
       inkscape:label="fixed__obrys_komory" />
  </g>
  <g
     inkscape:groupmode="layer"
     id="layer11"
     inkscape:label="koberec">
    <path
       style="fill:#eaad76;fill-opacity:1;stroke-width:1.04353"
       d="m 133.78857,191.48015 c -35.273311,-1.06797 -66.194562,-5.95629 -91.261796,-14.42753 -4.775421,-1.6138 -5.117814,-1.77892 -6.285981,-3.03158 -2.4144,-2.58899 -3.021103,-4.64252 -2.042916,-6.91471 5.359027,-12.44834 60.492178,-22.34125 124.491653,-22.33839 42.74403,0.002 74.72427,4.47889 88.26722,12.3567 2.75364,1.60174 5.39364,4.17056 6.19197,6.02501 1.43958,3.34394 0.20491,7.01316 -3.7729,11.21238 l -2.19837,2.32074 -5.10367,1.61548 c -20.5569,6.50692 -43.17475,10.52234 -69.64581,12.36445 -12.11578,0.8431 -27.23041,1.16288 -38.6394,0.81745 z"
       id="edit_color__2__koberec"
       inkscape:label="edit_color__2__koberec" />
    <path
       style="fill:none;fill-opacity:0.989744;stroke:url(#linearGradient3);stroke-width:1.39082;stroke-dasharray:none"
       d="M 36.979394,176.00044 C 90.570559,196.41549 186.20502,198.9086 247.48207,177.44726 305.37855,127.31006 -6.2555877,138.76424 36.979394,176.00044 Z"
       id="path3-3"
       sodipodi:nodetypes="ccc"
       inkscape:label="fixed_vnejsi_tvar__koberec" />
  </g>
  <g
     inkscape:groupmode="layer"
     id="layer17"
     inkscape:label="Podlozka">
    <path
       style="fill:#3f6c78;fill-opacity:1;stroke:#000000;stroke-width:0.555699;stroke-linecap:round;stroke-dasharray:none"
       d="m 88.268392,157.64892 c 10.054505,1.14685 32.337158,19.80044 45.877658,20.02445 l -14.41341,12.76892 c -13.18122,-1.14106 -30.7932,-18.5 -44.541701,-20.84391 z"
       id="path4-2"
       sodipodi:nodetypes="ccccc"
       inkscape:label="edit_color_podlozka" />
  </g>
  <g
     inkscape:groupmode="layer"
     id="layer13"
     inkscape:label="mravenecec 1">
    <g
       id="g87"
       transform="translate(38.363096,-27.338136)">
      <path
         style="fill:#464646;fill-opacity:1;stroke:url(#linearGradient200);stroke-width:0.935212;stroke-dasharray:none"
         d="m 59.219919,123.57775 c 15.97969,18.49718 -33.57819,34.32455 -38.95001,7.98269 5.29276,-32.199008 40.70124,-21.55144 38.95001,-7.98269 z"
         id="path163"
         sodipodi:nodetypes="ccc" />
      <path
         style="fill:#494949;fill-opacity:1;stroke:url(#linearGradient199);stroke-width:0.935212;stroke-dasharray:none"
         d="m 39.813729,110.08978 c -0.99535,-4.17485 2.49561,-8.34972 4.95476,-12.524588 2.55658,-2.21695 4.32937,-5.36023 10.73533,-3.02791 0.76625,2.83274 -0.27904,5.16573 -10.04715,5.09241 -2.31029,3.184378 -4.4269,6.417208 -3.85372,10.322448 z"
         id="path164"
         sodipodi:nodetypes="cccccc" />
      <path
         style="fill:#494949;fill-opacity:1;stroke:url(#linearGradient198);stroke-width:0.935212;stroke-dasharray:none"
         d="m 26.738649,117.10901 c -4.04908,-3.52019 -5.3553,-7.62813 -4.26661,-12.24928 4.1917,-1.8553 7.10948,-4.16557 6.19345,-7.845048 -4.01253,-0.12796 -7.69055,0.49666 -8.80847,6.881628 -0.92463,5.31991 0.0742,10.41354 5.36766,15.00194 z"
         id="path165"
         sodipodi:nodetypes="cccccc" />
      <path
         style="fill:#494949;fill-opacity:1;stroke:url(#linearGradient197);stroke-width:0.935212;stroke-dasharray:none"
         d="m 39.372399,145.55428 c -9.15217,9.92334 0.7289,14.55026 6.312,14.43036 6.64348,-0.14846 7.40023,-11.76419 1.21989,-15.3956 -4.58574,1.21343 -3.38221,0.98656 -7.53189,0.96524 z"
         id="path166"
         sodipodi:nodetypes="cccc" />
      <path
         style="fill:#494949;fill-opacity:1;stroke:url(#linearGradient196);stroke-width:0.935212;stroke-dasharray:none"
         d="m 49.585639,159.08695 c 6.48714,16.66916 -18.33598,30.90101 -33.58234,20.50723 -2.6022,-1.70398 -4.86479,-13.99546 3.71608,-19.81908 0.79726,-0.94066 7.02356,-6.03476 14.72667,-1.92686 l 1.92686,-1.92684 c 0.94801,2.36572 8.88395,6.17917 13.21273,3.16555 z"
         id="path167"
         sodipodi:nodetypes="cccccc" />
      <path
         style="fill:#494949;fill-opacity:1;stroke:url(#linearGradient195);stroke-width:0.935212;stroke-dasharray:none"
         d="m 48.209309,173.67598 c 3.98958,4.55128 2.92735,11.62802 -1.22634,19.30342 0.65973,3.17368 13.75494,2.14753 14.11042,0.8073 -0.21091,-3.31688 -4.75307,-5.26776 -8.75509,-4.42063 3.22608,-5.73485 2.9186,-12.43342 -1.92686,-20.36959 z"
         id="path168"
         sodipodi:nodetypes="cccccc" />
      <path
         style="fill:#494949;fill-opacity:1;stroke:url(#linearGradient194);stroke-width:0.935212;stroke-dasharray:none"
         d="m 49.707019,147.04264 c 4.36128,0.80991 6.59267,3.5466 7.55979,6.45389 -1.03381,5.80821 -5.80123,9.823 -4.35039,8.40081 6.39982,-0.90229 8.3e-4,6.68976 -2.93724,1.13618 -0.68613,-5.23034 9.07619,-8.79449 1.1132,-11.8327 z"
         id="path169"
         sodipodi:nodetypes="cccccc" />
      <path
         style="fill:#ffffff;fill-opacity:1;stroke:url(#linearGradient193);stroke-width:0.935212;stroke-dasharray:none"
         d="m 34.308429,133.62492 c -2.52848,-0.75449 -6.56929,-7.92008 -0.41291,-11.56113 1.96921,-0.72611 5.73379,-0.0478 7.15329,5.36947 0.33107,1.1141 0.61878,6.39906 -6.74038,6.19166 z"
         id="path170"
         sodipodi:nodetypes="cccc" />
      <ellipse
         style="fill:#000000;fill-opacity:1;stroke:url(#linearGradient192);stroke-width:0.935221;stroke-dasharray:none"
         id="ellipse170"
         cx="-11.524382"
         cy="133.76143"
         rx="2.5294986"
         ry="3.4767649"
         transform="matrix(0.93323162,-0.35927529,0.3543854,0.93509945,0,0)" />
      <path
         style="fill:#ffffff;fill-opacity:1;stroke:url(#linearGradient191);stroke-width:0.826663;stroke-dasharray:none"
         d="m 50.643129,128.9309 c -6.82924,-1.18231 -5.34397,-9.19048 -2.87209,-10.3378 1.31895,-0.98948 4.58064,-0.90587 6.52902,2.76817 1.16559,2.58499 0.61913,3.36446 0.0825,6.22429 z"
         id="path171"
         sodipodi:nodetypes="ccccc" />
      <ellipse
         style="fill:#000000;fill-opacity:1;stroke:url(#linearGradient190);stroke-width:0.814668;stroke-dasharray:none"
         id="ellipse171"
         cx="-19.361879"
         cy="130.33615"
         rx="2.3891141"
         ry="3.0284514"
         transform="matrix(0.79748297,-0.60334145,0.49598061,0.8683336,0,0)" />
      <path
         style="fill:#b9031e;fill-opacity:1;stroke:url(#linearGradient189);stroke-width:0.935212;stroke-dasharray:none"
         d="m 39.698049,137.52978 c 4.88873,0.26926 7.11501,3.23596 12.25373,-2.52344 l -0.3445,1.22638 c -2.58257,8.42638 -8.03991,3.6263 -11.90923,1.29706 z"
         id="path172"
         sodipodi:nodetypes="cccc" />
      <circle
         style="fill:#ffffff;fill-opacity:1;stroke-width:0.467606;stroke-dasharray:none"
         id="circle172"
         cx="35.227875"
         cy="127.31031"
         r="0.6244449" />
      <ellipse
         style="fill:#ffffff;fill-opacity:1;stroke-width:0.375265;stroke-dasharray:none"
         id="ellipse172"
         cx="56.94363"
         cy="119.34004"
         rx="0.50941557"
         ry="0.49298277"
         transform="rotate(4.1271883)" />
      <ellipse
         style="fill:#ffffff;fill-opacity:1;stroke-width:0.1348;stroke-dasharray:none"
         id="ellipse173"
         cx="57.686413"
         cy="119.99501"
         rx="0.19719306"
         ry="0.1643275"
         transform="rotate(4.1271883)" />
      <ellipse
         style="fill:#ffffff;fill-opacity:1;stroke-width:0.1348;stroke-dasharray:none"
         id="ellipse174"
         cx="36.246719"
         cy="127.96761"
         rx="0.19719306"
         ry="0.1643275" />
      <path
         style="fill:#494949;fill-opacity:1;stroke:url(#linearGradient188);stroke-width:0.935212;stroke-dasharray:none"
         d="m 34.784049,163.23755 c -10.42184,-8.10634 -7.20174,-10.49065 -5.56803,-12.27094 4.53149,-2.58412 4.41055,-2.94022 8.9636,-3.97645 0,0 -1.96947,2.77061 -3.39687,4.50259 l -2.81409,3.32758 3.57846,4.54186 c 2.38089,-0.16072 4.19714,0.44493 1.51397,7.15689 -5.72212,1.66512 -7.13825,0.10063 -7.01927,-2.61501 -0.50114,-3.36977 2.72754,-1.25021 4.74223,-0.66652 z"
         id="path174"
         sodipodi:nodetypes="ccscccccc" />
      <path
         style="fill:url(#linearGradient186);stroke:url(#linearGradient187);stroke-width:0.513311;stroke-dasharray:none"
         d="m 27.714909,121.59006 c 0.80306,-2.91806 2.63491,-3.77004 5.03842,-2.99753 0.88707,0.76524 -1.07497,0.046 -2.77613,1.08959 -1.70259,1.04465 -2.53876,3.05472 -2.26229,1.90794 z"
         id="path175"
         sodipodi:nodetypes="ccsc" />
      <path
         style="fill:url(#linearGradient184);stroke:url(#linearGradient185);stroke-width:0.478578;stroke-dasharray:none"
         d="m 51.248869,115.19348 c -2.15961,-1.81613 -4.01679,-1.50177 -5.45394,0.36231 -0.27654,1.05667 0.84971,-0.53318 2.70788,-0.63124 1.8598,-0.098 3.5647,1.00332 2.74604,0.26888 z"
         id="path176"
         sodipodi:nodetypes="ccsc" />
      <path
         style="fill:none;fill-opacity:1;stroke:#000000;stroke-width:0.434874;stroke-linecap:round;stroke-linejoin:bevel;stroke-dasharray:none;stroke-opacity:1"
         d="m 35.381029,133.74154 c -1.44144,0.10275 -1.22441,0.12749 -2.80453,0.50753"
         id="path177"
         sodipodi:nodetypes="cc" />
      <path
         style="fill:none;fill-opacity:1;stroke:#000000;stroke-width:0.341352;stroke-linecap:round;stroke-linejoin:bevel;stroke-dasharray:none;stroke-opacity:1"
         d="m 50.774359,129.09482 c 2.89924,-0.72918 1.93146,-1.38827 4.27361,-1.33247"
         id="path178"
         sodipodi:nodetypes="cc" />
      <path
         style="fill:none;fill-opacity:1;stroke:#000000;stroke-width:0.748169;stroke-linecap:round;stroke-linejoin:bevel;stroke-dasharray:none;stroke-opacity:1"
         d="m 21.431279,158.59123 c -9.46754,15.60591 -0.46659,21.5138 11.02815,24.18787"
         id="path179"
         sodipodi:nodetypes="cc" />
      <path
         style="fill:none;fill-opacity:1;stroke:#000000;stroke-width:0.748167;stroke-linecap:round;stroke-linejoin:bevel;stroke-dasharray:none;stroke-opacity:1"
         d="m 27.635949,156.46203 c -3.01271,8.32255 -8.68402,20.67262 16.23558,20.83673"
         id="path180"
         sodipodi:nodetypes="cc" />
      <path
         style="fill:none;fill-opacity:1;stroke:#000000;stroke-width:0.748167;stroke-linecap:round;stroke-linejoin:bevel;stroke-dasharray:none;stroke-opacity:1"
         d="m 37.623639,165.06831 c -1.67111,3.61373 7.52843,7.91164 11.99155,4.46197"
         id="path181"
         sodipodi:nodetypes="cc" />
      <path
         style="fill:#494949;fill-opacity:1;stroke:url(#linearGradient183);stroke-width:0.935212;stroke-dasharray:none"
         d="m 27.880769,193.51973 c 8.62036,-10.34747 5.34604,-14.07311 6.70293,-20.25664 l 3.02792,-0.55053 c 0.33135,6.01602 0.23782,11.94177 -3.7161,18.30513 3.74961,0.30854 7.19373,3.16734 5.18283,4.6548 -2.34357,3.3486 -13.36931,-0.0658 -11.19758,-2.15276 z"
         id="path182"
         sodipodi:nodetypes="cccccc" />
    </g>
    <g
       inkscape:groupmode="layer"
       id="layer14"
       inkscape:label="pasky">
      <path
         style="fill:#901328;fill-opacity:1;stroke:#000000;stroke-width:1.02273;stroke-linecap:round;stroke-dasharray:none;stroke-opacity:1"
         d="m 24.881969,119.16512 c -2.34489,2.67608 -3.04671,5.31183 -3.51472,7.66112 l 30.61472,-13.65414 c -2.22289,-1.10922 -3.99283,-2.42124 -6.86259,-2.45233 z"
         id="path260"
         sodipodi:nodetypes="ccccc"
         transform="translate(38.363096,-27.338136)"
         inkscape:label="edit_color__pasky" />
      <path
         style="fill:#901328;fill-opacity:1;stroke:#000000;stroke-width:0.178585;stroke-linecap:round;stroke-dasharray:none;stroke-opacity:1"
         d="m 31.821729,160.70671 c -0.30357,0.63023 -0.032,0.94039 0.60084,1.07962 l 2.99055,-3.15356 c -0.2878,-0.26124 -0.51695,-0.57023 -0.88848,-0.57756 z"
         id="path263"
         sodipodi:nodetypes="ccccc"
         transform="translate(38.363096,-27.338136)"
         inkscape:label="edit_color__pasky" />
      <path
         style="fill:#901328;fill-opacity:1;stroke:#000000;stroke-width:0.155361;stroke-linecap:round;stroke-dasharray:none;stroke-opacity:1"
         d="m 53.699169,161.40883 c 0.34082,-0.0924 0.78479,-0.6171 0.71563,-0.84012 l -2.9458,-1.91367 c -0.35402,0.15977 -0.46365,0.45163 -0.40799,0.7864 z"
         id="path264"
         sodipodi:nodetypes="ccccc"
         transform="translate(38.363096,-27.338136)"
         inkscape:label="edit_color__pasky" />
    </g>
  </g>
  <g
     id="g86"
     transform="translate(48.041872,-19.695677)"
     inkscape:label="cinky"
     style="display:inline">
    <circle
       style="fill:#901328;fill-opacity:1;stroke:#000000;stroke-width:0.93;stroke-linecap:round;stroke-dasharray:none;stroke-opacity:1"
       id="path267"
       cx="38.884697"
       cy="188.96985"
       r="3.8399696"
       transform="rotate(-9.2175464)"
       inkscape:label="edit_color__cinky" />
    <circle
       style="fill:#901328;fill-opacity:1;stroke:#000000;stroke-width:0.93;stroke-linecap:round;stroke-dasharray:none;stroke-opacity:1"
       id="circle267"
       cx="51.932335"
       cy="188.96985"
       r="3.8399696"
       transform="rotate(-9.2175464)"
       inkscape:label="edit_color__cinky" />
    <rect
       style="fill:#901328;fill-opacity:1;stroke:#000000;stroke-width:0.93;stroke-linecap:round;stroke-dasharray:none;stroke-opacity:1"
       id="rect267"
       width="4.87222"
       height="1.89934"
       x="42.97242"
       y="188.18539"
       transform="rotate(-9.2175464)"
       inkscape:label="edit_color__cinky" />
    <circle
       style="fill:#901328;fill-opacity:1;stroke:#000000;stroke-width:0.93;stroke-linecap:round;stroke-dasharray:none;stroke-opacity:1"
       id="circle85"
       cx="112.972"
       cy="138.73297"
       r="3.8399696"
       transform="rotate(14.28889)"
       inkscape:label="edit_color__cinky" />
    <circle
       style="fill:#901328;fill-opacity:1;stroke:#000000;stroke-width:0.93;stroke-linecap:round;stroke-dasharray:none;stroke-opacity:1"
       id="circle86"
       cx="126.01964"
       cy="138.73297"
       r="3.8399696"
       transform="rotate(14.28889)"
       inkscape:label="edit_color__cinky" />
    <rect
       style="fill:#901328;fill-opacity:1;stroke:#000000;stroke-width:0.93;stroke-linecap:round;stroke-dasharray:none;stroke-opacity:1"
       id="rect86"
       width="4.87222"
       height="1.89934"
       x="117.05972"
       y="137.94852"
       transform="rotate(14.28889)"
       inkscape:label="edit_color__cinky" />
  </g>
  <g
     inkscape:groupmode="layer"
     id="layer29"
     inkscape:label="Činky"
     style="display:inline"
     transform="translate(-0.243663,-90.731348)" />
  <g
     inkscape:groupmode="layer"
     id="layer15"
     inkscape:label="Míč">
    <g
       id="g84"
       transform="translate(12.934695,-44.642937)"
       style="display:inline">
      <ellipse
         style="fill:#6f6f6f;stroke:#000000;stroke-width:0.93;stroke-linecap:round;stroke-dasharray:none"
         id="path1-0"
         cx="144.92169"
         cy="187.16565"
         rx="11.728916"
         ry="10.834337"
         inkscape:label="edit_color__mic" />
      <path
         style="fill:#6f6f6f;stroke:#000000;stroke-width:0.93;stroke-linecap:round;stroke-dasharray:none"
         d="m 137.33072,179.12868 c 3.11661,5.61416 10.76492,10.15682 19.14363,8.61676"
         id="path2"
         sodipodi:nodetypes="cc"
         inkscape:label="edit_color__mic" />
      <path
         style="fill:#6f6f6f;stroke:#000000;stroke-width:0.93;stroke-linecap:round;stroke-dasharray:none"
         d="m 133.6574,183.92363 c 3.68845,6.39166 12.37211,11.51054 21.07542,9.11728"
         id="path3-0"
         sodipodi:nodetypes="cc"
         inkscape:label="edit_color__mic" />
    </g>
  </g>
  <g
     id="edit_variant__6__lustr"
     transform="matrix(0.29146249,0,0,0.29146249,71.538947,-5.74626)"
     inkscape:label="edit_variant__6__lustr">
    <path
       style="fill:#2092ba;fill-opacity:1;stroke:url(#linearGradient66);stroke-width:1.736;stroke-linecap:round;stroke-dasharray:none;stroke-opacity:1"
       d="m 177.55695,252.65656 c -1.73338,-63.05548 102.26339,-61.44269 107.28516,-0.53642 z"
       id="path66"
       sodipodi:nodetypes="ccc" />
    <path
       style="fill:#2092ba;fill-opacity:1;stroke:url(#linearGradient67);stroke-width:1.736;stroke-linecap:round;stroke-dasharray:none"
       d="m 223.41379,205.20689 c -25.76887,-37.12925 35.21599,-42.19266 13.65517,0.75863"
       id="path67"
       sodipodi:nodetypes="cc" />
    <path
       style="fill:#2092ba;fill-opacity:1;stroke:url(#linearGradient68);stroke-width:1.2;stroke-linecap:round;stroke-dasharray:none;stroke-opacity:1"
       d="m 228.43965,175.38362 -0.28448,-57.60776 1.51724,0.37931 v 57.08621 z"
       id="path68"
       sodipodi:nodetypes="ccccc" />
    <path
       style="fill:#fcf425;fill-opacity:1;stroke:url(#linearGradient69);stroke-width:1.23858138;stroke-linecap:round;stroke-dasharray:none;stroke-opacity:1"
       d="m 225.55644,253.17074 c 3.09957,6.16929 10.70819,6.05511 13.37665,0"
       id="path69"
       sodipodi:nodetypes="cc" />
  </g>
  <g
     inkscape:groupmode="layer"
     id="layer16"
     inkscape:label="Švihadlo">
    <g
       id="g85"
       transform="translate(7.0316363,6.0568962)"
       style="display:inline">
      <path
         style="fill:none;fill-opacity:1;stroke:#000000;stroke-width:1.4272;stroke-linecap:round;stroke-dasharray:none;stroke-opacity:1"
         d="m 157.97469,156.04018 c 13.38906,-3.94243 18.05661,-1.9266 16.93414,4.04478 -5.19382,5.3739 -8.05163,2.98639 -8.521,0.59324 -1.27432,-3.14411 5.36076,-2.97472 8.41313,-0.59324 3.06398,3.99585 0.0674,6.51351 -2.58865,9.11424 -6.2947,7.32513 0.86077,9.54265 5.01553,8.46707 l 0.43144,-0.32359"
         id="path78"
         sodipodi:nodetypes="ccccccc" />
      <path
         style="fill:url(#linearGradient87);fill-opacity:1;stroke:#000000;stroke-width:1.4272;stroke-linecap:round;stroke-dasharray:none;stroke-opacity:1"
         d="m 150.9686,155.67239 5.0646,-0.92655 c 0.54716,0.75337 1.68174,0.0382 1.18647,3.39762 l -5.60877,1.07861 c -2.21692,-0.85419 -1.50819,-2.41522 -0.6423,-3.54968 z"
         id="path79"
         sodipodi:nodetypes="ccccc" />
      <path
         style="fill:#b5a667;fill-opacity:1;stroke:#000000;stroke-width:1.4272;stroke-linecap:round;stroke-dasharray:none;stroke-opacity:1"
         d="m 176.79639,175.72477 5.06946,-2.96617 c 1.12598,-0.0293 2.31002,-0.19665 2.319,2.42687 l -5.3391,3.66727 c -1.8713,-0.84463 -2.76319,-1.85248 -2.04936,-3.12797 z"
         id="path80"
         sodipodi:nodetypes="ccccc" />
      <path
         style="fill:none;fill-opacity:1;stroke:#000000;stroke-width:0.93;stroke-linecap:round;stroke-dasharray:none;stroke-opacity:1"
         d="m 151.39326,156.45376 c 1.56292,0.9137 1.15679,1.82741 0.70285,2.74111"
         id="path81"
         sodipodi:nodetypes="cc" />
      <path
         style="fill:none;fill-opacity:1;stroke:#000000;stroke-width:0.93;stroke-linecap:round;stroke-dasharray:none;stroke-opacity:1"
         d="m 177.53918,175.64149 c 0.89354,0.46396 2.34983,-0.43874 2.03825,2.95196"
         id="path82"
         sodipodi:nodetypes="cc" />
    </g>
  </g>
  <g
     id="g34"
     transform="matrix(0.59405036,0,0,0.59405036,151.04063,53.857977)"
     style="stroke-width:1.33659;stroke-dasharray:none"
     inkscape:label="sklenice" />
  <g
     id="edit_variant__3__hrnek"
     inkscape:label="edit_variant__3__hrnek"
     style="display:inline">
    <g
       id="edit_variant__3"
       transform="matrix(0.53679068,0,0,1.0676693,184.87763,8.2810095)"
       style="display:inline;stroke-width:1.15369;stroke-dasharray:none"
       inkscape:label="šálek">
      <g
         id="g38"
         transform="translate(-52.913793,-13.275862)"
         style="stroke-width:1.15369;stroke-dasharray:none">
        <path
           style="fill:#e8e5e1;fill-opacity:1;stroke:#000000;stroke-width:1.15369;stroke-dasharray:none;stroke-opacity:1"
           d="m 101.65269,114.72807 c 3.11078,-2.49116 16.67516,-2.76129 22.66399,-0.067 -0.62561,5.88388 -2.0838,10.89555 -6.43711,12.87422 0.18345,0.42998 0.36828,0.85996 0.36676,1.28993 -3.53934,0.23132 -7.09582,0.37692 -10.76001,-0.016 -0.17746,-0.47901 0.12483,-0.8514 0.20116,-1.27401 -4.96007,-2.84942 -5.84462,-7.66113 -6.03479,-12.80717 z"
           id="path35"
           sodipodi:nodetypes="cccccccc" />
        <path
           style="fill:#e8e5e1;fill-opacity:1;stroke:#000000;stroke-width:1.15369;stroke-dasharray:none;stroke-opacity:1"
           d="m 123.76794,118.7999 c 2.64079,-0.21902 4.31411,0.42194 3.55603,3.22414 -2.2305,4.36655 -4.28557,2.94408 -6.40086,3.50862 l 0.75862,-1.51724 c 1.70341,0.33472 3.11463,-0.0402 3.93535,-1.84914 1.36782,-2.57342 -1.22092,-1.56709 -2.22845,-1.99138 z"
           id="path36"
           sodipodi:nodetypes="ccccccc" />
        <path
           style="fill:#d0c9c1;fill-opacity:1;stroke:#000000;stroke-width:1.15369;stroke-dasharray:none;stroke-opacity:1"
           d="m 101.93965,114.7888 c 3.90324,-2.79289 18.62104,-2.37238 22.52155,-0.0474 -6.82681,2.24516 -16.34972,1.86771 -22.52155,0.0474 z"
           id="path37"
           sodipodi:nodetypes="ccc" />
        <path
           style="fill:#d0c9c1;fill-opacity:1;stroke:#000000;stroke-width:0.84645;stroke-dasharray:none;stroke-opacity:1"
           d="m 107.82794,127.53531 c 3.74119,0.4386 6.83862,0.41848 10.07746,-0.022"
           id="path38"
           sodipodi:nodetypes="cc" />
      </g>
      <path
         style="fill:#ac841d;fill-opacity:1;stroke:none;stroke-width:1.15369;stroke-dasharray:none;stroke-opacity:1"
         d="m 52.773236,102.07589 c 5.497685,1.09378 10.292883,0.84964 14.68677,0.12139 -5.683144,-0.73538 -9.604994,-0.8522 -14.68677,-0.12139 z"
         id="path39"
         sodipodi:nodetypes="ccc" />
    </g>
  </g>
  <g
     id="edit_variant__3__sklenice"
     inkscape:label="edit_variant__3__sklenice"
     transform="matrix(1.2483588,0,0,1.2483588,-130.68511,31.689782)">
    <path
       style="fill:#beeff6;fill-opacity:1;stroke:#000000;stroke-width:0.794002;stroke-dasharray:none;stroke-opacity:1"
       d="m 266.92088,78.833046 -1.23931,-15.94206 c 1.00678,-1.624568 8.68394,-1.487045 10.36515,-0.168996 l -1.23931,16.16739 c -1.25608,1.332187 -5.63268,1.94343 -7.88653,-0.05632 z"
       id="path31"
       sodipodi:nodetypes="ccccc" />
    <path
       style="fill:#beeff6;fill-opacity:1;stroke:#000000;stroke-width:0.794002;stroke-dasharray:none;stroke-opacity:1"
       d="m 265.68157,63.003653 c -0.68752,1.765459 9.32427,2.849957 10.42149,-0.225329"
       id="path32"
       sodipodi:nodetypes="cc" />
    <path
       style="fill:#f6b33d;fill-opacity:1;stroke:none;stroke-width:0.794002;stroke-dasharray:none;stroke-opacity:1"
       d="m 267.22293,78.870732 c 3.57541,2.069951 6.35126,0.781955 7.47181,0.075 l 0.43429,-8.777694 c -2.77737,-0.725436 -6.45274,-0.843474 -8.46358,0.30558 z"
       id="path33"
       sodipodi:nodetypes="ccccc" />
    <path
       style="fill:#eb8500;fill-opacity:1;stroke:#eb8500;stroke-width:0.794002;stroke-dasharray:none;stroke-opacity:1"
       d="m 274.15695,78.891322 c 0.65961,-0.339999 -0.46075,-0.392827 -1.28323,-0.448116 -1.29225,-0.08686 -2.76657,-0.309898 -3.82744,-0.150033 -1.48309,0.223494 -1.88372,0.2236 -1.03924,0.542481 1.50484,0.848179 3.59724,1.000553 5.4822,0.371976 z"
       id="path34"
       sodipodi:nodetypes="cssccc" />
  </g>
  <g
     id="g65"
     transform="matrix(1.0027602,0,0,0.63296427,168.79904,25.025292)"
     inkscape:label="stůl"
     style="display:inline">
    <path
       style="fill:#ba8720;fill-opacity:1;stroke:url(#linearGradient63);stroke-width:0.756288;stroke-linecap:round;stroke-dasharray:none;stroke-opacity:1"
       d="m 26.094735,230.01875 -0.287853,-57.7641 7.981581,0.13382 v 57.14092 z"
       id="path63"
       sodipodi:nodetypes="ccccc" />
    <path
       style="fill:#ba8720;fill-opacity:1;stroke:url(#linearGradient64);stroke-width:0.747702;stroke-linecap:round;stroke-dasharray:none;stroke-opacity:1"
       d="m 50.549559,229.83351 -0.281311,-57.77295 7.800191,0.13385 v 57.14967 z"
       id="path64"
       sodipodi:nodetypes="ccccc" />
    <path
       style="fill:#ba8720;fill-opacity:1;stroke:url(#linearGradient65);stroke-width:0.756288;stroke-linecap:round;stroke-dasharray:none;stroke-opacity:1"
       d="m 13.648151,166.01703 57.764813,-0.0202 -0.170797,7.98087 -57.140307,-0.26473 z"
       id="path65"
       sodipodi:nodetypes="ccccc" />
  </g>
</svg>
